<svg width="347" height="130" viewBox="0 0 347 130" fill="none" xmlns="http://www.w3.org/2000/svg">
<path d="M50.2646 90.0728L75.7806 72.8324L93.5192 99.0858C98.28 106.132 96.4275 115.703 89.3815 120.464V120.464C82.3354 125.225 72.7641 123.372 68.0033 116.326L50.2646 90.0728Z" fill="url(#paint0_linear)"/>
<path fill-rule="evenodd" clip-rule="evenodd" d="M90.2711 45.1356C90.2711 70.0632 70.0632 90.2711 45.1356 90.2711H0V45.1356V0H45.1356C70.0632 0 90.2711 20.2079 90.2711 45.1356ZM67.7033 45.1356C67.7033 58.9374 56.5779 70.1407 42.8059 70.2668V70.2679H42.571H17.4387V45.1356V20.0033H42.571H42.8059V20.0044C56.5779 20.1304 67.7033 31.3338 67.7033 45.1356Z" fill="url(#paint1_linear)"/>
<path d="M0 0V0C16.1463 0 29.2355 13.0892 29.2355 29.2355V110.824C29.2355 118.169 23.2814 124.123 15.9367 124.123H14.6178C6.5446 124.123 0 117.578 0 109.505V0Z" fill="url(#paint2_linear)"/>
<path d="M97.6406 63.7812C97.8438 63.7969 98.7578 63.7578 100.383 63.6641C102.023 63.5703 103.125 63.4844 103.688 63.4062C104.094 63.375 104.297 63.125 104.297 62.6562C104.297 61.4062 104.062 60.3125 103.594 59.375C103.125 58.4375 102.406 57.9688 101.438 57.9688C100.797 57.9688 100.211 58.1953 99.6797 58.6484C99.1641 59.0859 98.7656 59.6328 98.4844 60.2891C98.2031 60.9453 97.9922 61.5781 97.8516 62.1875C97.7109 62.7969 97.6406 63.3281 97.6406 63.7812ZM97.5938 65.6562C97.5938 66.9062 97.7578 68.0156 98.0859 68.9844C98.4141 69.9531 98.8125 70.7109 99.2812 71.2578C99.7656 71.8047 100.32 72.2578 100.945 72.6172C101.57 72.9609 102.141 73.1953 102.656 73.3203C103.172 73.4297 103.672 73.4844 104.156 73.4844C106.234 73.4844 107.984 72.7031 109.406 71.1406C109.562 71.1875 109.695 71.3047 109.805 71.4922C109.914 71.6641 109.969 71.8281 109.969 71.9844C109.969 72.4375 109.922 72.7344 109.828 72.875C109.578 73.2656 109.219 73.6953 108.75 74.1641C108.281 74.6172 107.688 75.1016 106.969 75.6172C106.25 76.1328 105.391 76.5625 104.391 76.9062C103.406 77.25 102.391 77.4219 101.344 77.4219C99.5781 77.4219 97.9531 77.0391 96.4688 76.2734C94.9844 75.5078 93.7812 74.375 92.8594 72.875C91.9531 71.3594 91.5 69.6094 91.5 67.625C91.5 65.6875 91.9844 63.8281 92.9531 62.0469C93.9375 60.25 95.2344 58.8047 96.8438 57.7109C98.4688 56.6016 100.156 56.0469 101.906 56.0469C103.078 56.0469 104.141 56.2109 105.094 56.5391C106.062 56.8516 106.844 57.2578 107.438 57.7578C108.047 58.2578 108.555 58.8281 108.961 59.4688C109.383 60.1094 109.68 60.7344 109.852 61.3438C110.023 61.9531 110.109 62.5469 110.109 63.125C110.109 63.6406 109.984 64.0938 109.734 64.4844C109.484 64.875 109.188 65.0781 108.844 65.0938C106.031 65.3438 102.281 65.5312 97.5938 65.6562ZM126.82 56C128.648 56 130.273 56.4766 131.695 57.4297C133.117 58.3828 134.188 59.6172 134.906 61.1328C135.641 62.6484 136.008 64.2812 136.008 66.0312C136.008 67.75 135.648 69.3438 134.93 70.8125C134.227 72.2812 133.312 73.4844 132.188 74.4219C131.062 75.3438 129.828 76.0703 128.484 76.6016C127.156 77.1172 125.836 77.375 124.523 77.375C124.133 77.375 123.727 77.3359 123.305 77.2578C122.883 77.1953 122.531 77.125 122.25 77.0469C121.984 76.9844 121.836 76.9531 121.805 76.9531C121.711 76.9531 121.664 77.2031 121.664 77.7031V80.2344C121.664 82.5469 121.789 84.0156 122.039 84.6406C122.195 85.0625 123.195 85.3438 125.039 85.4844C125.148 85.6562 125.195 85.9531 125.18 86.375C125.18 86.7969 125.133 87.0781 125.039 87.2188C122.898 87 120.758 86.8906 118.617 86.8906C116.477 86.8906 114.336 87 112.195 87.2188C112.102 87.0781 112.047 86.7969 112.031 86.375C112.031 85.9531 112.086 85.6562 112.195 85.4844C114.039 85.3438 115.039 85.0625 115.195 84.6406C115.445 84.0156 115.57 82.5469 115.57 80.2344V64.8125C115.57 62.7812 115.43 61.5 115.148 60.9688C114.992 60.6719 114.547 60.4453 113.812 60.2891C113.094 60.1172 112.555 60.0312 112.195 60.0312C112.117 59.9844 112.078 59.7344 112.078 59.2812C112.078 58.8125 112.133 58.5781 112.242 58.5781C113.867 58.4531 115.531 58.1406 117.234 57.6406C118.953 57.1406 120.336 56.625 121.383 56.0938C121.539 56.1406 121.711 56.2656 121.898 56.4688C122.086 56.6719 122.18 56.8125 122.18 56.8906C122.18 56.9062 122.133 57.0234 122.039 57.2422C121.945 57.4453 121.875 57.6484 121.828 57.8516C121.781 58.0547 121.758 58.2656 121.758 58.4844C121.758 58.7031 121.797 58.8125 121.875 58.8125C121.891 58.8125 121.914 58.7969 121.945 58.7656C122.68 57.9844 123.5 57.3281 124.406 56.7969C125.312 56.2656 126.117 56 126.82 56ZM124.242 59.4219C123.711 59.4219 123.234 59.5234 122.812 59.7266C122.391 59.9141 122.094 60.1016 121.922 60.2891C121.75 60.4766 121.664 60.625 121.664 60.7344V72.5C121.664 73.3906 121.977 74.0859 122.602 74.5859C123.227 75.0703 123.977 75.3125 124.852 75.3125C125.273 75.3125 125.719 75.1641 126.188 74.8672C126.672 74.5703 127.148 74.1328 127.617 73.5547C128.086 72.9766 128.477 72.1719 128.789 71.1406C129.102 70.1094 129.258 68.9531 129.258 67.6719C129.258 62.1719 127.586 59.4219 124.242 59.4219ZM154.148 64.8125C154.148 62.7812 154.008 61.5 153.727 60.9688C153.57 60.6719 153.125 60.4453 152.391 60.2891C151.672 60.1172 151.133 60.0312 150.773 60.0312C150.695 59.9844 150.656 59.7344 150.656 59.2812C150.656 58.8125 150.711 58.5781 150.82 58.5781C152.445 58.4531 154.109 58.1406 155.812 57.6406C157.531 57.1406 158.914 56.625 159.961 56.0938C160.117 56.1406 160.289 56.2656 160.477 56.4688C160.664 56.6719 160.758 56.8125 160.758 56.8906C160.695 57.0781 160.609 57.4922 160.5 58.1328C160.391 58.7578 160.32 59.2344 160.289 59.5625C160.258 60.25 160.242 61.2344 160.242 62.5156V71.9375C160.242 72.8125 160.383 73.4062 160.664 73.7188C160.945 74.0312 161.648 74.1875 162.773 74.1875C162.867 74.2812 162.914 74.4844 162.914 74.7969C162.914 75.1094 162.82 75.4062 162.633 75.6875C161.836 75.7656 160.805 75.9453 159.539 76.2266C158.273 76.4922 157.164 76.7422 156.211 76.9766C155.273 77.2109 154.727 77.3281 154.57 77.3281C154.461 77.3281 154.359 77.2188 154.266 77C154.188 76.7969 154.148 76.5312 154.148 76.2031V75.4531C154.148 75.2344 154.102 75.1562 154.008 75.2188C153.633 75.4688 153.188 75.7266 152.672 75.9922C152.172 76.2578 151.414 76.5312 150.398 76.8125C149.398 77.0938 148.398 77.2344 147.398 77.2344C146.305 77.2344 145.352 77.0078 144.539 76.5547C143.742 76.1016 143.117 75.4766 142.664 74.6797C142.227 73.8672 141.906 72.9844 141.703 72.0312C141.5 71.0625 141.398 70 141.398 68.8438V64.8125C141.398 62.7812 141.258 61.5 140.977 60.9688C140.82 60.6719 140.375 60.4453 139.641 60.2891C138.922 60.1172 138.383 60.0312 138.023 60.0312C137.945 59.9844 137.906 59.7344 137.906 59.2812C137.906 58.8125 137.961 58.5781 138.07 58.5781C139.695 58.4531 141.359 58.1406 143.062 57.6406C144.781 57.1406 146.164 56.625 147.211 56.0938C147.367 56.1406 147.539 56.2656 147.727 56.4688C147.914 56.6719 148.008 56.8125 148.008 56.8906C147.945 57.0781 147.859 57.4922 147.75 58.1328C147.641 58.7578 147.57 59.2344 147.539 59.5625C147.508 60.25 147.492 61.2344 147.492 62.5156V66.7344C147.492 69.375 147.75 71.3125 148.266 72.5469C148.797 73.7656 149.758 74.375 151.148 74.375C151.789 74.375 152.445 74.1797 153.117 73.7891C153.805 73.3828 154.148 73 154.148 72.6406V64.8125ZM173.953 56.9375C173.953 56.9375 175.734 56.9375 179.297 56.9375C179.484 56.9375 179.578 57.1406 179.578 57.5469C179.578 57.75 179.461 58.0234 179.227 58.3672C178.992 58.7109 178.75 58.9688 178.5 59.1406H173.953V70.7656C173.953 72 174.156 72.9062 174.562 73.4844C174.969 74.0469 175.609 74.3281 176.484 74.3281C176.969 74.3281 177.453 74.1875 177.938 73.9062C178.438 73.625 178.781 73.3906 178.969 73.2031C179.188 73.4219 179.297 73.6406 179.297 73.8594C179.297 73.9688 179.25 74.1328 179.156 74.3516C179.062 74.5547 178.984 74.6875 178.922 74.75C178.672 75.0312 178.359 75.3359 177.984 75.6641C177.609 75.9766 177.023 76.3359 176.227 76.7422C175.445 77.1328 174.688 77.3281 173.953 77.3281C173.344 77.3281 172.758 77.2578 172.195 77.1172C171.648 76.9922 171.102 76.7656 170.555 76.4375C170.023 76.0938 169.562 75.6719 169.172 75.1719C168.781 74.6562 168.461 74 168.211 73.2031C167.977 72.4062 167.859 71.5 167.859 70.4844V59.1406H164.531C164.375 59.0781 164.297 58.875 164.297 58.5312C164.703 57.9688 165.203 57.4375 165.797 56.9375H167.859V54.4531C168.562 53.8594 169.547 52.8984 170.812 51.5703C172.078 50.2266 172.734 49.5312 172.781 49.4844C173.047 49.3281 173.297 49.2578 173.531 49.2734C173.781 49.2734 173.922 49.3438 173.953 49.4844V56.9375ZM190.688 74.0938C191.219 74.0938 191.672 73.9766 192.047 73.7422C192.422 73.4922 192.609 73.2812 192.609 73.1094V66.5469C192.516 66.5938 192.07 66.7969 191.273 67.1562C190.477 67.5156 189.891 67.8125 189.516 68.0469C188.328 68.8125 187.766 69.8594 187.828 71.1875C187.844 72.1094 188.148 72.8281 188.742 73.3438C189.336 73.8438 189.984 74.0938 190.688 74.0938ZM191.672 55.9531C193.641 55.9531 195.305 56.6328 196.664 57.9922C198.023 59.3359 198.703 61.0469 198.703 63.125V71.8906C198.703 72.5 198.805 72.9766 199.008 73.3203C199.227 73.6484 199.5 73.8125 199.828 73.8125C199.984 73.8125 200.141 73.7891 200.297 73.7422C200.453 73.6953 200.578 73.6562 200.672 73.625C200.766 73.5625 200.875 73.5 201 73.4375L201.188 73.3438C201.406 73.4531 201.516 73.7188 201.516 74.1406C201.516 74.4062 201.453 74.6406 201.328 74.8438C201 75.1406 200.625 75.4531 200.203 75.7812C199.797 76.0938 199.227 76.4219 198.492 76.7656C197.758 77.1094 197.094 77.2812 196.5 77.2812C195.75 77.2812 195.023 77.0391 194.32 76.5547C193.617 76.0703 193.156 75.5312 192.938 74.9375C192.547 75.2812 191.75 75.7734 190.547 76.4141C189.344 77.0547 188.375 77.375 187.641 77.375C185.922 77.375 184.469 76.7891 183.281 75.6172C182.094 74.4297 181.5 73.1094 181.5 71.6562C181.5 70.7812 181.742 69.9922 182.227 69.2891C182.727 68.5703 183.297 68.1094 183.938 67.9062C184.453 67.7344 185.242 67.4531 186.305 67.0625C187.367 66.6562 188.539 66.2031 189.82 65.7031C191.117 65.2031 192.047 64.8438 192.609 64.625V63.6406V62.4219C192.609 61.2031 192.344 60.1172 191.812 59.1641C191.297 58.2109 190.641 57.7344 189.844 57.7344C189.5 57.7344 189.188 57.8125 188.906 57.9688C188.641 58.1094 188.422 58.2891 188.25 58.5078C188.078 58.7109 187.914 59.0078 187.758 59.3984C187.617 59.7891 187.5 60.1406 187.406 60.4531C187.328 60.75 187.234 61.1562 187.125 61.6719C186.828 63.0469 185.953 63.7344 184.5 63.7344C183.844 63.7344 183.273 63.5234 182.789 63.1016C182.305 62.6641 182.062 62.125 182.062 61.4844C182.062 60.9688 182.281 60.3281 182.719 59.5625C183.312 58.9688 184.508 58.2188 186.305 57.3125C188.117 56.4062 189.906 55.9531 191.672 55.9531ZM212.109 56.9375C212.109 56.9375 213.891 56.9375 217.453 56.9375C217.641 56.9375 217.734 57.1406 217.734 57.5469C217.734 57.75 217.617 58.0234 217.383 58.3672C217.148 58.7109 216.906 58.9688 216.656 59.1406H212.109V70.7656C212.109 72 212.312 72.9062 212.719 73.4844C213.125 74.0469 213.766 74.3281 214.641 74.3281C215.125 74.3281 215.609 74.1875 216.094 73.9062C216.594 73.625 216.938 73.3906 217.125 73.2031C217.344 73.4219 217.453 73.6406 217.453 73.8594C217.453 73.9688 217.406 74.1328 217.312 74.3516C217.219 74.5547 217.141 74.6875 217.078 74.75C216.828 75.0312 216.516 75.3359 216.141 75.6641C215.766 75.9766 215.18 76.3359 214.383 76.7422C213.602 77.1328 212.844 77.3281 212.109 77.3281C211.5 77.3281 210.914 77.2578 210.352 77.1172C209.805 76.9922 209.258 76.7656 208.711 76.4375C208.18 76.0938 207.719 75.6719 207.328 75.1719C206.938 74.6562 206.617 74 206.367 73.2031C206.133 72.4062 206.016 71.5 206.016 70.4844V59.1406H202.688C202.531 59.0781 202.453 58.875 202.453 58.5312C202.859 57.9688 203.359 57.4375 203.953 56.9375H206.016V54.4531C206.719 53.8594 207.703 52.8984 208.969 51.5703C210.234 50.2266 210.891 49.5312 210.938 49.4844C211.203 49.3281 211.453 49.2578 211.688 49.2734C211.938 49.2734 212.078 49.3438 212.109 49.4844V56.9375ZM229.055 62.5156V70.2031C229.055 72.5156 229.18 73.9844 229.43 74.6094C229.602 75.0469 230.492 75.3281 232.102 75.4531C232.211 75.625 232.258 75.9219 232.242 76.3438C232.242 76.7656 232.195 77.0469 232.102 77.1875C229.961 76.9688 227.93 76.8594 226.008 76.8594C223.867 76.8594 221.727 76.9688 219.586 77.1875C219.492 77.0469 219.438 76.7656 219.422 76.3438C219.422 75.9219 219.477 75.625 219.586 75.4531C221.43 75.3125 222.43 75.0312 222.586 74.6094C222.836 73.9844 222.961 72.5156 222.961 70.2031V64.8125C222.961 62.7812 222.82 61.5 222.539 60.9688C222.383 60.6719 221.938 60.4453 221.203 60.2891C220.484 60.1172 219.945 60.0312 219.586 60.0312C219.508 59.9844 219.469 59.7344 219.469 59.2812C219.469 58.8125 219.523 58.5781 219.633 58.5781C221.258 58.4531 222.922 58.1406 224.625 57.6406C226.344 57.1406 227.727 56.625 228.773 56.0938C228.93 56.1406 229.102 56.2656 229.289 56.4688C229.477 56.6719 229.57 56.8125 229.57 56.8906C229.508 57.0781 229.422 57.4922 229.312 58.1328C229.203 58.7578 229.133 59.2344 229.102 59.5625C229.07 60.25 229.055 61.2344 229.055 62.5156ZM223.148 50.5156C222.492 49.8594 222.164 49.0625 222.164 48.125C222.164 47.1875 222.492 46.3906 223.148 45.7344C223.805 45.0781 224.602 44.75 225.539 44.75C226.477 44.75 227.281 45.0781 227.953 45.7344C228.625 46.3906 228.961 47.1875 228.961 48.125C228.961 49.0625 228.625 49.8594 227.953 50.5156C227.281 51.1719 226.477 51.5 225.539 51.5C224.602 51.5 223.805 51.1719 223.148 50.5156ZM244.688 57.9688C243.875 57.9688 243.203 58.2109 242.672 58.6953C242.141 59.1641 241.758 59.8359 241.523 60.7109C241.289 61.5703 241.133 62.3906 241.055 63.1719C240.977 63.9531 240.938 64.8594 240.938 65.8906C240.938 67.375 241.094 68.8125 241.406 70.2031C241.719 71.5781 242.25 72.7812 243 73.8125C243.766 74.8438 244.688 75.3594 245.766 75.3594C246.422 75.3594 246.992 75.1953 247.477 74.8672C247.961 74.5234 248.328 74.1016 248.578 73.6016C248.844 73.1016 249.055 72.4766 249.211 71.7266C249.367 70.9766 249.461 70.2891 249.492 69.6641C249.539 69.0391 249.562 68.3281 249.562 67.5312C249.562 66.0312 249.398 64.5859 249.07 63.1953C248.758 61.7891 248.219 60.5703 247.453 59.5391C246.688 58.4922 245.766 57.9688 244.688 57.9688ZM245.203 56.0469C248.422 56.0469 251.062 57.0312 253.125 59C255.188 60.9688 256.219 63.4531 256.219 66.4531C256.219 68.4062 255.742 70.2188 254.789 71.8906C253.836 73.5469 252.516 74.8672 250.828 75.8516C249.156 76.8359 247.312 77.3281 245.297 77.3281C242.078 77.3281 239.438 76.3281 237.375 74.3281C235.312 72.3125 234.281 69.8125 234.281 66.8281C234.281 63.8594 235.336 61.3203 237.445 59.2109C239.57 57.1016 242.156 56.0469 245.203 56.0469ZM275.555 56.0938C276.617 56.0938 277.523 56.25 278.273 56.5625C279.023 56.8594 279.633 57.2891 280.102 57.8516C280.586 58.3984 280.961 59.1406 281.227 60.0781C281.492 61.0156 281.672 62.0391 281.766 63.1484C281.875 64.2422 281.93 65.5781 281.93 67.1562V70.2031C281.93 72.5156 282.055 73.9844 282.305 74.6094C282.461 75.0312 283.461 75.3125 285.305 75.4531C285.414 75.625 285.461 75.9219 285.445 76.3438C285.445 76.7656 285.398 77.0469 285.305 77.1875C283.164 76.9688 281.023 76.8594 278.883 76.8594C277.117 76.8594 275.164 76.9688 273.023 77.1875C272.93 77.0469 272.875 76.7656 272.859 76.3438C272.859 75.9219 272.914 75.625 273.023 75.4531C274.477 75.3438 275.289 75.0625 275.461 74.6094C275.711 73.9844 275.836 72.5156 275.836 70.2031V66.5C275.836 62.0938 274.789 59.8906 272.695 59.8906C271.805 59.8906 270.891 60.2031 269.953 60.8281C269.031 61.4531 268.57 62.0156 268.57 62.5156V70.2031C268.57 72.5156 268.695 73.9844 268.945 74.6094C269.117 75.0469 270.008 75.3281 271.617 75.4531C271.727 75.625 271.773 75.9219 271.758 76.3438C271.758 76.7656 271.711 77.0469 271.617 77.1875C269.477 76.9688 267.445 76.8594 265.523 76.8594C263.383 76.8594 261.242 76.9688 259.102 77.1875C259.008 77.0469 258.953 76.7656 258.938 76.3438C258.938 75.9219 258.992 75.625 259.102 75.4531C260.945 75.3125 261.945 75.0312 262.102 74.6094C262.352 73.9844 262.477 72.5156 262.477 70.2031V64.8125C262.477 62.7812 262.336 61.5 262.055 60.9688C261.898 60.6719 261.453 60.4453 260.719 60.2891C260 60.1172 259.461 60.0312 259.102 60.0312C259.023 59.9844 258.984 59.7344 258.984 59.2812C258.984 58.8125 259.039 58.5781 259.148 58.5781C260.773 58.4531 262.438 58.1406 264.141 57.6406C265.859 57.1406 267.242 56.625 268.289 56.0938C268.43 56.0938 268.594 56.1953 268.781 56.3984C268.984 56.6016 269.086 56.7656 269.086 56.8906C269.055 57 269 57.2734 268.922 57.7109C268.844 58.1484 268.773 58.5625 268.711 58.9531C268.648 59.3438 268.617 59.5469 268.617 59.5625C268.617 59.7188 268.633 59.8125 268.664 59.8438C268.727 59.8438 268.836 59.7656 268.992 59.6094C269.727 58.7812 270.75 57.9922 272.062 57.2422C273.391 56.4766 274.555 56.0938 275.555 56.0938ZM287.625 73.9062C287.625 72.9688 287.969 72.1641 288.656 71.4922C289.344 70.8203 290.172 70.4844 291.141 70.4844C292.109 70.4844 292.938 70.8438 293.625 71.5625C294.312 72.2656 294.656 73.0938 294.656 74.0469C294.656 74.9844 294.312 75.7969 293.625 76.4844C292.953 77.1719 292.141 77.5156 291.188 77.5156C290.203 77.5156 289.359 77.1641 288.656 76.4609C287.969 75.7578 287.625 74.9062 287.625 73.9062ZM307.477 62.5156V70.2031C307.477 72.5156 307.602 73.9844 307.852 74.6094C308.023 75.0469 308.914 75.3281 310.523 75.4531C310.633 75.625 310.68 75.9219 310.664 76.3438C310.664 76.7656 310.617 77.0469 310.523 77.1875C308.383 76.9688 306.352 76.8594 304.43 76.8594C302.289 76.8594 300.148 76.9688 298.008 77.1875C297.914 77.0469 297.859 76.7656 297.844 76.3438C297.844 75.9219 297.898 75.625 298.008 75.4531C299.852 75.3125 300.852 75.0312 301.008 74.6094C301.258 73.9844 301.383 72.5156 301.383 70.2031V64.8125C301.383 62.7812 301.242 61.5 300.961 60.9688C300.805 60.6719 300.359 60.4453 299.625 60.2891C298.906 60.1172 298.367 60.0312 298.008 60.0312C297.93 59.9844 297.891 59.7344 297.891 59.2812C297.891 58.8125 297.945 58.5781 298.055 58.5781C299.68 58.4531 301.344 58.1406 303.047 57.6406C304.766 57.1406 306.148 56.625 307.195 56.0938C307.352 56.1406 307.523 56.2656 307.711 56.4688C307.898 56.6719 307.992 56.8125 307.992 56.8906C307.93 57.0781 307.844 57.4922 307.734 58.1328C307.625 58.7578 307.555 59.2344 307.523 59.5625C307.492 60.25 307.477 61.2344 307.477 62.5156ZM301.57 50.5156C300.914 49.8594 300.586 49.0625 300.586 48.125C300.586 47.1875 300.914 46.3906 301.57 45.7344C302.227 45.0781 303.023 44.75 303.961 44.75C304.898 44.75 305.703 45.0781 306.375 45.7344C307.047 46.3906 307.383 47.1875 307.383 48.125C307.383 49.0625 307.047 49.8594 306.375 50.5156C305.703 51.1719 304.898 51.5 303.961 51.5C303.023 51.5 302.227 51.1719 301.57 50.5156ZM321.891 56C322.547 56 323.156 56.0469 323.719 56.1406C324.297 56.2188 324.969 56.3594 325.734 56.5625C326.5 56.75 326.969 56.8594 327.141 56.8906C327.344 57.75 327.555 58.8359 327.773 60.1484C328.008 61.4453 328.125 62.2812 328.125 62.6562C328.125 62.75 328.031 62.8281 327.844 62.8906C327.656 62.9531 327.469 62.9844 327.281 62.9844C327.062 62.9844 326.766 62.8594 326.391 62.6094C325.688 59.4531 324.031 57.875 321.422 57.875C320.625 57.875 319.977 58.0938 319.477 58.5312C318.992 58.9688 318.75 59.5938 318.75 60.4062C318.75 60.7969 318.82 61.1641 318.961 61.5078C319.117 61.8359 319.297 62.1172 319.5 62.3516C319.719 62.5703 320.008 62.7969 320.367 63.0312C320.742 63.2656 321.07 63.4531 321.352 63.5938C321.633 63.7188 322.008 63.8828 322.477 64.0859C322.945 64.2891 323.297 64.4531 323.531 64.5781C325.031 65.3281 326.039 65.9141 326.555 66.3359C327.914 67.4297 328.594 68.9531 328.594 70.9062C328.594 72.0312 328.344 73.0234 327.844 73.8828C327.344 74.7422 326.656 75.4219 325.781 75.9219C324.922 76.4062 323.953 76.7656 322.875 77C321.797 77.25 320.625 77.375 319.359 77.375C318.875 77.375 318.336 77.3281 317.742 77.2344C317.148 77.1562 316.672 77.0781 316.312 77C315.969 76.9219 315.492 76.8047 314.883 76.6484C314.273 76.4922 313.938 76.4062 313.875 76.3906C313.797 75.9219 313.711 74.8984 313.617 73.3203C313.539 71.7266 313.5 70.7188 313.5 70.2969C313.5 70.0781 313.734 69.9688 314.203 69.9688C314.391 69.9688 314.594 70.0156 314.812 70.1094C315.031 70.2031 315.172 70.3125 315.234 70.4375C315.391 71.4062 315.648 72.2422 316.008 72.9453C316.383 73.6328 316.82 74.1562 317.32 74.5156C317.82 74.8594 318.312 75.1094 318.797 75.2656C319.281 75.4219 319.781 75.5 320.297 75.5C321.094 75.5 321.734 75.25 322.219 74.75C322.719 74.25 322.969 73.6562 322.969 72.9688C322.969 72.5156 322.875 72.1172 322.688 71.7734C322.516 71.4141 322.242 71.1016 321.867 70.8359C321.508 70.5547 321.156 70.3203 320.812 70.1328C320.484 69.9453 320.031 69.7188 319.453 69.4531C318.891 69.1875 318.453 68.9688 318.141 68.7969C317.359 68.375 316.703 67.9766 316.172 67.6016C315.656 67.2266 315.148 66.7891 314.648 66.2891C314.164 65.7734 313.797 65.2031 313.547 64.5781C313.297 63.9375 313.172 63.2344 313.172 62.4688C313.172 61.3594 313.445 60.375 313.992 59.5156C314.555 58.6406 315.273 57.9609 316.148 57.4766C317.039 56.9766 317.969 56.6094 318.938 56.375C319.922 56.125 320.906 56 321.891 56ZM340.266 56.9375C340.266 56.9375 342.047 56.9375 345.609 56.9375C345.797 56.9375 345.891 57.1406 345.891 57.5469C345.891 57.75 345.773 58.0234 345.539 58.3672C345.305 58.7109 345.062 58.9688 344.812 59.1406H340.266V70.7656C340.266 72 340.469 72.9062 340.875 73.4844C341.281 74.0469 341.922 74.3281 342.797 74.3281C343.281 74.3281 343.766 74.1875 344.25 73.9062C344.75 73.625 345.094 73.3906 345.281 73.2031C345.5 73.4219 345.609 73.6406 345.609 73.8594C345.609 73.9688 345.562 74.1328 345.469 74.3516C345.375 74.5547 345.297 74.6875 345.234 74.75C344.984 75.0312 344.672 75.3359 344.297 75.6641C343.922 75.9766 343.336 76.3359 342.539 76.7422C341.758 77.1328 341 77.3281 340.266 77.3281C339.656 77.3281 339.07 77.2578 338.508 77.1172C337.961 76.9922 337.414 76.7656 336.867 76.4375C336.336 76.0938 335.875 75.6719 335.484 75.1719C335.094 74.6562 334.773 74 334.523 73.2031C334.289 72.4062 334.172 71.5 334.172 70.4844V59.1406H330.844C330.688 59.0781 330.609 58.875 330.609 58.5312C331.016 57.9688 331.516 57.4375 332.109 56.9375H334.172V54.4531C334.875 53.8594 335.859 52.8984 337.125 51.5703C338.391 50.2266 339.047 49.5312 339.094 49.4844C339.359 49.3281 339.609 49.2578 339.844 49.2734C340.094 49.2734 340.234 49.3438 340.266 49.4844V56.9375Z" fill="black"/>
<defs>
<linearGradient id="paint0_linear" x1="63.0226" y1="81.4526" x2="89.3815" y2="120.464" gradientUnits="userSpaceOnUse">
<stop stop-color="#00D1B2"/>
<stop offset="1" stop-color="#209CEE"/>
</linearGradient>
<linearGradient id="paint1_linear" x1="45.1356" y1="0" x2="45.1356" y2="90.2711" gradientUnits="userSpaceOnUse">
<stop stop-color="#FFDD57"/>
<stop offset="1" stop-color="#23D160"/>
</linearGradient>
<linearGradient id="paint2_linear" x1="14.6178" y1="0" x2="14.6178" y2="124.123" gradientUnits="userSpaceOnUse">
<stop stop-color="#FF3860"/>
<stop offset="1" stop-color="#3273DC"/>
</linearGradient>
</defs>
</svg>
