<svg width="152" height="30" viewBox="0 0 152 30" fill="none" xmlns="http://www.w3.org/2000/svg">
<path d="M10.7949 0.796875C13.0801 0.796875 14.9316 1.35352 16.3496 2.4668C17.7793 3.58008 18.4941 5.15625 18.4941 7.19531C18.4941 7.875 18.3242 8.55469 17.9844 9.23438C17.6562 9.90234 17.2402 10.4824 16.7363 10.9746C16.2324 11.4668 15.7109 11.8828 15.1719 12.2227C14.6445 12.5625 14.1582 12.7852 13.7129 12.8906C14.4746 13.9102 15.2773 14.9648 16.1211 16.0547C16.9648 17.1328 17.627 17.9648 18.1074 18.5508L18.8105 19.4297C19.3027 20.0508 19.8301 20.5898 20.3926 21.0469C20.9668 21.5039 21.4707 21.8438 21.9043 22.0664C22.3379 22.2891 22.7773 22.4648 23.2227 22.5938C23.668 22.7109 23.9844 22.7812 24.1719 22.8047C24.3594 22.8281 24.5176 22.8398 24.6465 22.8398C24.7168 22.9922 24.7402 23.2324 24.7168 23.5605C24.7051 23.877 24.6816 24.0703 24.6465 24.1406C23.2871 24.2344 21.752 24.2812 20.041 24.2812C18.8105 24.2812 17.7383 24.0234 16.8242 23.5078C15.9102 22.9805 15.1895 22.3594 14.6621 21.6445L8.9668 14.0156C8.73242 13.6641 8.52148 13.4883 8.33398 13.4883H7.80664V18.9023C7.80664 20.6367 7.90039 21.7383 8.08789 22.207C8.20508 22.5234 8.95508 22.7344 10.3379 22.8398C10.4199 22.9688 10.4551 23.1914 10.4434 23.5078C10.4434 23.8242 10.4082 24.0352 10.3379 24.1406C8.73242 23.9766 7.05664 23.8945 5.31055 23.8945C3.61133 23.8945 1.95898 23.9766 0.353516 24.1406C0.283203 24.0352 0.242188 23.8242 0.230469 23.5078C0.230469 23.1914 0.271484 22.9688 0.353516 22.8398C1.73633 22.7344 2.48633 22.5234 2.60352 22.207C2.79102 21.7383 2.88477 20.6367 2.88477 18.9023V5.96484C2.88477 4.23047 2.79102 3.12891 2.60352 2.66016C2.49805 2.39062 1.74805 2.20312 0.353516 2.09766C0.271484 1.96875 0.230469 1.74609 0.230469 1.42969C0.242188 1.11328 0.283203 0.902344 0.353516 0.796875C1.4082 0.867188 3.08398 0.902344 5.38086 0.902344C5.82617 0.902344 6.65234 0.884766 7.85938 0.849609C9.07812 0.814453 10.0566 0.796875 10.7949 0.796875ZM13.2559 7.54688C13.2559 6.78516 13.2031 6.11133 13.0977 5.52539C13.0039 4.93945 12.834 4.38281 12.5879 3.85547C12.3418 3.32812 11.9785 2.92383 11.498 2.64258C11.0176 2.34961 10.4316 2.20312 9.74023 2.20312C8.69727 2.20312 8.11133 2.34375 7.98242 2.625C7.86523 2.90625 7.80664 3.62109 7.80664 4.76953V12.1172H9.42383C10.4551 12.1172 11.3516 11.6836 12.1133 10.8164C12.875 9.94922 13.2559 8.85938 13.2559 7.54688ZM27.1836 17.3906C27.2852 17.3984 27.7422 17.3789 28.5547 17.332C29.375 17.2852 29.9258 17.2422 30.207 17.2031C30.4102 17.1875 30.5117 17.0625 30.5117 16.8281C30.5117 16.2031 30.3945 15.6562 30.1602 15.1875C29.9258 14.7188 29.5664 14.4844 29.082 14.4844C28.7617 14.4844 28.4688 14.5977 28.2031 14.8242C27.9453 15.043 27.7461 15.3164 27.6055 15.6445C27.4648 15.9727 27.3594 16.2891 27.2891 16.5938C27.2188 16.8984 27.1836 17.1641 27.1836 17.3906ZM27.1602 18.3281C27.1602 18.9531 27.2422 19.5078 27.4062 19.9922C27.5703 20.4766 27.7695 20.8555 28.0039 21.1289C28.2461 21.4023 28.5234 21.6289 28.8359 21.8086C29.1484 21.9805 29.4336 22.0977 29.6914 22.1602C29.9492 22.2148 30.1992 22.2422 30.4414 22.2422C31.4805 22.2422 32.3555 21.8516 33.0664 21.0703C33.1445 21.0938 33.2109 21.1523 33.2656 21.2461C33.3203 21.332 33.3477 21.4141 33.3477 21.4922C33.3477 21.7188 33.3242 21.8672 33.2773 21.9375C33.1523 22.1328 32.9727 22.3477 32.7383 22.582C32.5039 22.8086 32.207 23.0508 31.8477 23.3086C31.4883 23.5664 31.0586 23.7812 30.5586 23.9531C30.0664 24.125 29.5586 24.2109 29.0352 24.2109C28.1523 24.2109 27.3398 24.0195 26.5977 23.6367C25.8555 23.2539 25.2539 22.6875 24.793 21.9375C24.3398 21.1797 24.1133 20.3047 24.1133 19.3125C24.1133 18.3438 24.3555 17.4141 24.8398 16.5234C25.332 15.625 25.9805 14.9023 26.7852 14.3555C27.5977 13.8008 28.4414 13.5234 29.3164 13.5234C29.9023 13.5234 30.4336 13.6055 30.9102 13.7695C31.3945 13.9258 31.7852 14.1289 32.082 14.3789C32.3867 14.6289 32.6406 14.9141 32.8438 15.2344C33.0547 15.5547 33.2031 15.8672 33.2891 16.1719C33.375 16.4766 33.418 16.7734 33.418 17.0625C33.418 17.3203 33.3555 17.5469 33.2305 17.7422C33.1055 17.9375 32.957 18.0391 32.7852 18.0469C31.3789 18.1719 29.5039 18.2656 27.1602 18.3281ZM41.7734 13.5C42.6875 13.5 43.5 13.7383 44.2109 14.2148C44.9219 14.6914 45.457 15.3086 45.8164 16.0664C46.1836 16.8242 46.3672 17.6406 46.3672 18.5156C46.3672 19.375 46.1875 20.1719 45.8281 20.9062C45.4766 21.6406 45.0195 22.2422 44.457 22.7109C43.8945 23.1719 43.2773 23.5352 42.6055 23.8008C41.9414 24.0586 41.2812 24.1875 40.625 24.1875C40.4297 24.1875 40.2266 24.168 40.0156 24.1289C39.8047 24.0977 39.6289 24.0625 39.4883 24.0234C39.3555 23.9922 39.2812 23.9766 39.2656 23.9766C39.2188 23.9766 39.1953 24.1016 39.1953 24.3516V25.6172C39.1953 26.7734 39.2578 27.5078 39.3828 27.8203C39.4609 28.0312 39.9609 28.1719 40.8828 28.2422C40.9375 28.3281 40.9609 28.4766 40.9531 28.6875C40.9531 28.8984 40.9297 29.0391 40.8828 29.1094C39.8125 29 38.7422 28.9453 37.6719 28.9453C36.6016 28.9453 35.5312 29 34.4609 29.1094C34.4141 29.0391 34.3867 28.8984 34.3789 28.6875C34.3789 28.4766 34.4062 28.3281 34.4609 28.2422C35.3828 28.1719 35.8828 28.0312 35.9609 27.8203C36.0859 27.5078 36.1484 26.7734 36.1484 25.6172V17.9062C36.1484 16.8906 36.0781 16.25 35.9375 15.9844C35.8594 15.8359 35.6367 15.7227 35.2695 15.6445C34.9102 15.5586 34.6406 15.5156 34.4609 15.5156C34.4219 15.4922 34.4023 15.3672 34.4023 15.1406C34.4023 14.9062 34.4297 14.7891 34.4844 14.7891C35.2969 14.7266 36.1289 14.5703 36.9805 14.3203C37.8398 14.0703 38.5312 13.8125 39.0547 13.5469C39.1328 13.5703 39.2188 13.6328 39.3125 13.7344C39.4062 13.8359 39.4531 13.9062 39.4531 13.9453C39.4531 13.9531 39.4297 14.0117 39.3828 14.1211C39.3359 14.2227 39.3008 14.3242 39.2773 14.4258C39.2539 14.5273 39.2422 14.6328 39.2422 14.7422C39.2422 14.8516 39.2617 14.9062 39.3008 14.9062C39.3086 14.9062 39.3203 14.8984 39.3359 14.8828C39.7031 14.4922 40.1133 14.1641 40.5664 13.8984C41.0195 13.6328 41.4219 13.5 41.7734 13.5ZM40.4844 15.2109C40.2188 15.2109 39.9805 15.2617 39.7695 15.3633C39.5586 15.457 39.4102 15.5508 39.3242 15.6445C39.2383 15.7383 39.1953 15.8125 39.1953 15.8672V21.75C39.1953 22.1953 39.3516 22.543 39.6641 22.793C39.9766 23.0352 40.3516 23.1562 40.7891 23.1562C41 23.1562 41.2227 23.082 41.457 22.9336C41.6992 22.7852 41.9375 22.5664 42.1719 22.2773C42.4062 21.9883 42.6016 21.5859 42.7578 21.0703C42.9141 20.5547 42.9922 19.9766 42.9922 19.3359C42.9922 16.5859 42.1562 15.2109 40.4844 15.2109ZM55.4375 17.9062C55.4375 16.8906 55.3672 16.25 55.2266 15.9844C55.1484 15.8359 54.9258 15.7227 54.5586 15.6445C54.1992 15.5586 53.9297 15.5156 53.75 15.5156C53.7109 15.4922 53.6914 15.3672 53.6914 15.1406C53.6914 14.9062 53.7188 14.7891 53.7734 14.7891C54.5859 14.7266 55.418 14.5703 56.2695 14.3203C57.1289 14.0703 57.8203 13.8125 58.3438 13.5469C58.4219 13.5703 58.5078 13.6328 58.6016 13.7344C58.6953 13.8359 58.7422 13.9062 58.7422 13.9453C58.7109 14.0391 58.668 14.2461 58.6133 14.5664C58.5586 14.8789 58.5234 15.1172 58.5078 15.2812C58.4922 15.625 58.4844 16.1172 58.4844 16.7578V21.4688C58.4844 21.9062 58.5547 22.2031 58.6953 22.3594C58.8359 22.5156 59.1875 22.5938 59.75 22.5938C59.7969 22.6406 59.8203 22.7422 59.8203 22.8984C59.8203 23.0547 59.7734 23.2031 59.6797 23.3438C59.2812 23.3828 58.7656 23.4727 58.1328 23.6133C57.5 23.7461 56.9453 23.8711 56.4688 23.9883C56 24.1055 55.7266 24.1641 55.6484 24.1641C55.5938 24.1641 55.543 24.1094 55.4961 24C55.457 23.8984 55.4375 23.7656 55.4375 23.6016V23.2266C55.4375 23.1172 55.4141 23.0781 55.3672 23.1094C55.1797 23.2344 54.957 23.3633 54.6992 23.4961C54.4492 23.6289 54.0703 23.7656 53.5625 23.9062C53.0625 24.0469 52.5625 24.1172 52.0625 24.1172C51.5156 24.1172 51.0391 24.0039 50.6328 23.7773C50.2344 23.5508 49.9219 23.2383 49.6953 22.8398C49.4766 22.4336 49.3164 21.9922 49.2148 21.5156C49.1133 21.0312 49.0625 20.5 49.0625 19.9219V17.9062C49.0625 16.8906 48.9922 16.25 48.8516 15.9844C48.7734 15.8359 48.5508 15.7227 48.1836 15.6445C47.8242 15.5586 47.5547 15.5156 47.375 15.5156C47.3359 15.4922 47.3164 15.3672 47.3164 15.1406C47.3164 14.9062 47.3438 14.7891 47.3984 14.7891C48.2109 14.7266 49.043 14.5703 49.8945 14.3203C50.7539 14.0703 51.4453 13.8125 51.9688 13.5469C52.0469 13.5703 52.1328 13.6328 52.2266 13.7344C52.3203 13.8359 52.3672 13.9062 52.3672 13.9453C52.3359 14.0391 52.293 14.2461 52.2383 14.5664C52.1836 14.8789 52.1484 15.1172 52.1328 15.2812C52.1172 15.625 52.1094 16.1172 52.1094 16.7578V18.8672C52.1094 20.1875 52.2383 21.1562 52.4961 21.7734C52.7617 22.3828 53.2422 22.6875 53.9375 22.6875C54.2578 22.6875 54.5859 22.5898 54.9219 22.3945C55.2656 22.1914 55.4375 22 55.4375 21.8203V17.9062ZM65.3398 13.9688C65.3398 13.9688 66.2305 13.9688 68.0117 13.9688C68.1055 13.9688 68.1523 14.0703 68.1523 14.2734C68.1523 14.375 68.0938 14.5117 67.9766 14.6836C67.8594 14.8555 67.7383 14.9844 67.6133 15.0703H65.3398V20.8828C65.3398 21.5 65.4414 21.9531 65.6445 22.2422C65.8477 22.5234 66.168 22.6641 66.6055 22.6641C66.8477 22.6641 67.0898 22.5938 67.332 22.4531C67.582 22.3125 67.7539 22.1953 67.8477 22.1016C67.957 22.2109 68.0117 22.3203 68.0117 22.4297C68.0117 22.4844 67.9883 22.5664 67.9414 22.6758C67.8945 22.7773 67.8555 22.8438 67.8242 22.875C67.6992 23.0156 67.543 23.168 67.3555 23.332C67.168 23.4883 66.875 23.668 66.4766 23.8711C66.0859 24.0664 65.707 24.1641 65.3398 24.1641C65.0352 24.1641 64.7422 24.1289 64.4609 24.0586C64.1875 23.9961 63.9141 23.8828 63.6406 23.7188C63.375 23.5469 63.1445 23.3359 62.9492 23.0859C62.7539 22.8281 62.5938 22.5 62.4688 22.1016C62.3516 21.7031 62.293 21.25 62.293 20.7422V15.0703H60.6289C60.5508 15.0391 60.5117 14.9375 60.5117 14.7656C60.7148 14.4844 60.9648 14.2188 61.2617 13.9688H62.293V12.7266C62.6445 12.4297 63.1367 11.9492 63.7695 11.2852C64.4023 10.6133 64.7305 10.2656 64.7539 10.2422C64.8867 10.1641 65.0117 10.1289 65.1289 10.1367C65.2539 10.1367 65.3242 10.1719 65.3398 10.2422V13.9688ZM73.707 22.5469C73.9727 22.5469 74.1992 22.4883 74.3867 22.3711C74.5742 22.2461 74.668 22.1406 74.668 22.0547V18.7734C74.6211 18.7969 74.3984 18.8984 74 19.0781C73.6016 19.2578 73.3086 19.4062 73.1211 19.5234C72.5273 19.9062 72.2461 20.4297 72.2773 21.0938C72.2852 21.5547 72.4375 21.9141 72.7344 22.1719C73.0312 22.4219 73.3555 22.5469 73.707 22.5469ZM74.1992 13.4766C75.1836 13.4766 76.0156 13.8164 76.6953 14.4961C77.375 15.168 77.7148 16.0234 77.7148 17.0625V21.4453C77.7148 21.75 77.7656 21.9883 77.8672 22.1602C77.9766 22.3242 78.1133 22.4062 78.2773 22.4062C78.3555 22.4062 78.4336 22.3945 78.5117 22.3711C78.5898 22.3477 78.6523 22.3281 78.6992 22.3125C78.7461 22.2812 78.8008 22.25 78.8633 22.2188L78.957 22.1719C79.0664 22.2266 79.1211 22.3594 79.1211 22.5703C79.1211 22.7031 79.0898 22.8203 79.0273 22.9219C78.8633 23.0703 78.6758 23.2266 78.4648 23.3906C78.2617 23.5469 77.9766 23.7109 77.6094 23.8828C77.2422 24.0547 76.9102 24.1406 76.6133 24.1406C76.2383 24.1406 75.875 24.0195 75.5234 23.7773C75.1719 23.5352 74.9414 23.2656 74.832 22.9688C74.6367 23.1406 74.2383 23.3867 73.6367 23.707C73.0352 24.0273 72.5508 24.1875 72.1836 24.1875C71.3242 24.1875 70.5977 23.8945 70.0039 23.3086C69.4102 22.7148 69.1133 22.0547 69.1133 21.3281C69.1133 20.8906 69.2344 20.4961 69.4766 20.1445C69.7266 19.7852 70.0117 19.5547 70.332 19.4531C70.5898 19.3672 70.9844 19.2266 71.5156 19.0312C72.0469 18.8281 72.6328 18.6016 73.2734 18.3516C73.9219 18.1016 74.3867 17.9219 74.668 17.8125V17.3203V16.7109C74.668 16.1016 74.5352 15.5586 74.2695 15.082C74.0117 14.6055 73.6836 14.3672 73.2852 14.3672C73.1133 14.3672 72.957 14.4062 72.8164 14.4844C72.6836 14.5547 72.5742 14.6445 72.4883 14.7539C72.4023 14.8555 72.3203 15.0039 72.2422 15.1992C72.1719 15.3945 72.1133 15.5703 72.0664 15.7266C72.0273 15.875 71.9805 16.0781 71.9258 16.3359C71.7773 17.0234 71.3398 17.3672 70.6133 17.3672C70.2852 17.3672 70 17.2617 69.7578 17.0508C69.5156 16.832 69.3945 16.5625 69.3945 16.2422C69.3945 15.9844 69.5039 15.6641 69.7227 15.2812C70.0195 14.9844 70.6172 14.6094 71.5156 14.1562C72.4219 13.7031 73.3164 13.4766 74.1992 13.4766ZM84.418 13.9688C84.418 13.9688 85.3086 13.9688 87.0898 13.9688C87.1836 13.9688 87.2305 14.0703 87.2305 14.2734C87.2305 14.375 87.1719 14.5117 87.0547 14.6836C86.9375 14.8555 86.8164 14.9844 86.6914 15.0703H84.418V20.8828C84.418 21.5 84.5195 21.9531 84.7227 22.2422C84.9258 22.5234 85.2461 22.6641 85.6836 22.6641C85.9258 22.6641 86.168 22.5938 86.4102 22.4531C86.6602 22.3125 86.832 22.1953 86.9258 22.1016C87.0352 22.2109 87.0898 22.3203 87.0898 22.4297C87.0898 22.4844 87.0664 22.5664 87.0195 22.6758C86.9727 22.7773 86.9336 22.8438 86.9023 22.875C86.7773 23.0156 86.6211 23.168 86.4336 23.332C86.2461 23.4883 85.9531 23.668 85.5547 23.8711C85.1641 24.0664 84.7852 24.1641 84.418 24.1641C84.1133 24.1641 83.8203 24.1289 83.5391 24.0586C83.2656 23.9961 82.9922 23.8828 82.7188 23.7188C82.4531 23.5469 82.2227 23.3359 82.0273 23.0859C81.832 22.8281 81.6719 22.5 81.5469 22.1016C81.4297 21.7031 81.3711 21.25 81.3711 20.7422V15.0703H79.707C79.6289 15.0391 79.5898 14.9375 79.5898 14.7656C79.793 14.4844 80.043 14.2188 80.3398 13.9688H81.3711V12.7266C81.7227 12.4297 82.2148 11.9492 82.8477 11.2852C83.4805 10.6133 83.8086 10.2656 83.832 10.2422C83.9648 10.1641 84.0898 10.1289 84.207 10.1367C84.332 10.1367 84.4023 10.1719 84.418 10.2422V13.9688ZM92.8906 16.7578V20.6016C92.8906 21.7578 92.9531 22.4922 93.0781 22.8047C93.1641 23.0234 93.6094 23.1641 94.4141 23.2266C94.4688 23.3125 94.4922 23.4609 94.4844 23.6719C94.4844 23.8828 94.4609 24.0234 94.4141 24.0938C93.3438 23.9844 92.3281 23.9297 91.3672 23.9297C90.2969 23.9297 89.2266 23.9844 88.1562 24.0938C88.1094 24.0234 88.082 23.8828 88.0742 23.6719C88.0742 23.4609 88.1016 23.3125 88.1562 23.2266C89.0781 23.1562 89.5781 23.0156 89.6562 22.8047C89.7812 22.4922 89.8438 21.7578 89.8438 20.6016V17.9062C89.8438 16.8906 89.7734 16.25 89.6328 15.9844C89.5547 15.8359 89.332 15.7227 88.9648 15.6445C88.6055 15.5586 88.3359 15.5156 88.1562 15.5156C88.1172 15.4922 88.0977 15.3672 88.0977 15.1406C88.0977 14.9062 88.125 14.7891 88.1797 14.7891C88.9922 14.7266 89.8242 14.5703 90.6758 14.3203C91.5352 14.0703 92.2266 13.8125 92.75 13.5469C92.8281 13.5703 92.9141 13.6328 93.0078 13.7344C93.1016 13.8359 93.1484 13.9062 93.1484 13.9453C93.1172 14.0391 93.0742 14.2461 93.0195 14.5664C92.9648 14.8789 92.9297 15.1172 92.9141 15.2812C92.8984 15.625 92.8906 16.1172 92.8906 16.7578ZM89.9375 10.7578C89.6094 10.4297 89.4453 10.0312 89.4453 9.5625C89.4453 9.09375 89.6094 8.69531 89.9375 8.36719C90.2656 8.03906 90.6641 7.875 91.1328 7.875C91.6016 7.875 92.0039 8.03906 92.3398 8.36719C92.6758 8.69531 92.8438 9.09375 92.8438 9.5625C92.8438 10.0312 92.6758 10.4297 92.3398 10.7578C92.0039 11.0859 91.6016 11.25 91.1328 11.25C90.6641 11.25 90.2656 11.0859 89.9375 10.7578ZM100.707 14.4844C100.301 14.4844 99.9648 14.6055 99.6992 14.8477C99.4336 15.082 99.2422 15.418 99.125 15.8555C99.0078 16.2852 98.9297 16.6953 98.8906 17.0859C98.8516 17.4766 98.832 17.9297 98.832 18.4453C98.832 19.1875 98.9102 19.9062 99.0664 20.6016C99.2227 21.2891 99.4883 21.8906 99.8633 22.4062C100.246 22.9219 100.707 23.1797 101.246 23.1797C101.574 23.1797 101.859 23.0977 102.102 22.9336C102.344 22.7617 102.527 22.5508 102.652 22.3008C102.785 22.0508 102.891 21.7383 102.969 21.3633C103.047 20.9883 103.094 20.6445 103.109 20.332C103.133 20.0195 103.145 19.6641 103.145 19.2656C103.145 18.5156 103.062 17.793 102.898 17.0977C102.742 16.3945 102.473 15.7852 102.09 15.2695C101.707 14.7461 101.246 14.4844 100.707 14.4844ZM100.965 13.5234C102.574 13.5234 103.895 14.0156 104.926 15C105.957 15.9844 106.473 17.2266 106.473 18.7266C106.473 19.7031 106.234 20.6094 105.758 21.4453C105.281 22.2734 104.621 22.9336 103.777 23.4258C102.941 23.918 102.02 24.1641 101.012 24.1641C99.4023 24.1641 98.082 23.6641 97.0508 22.6641C96.0195 21.6562 95.5039 20.4062 95.5039 18.9141C95.5039 17.4297 96.0312 16.1602 97.0859 15.1055C98.1484 14.0508 99.4414 13.5234 100.965 13.5234ZM116.141 13.5469C116.672 13.5469 117.125 13.625 117.5 13.7812C117.875 13.9297 118.18 14.1445 118.414 14.4258C118.656 14.6992 118.844 15.0703 118.977 15.5391C119.109 16.0078 119.199 16.5195 119.246 17.0742C119.301 17.6211 119.328 18.2891 119.328 19.0781V20.6016C119.328 21.7578 119.391 22.4922 119.516 22.8047C119.594 23.0156 120.094 23.1562 121.016 23.2266C121.07 23.3125 121.094 23.4609 121.086 23.6719C121.086 23.8828 121.062 24.0234 121.016 24.0938C119.945 23.9844 118.875 23.9297 117.805 23.9297C116.922 23.9297 115.945 23.9844 114.875 24.0938C114.828 24.0234 114.801 23.8828 114.793 23.6719C114.793 23.4609 114.82 23.3125 114.875 23.2266C115.602 23.1719 116.008 23.0312 116.094 22.8047C116.219 22.4922 116.281 21.7578 116.281 20.6016V18.75C116.281 16.5469 115.758 15.4453 114.711 15.4453C114.266 15.4453 113.809 15.6016 113.34 15.9141C112.879 16.2266 112.648 16.5078 112.648 16.7578V20.6016C112.648 21.7578 112.711 22.4922 112.836 22.8047C112.922 23.0234 113.367 23.1641 114.172 23.2266C114.227 23.3125 114.25 23.4609 114.242 23.6719C114.242 23.8828 114.219 24.0234 114.172 24.0938C113.102 23.9844 112.086 23.9297 111.125 23.9297C110.055 23.9297 108.984 23.9844 107.914 24.0938C107.867 24.0234 107.84 23.8828 107.832 23.6719C107.832 23.4609 107.859 23.3125 107.914 23.2266C108.836 23.1562 109.336 23.0156 109.414 22.8047C109.539 22.4922 109.602 21.7578 109.602 20.6016V17.9062C109.602 16.8906 109.531 16.25 109.391 15.9844C109.312 15.8359 109.09 15.7227 108.723 15.6445C108.363 15.5586 108.094 15.5156 107.914 15.5156C107.875 15.4922 107.855 15.3672 107.855 15.1406C107.855 14.9062 107.883 14.7891 107.938 14.7891C108.75 14.7266 109.582 14.5703 110.434 14.3203C111.293 14.0703 111.984 13.8125 112.508 13.5469C112.578 13.5469 112.66 13.5977 112.754 13.6992C112.855 13.8008 112.906 13.8828 112.906 13.9453C112.891 14 112.863 14.1367 112.824 14.3555C112.785 14.5742 112.75 14.7812 112.719 14.9766C112.688 15.1719 112.672 15.2734 112.672 15.2812C112.672 15.3594 112.68 15.4062 112.695 15.4219C112.727 15.4219 112.781 15.3828 112.859 15.3047C113.227 14.8906 113.738 14.4961 114.395 14.1211C115.059 13.7383 115.641 13.5469 116.141 13.5469ZM122.176 22.4531C122.176 21.9844 122.348 21.582 122.691 21.2461C123.035 20.9102 123.449 20.7422 123.934 20.7422C124.418 20.7422 124.832 20.9219 125.176 21.2812C125.52 21.6328 125.691 22.0469 125.691 22.5234C125.691 22.9922 125.52 23.3984 125.176 23.7422C124.84 24.0859 124.434 24.2578 123.957 24.2578C123.465 24.2578 123.043 24.082 122.691 23.7305C122.348 23.3789 122.176 22.9531 122.176 22.4531ZM132.102 16.7578V20.6016C132.102 21.7578 132.164 22.4922 132.289 22.8047C132.375 23.0234 132.82 23.1641 133.625 23.2266C133.68 23.3125 133.703 23.4609 133.695 23.6719C133.695 23.8828 133.672 24.0234 133.625 24.0938C132.555 23.9844 131.539 23.9297 130.578 23.9297C129.508 23.9297 128.438 23.9844 127.367 24.0938C127.32 24.0234 127.293 23.8828 127.285 23.6719C127.285 23.4609 127.312 23.3125 127.367 23.2266C128.289 23.1562 128.789 23.0156 128.867 22.8047C128.992 22.4922 129.055 21.7578 129.055 20.6016V17.9062C129.055 16.8906 128.984 16.25 128.844 15.9844C128.766 15.8359 128.543 15.7227 128.176 15.6445C127.816 15.5586 127.547 15.5156 127.367 15.5156C127.328 15.4922 127.309 15.3672 127.309 15.1406C127.309 14.9062 127.336 14.7891 127.391 14.7891C128.203 14.7266 129.035 14.5703 129.887 14.3203C130.746 14.0703 131.438 13.8125 131.961 13.5469C132.039 13.5703 132.125 13.6328 132.219 13.7344C132.312 13.8359 132.359 13.9062 132.359 13.9453C132.328 14.0391 132.285 14.2461 132.23 14.5664C132.176 14.8789 132.141 15.1172 132.125 15.2812C132.109 15.625 132.102 16.1172 132.102 16.7578ZM129.148 10.7578C128.82 10.4297 128.656 10.0312 128.656 9.5625C128.656 9.09375 128.82 8.69531 129.148 8.36719C129.477 8.03906 129.875 7.875 130.344 7.875C130.812 7.875 131.215 8.03906 131.551 8.36719C131.887 8.69531 132.055 9.09375 132.055 9.5625C132.055 10.0312 131.887 10.4297 131.551 10.7578C131.215 11.0859 130.812 11.25 130.344 11.25C129.875 11.25 129.477 11.0859 129.148 10.7578ZM139.309 13.5C139.637 13.5 139.941 13.5234 140.223 13.5703C140.512 13.6094 140.848 13.6797 141.23 13.7812C141.613 13.875 141.848 13.9297 141.934 13.9453C142.035 14.375 142.141 14.918 142.25 15.5742C142.367 16.2227 142.426 16.6406 142.426 16.8281C142.426 16.875 142.379 16.9141 142.285 16.9453C142.191 16.9766 142.098 16.9922 142.004 16.9922C141.895 16.9922 141.746 16.9297 141.559 16.8047C141.207 15.2266 140.379 14.4375 139.074 14.4375C138.676 14.4375 138.352 14.5469 138.102 14.7656C137.859 14.9844 137.738 15.2969 137.738 15.7031C137.738 15.8984 137.773 16.082 137.844 16.2539C137.922 16.418 138.012 16.5586 138.113 16.6758C138.223 16.7852 138.367 16.8984 138.547 17.0156C138.734 17.1328 138.898 17.2266 139.039 17.2969C139.18 17.3594 139.367 17.4414 139.602 17.543C139.836 17.6445 140.012 17.7266 140.129 17.7891C140.879 18.1641 141.383 18.457 141.641 18.668C142.32 19.2148 142.66 19.9766 142.66 20.9531C142.66 21.5156 142.535 22.0117 142.285 22.4414C142.035 22.8711 141.691 23.2109 141.254 23.4609C140.824 23.7031 140.34 23.8828 139.801 24C139.262 24.125 138.676 24.1875 138.043 24.1875C137.801 24.1875 137.531 24.1641 137.234 24.1172C136.938 24.0781 136.699 24.0391 136.52 24C136.348 23.9609 136.109 23.9023 135.805 23.8242C135.5 23.7461 135.332 23.7031 135.301 23.6953C135.262 23.4609 135.219 22.9492 135.172 22.1602C135.133 21.3633 135.113 20.8594 135.113 20.6484C135.113 20.5391 135.23 20.4844 135.465 20.4844C135.559 20.4844 135.66 20.5078 135.77 20.5547C135.879 20.6016 135.949 20.6562 135.98 20.7188C136.059 21.2031 136.188 21.6211 136.367 21.9727C136.555 22.3164 136.773 22.5781 137.023 22.7578C137.273 22.9297 137.52 23.0547 137.762 23.1328C138.004 23.2109 138.254 23.25 138.512 23.25C138.91 23.25 139.23 23.125 139.473 22.875C139.723 22.625 139.848 22.3281 139.848 21.9844C139.848 21.7578 139.801 21.5586 139.707 21.3867C139.621 21.207 139.484 21.0508 139.297 20.918C139.117 20.7773 138.941 20.6602 138.77 20.5664C138.605 20.4727 138.379 20.3594 138.09 20.2266C137.809 20.0938 137.59 19.9844 137.434 19.8984C137.043 19.6875 136.715 19.4883 136.449 19.3008C136.191 19.1133 135.938 18.8945 135.688 18.6445C135.445 18.3867 135.262 18.1016 135.137 17.7891C135.012 17.4688 134.949 17.1172 134.949 16.7344C134.949 16.1797 135.086 15.6875 135.359 15.2578C135.641 14.8203 136 14.4805 136.438 14.2383C136.883 13.9883 137.348 13.8047 137.832 13.6875C138.324 13.5625 138.816 13.5 139.309 13.5ZM148.496 13.9688C148.496 13.9688 149.387 13.9688 151.168 13.9688C151.262 13.9688 151.309 14.0703 151.309 14.2734C151.309 14.375 151.25 14.5117 151.133 14.6836C151.016 14.8555 150.895 14.9844 150.77 15.0703H148.496V20.8828C148.496 21.5 148.598 21.9531 148.801 22.2422C149.004 22.5234 149.324 22.6641 149.762 22.6641C150.004 22.6641 150.246 22.5938 150.488 22.4531C150.738 22.3125 150.91 22.1953 151.004 22.1016C151.113 22.2109 151.168 22.3203 151.168 22.4297C151.168 22.4844 151.145 22.5664 151.098 22.6758C151.051 22.7773 151.012 22.8438 150.98 22.875C150.855 23.0156 150.699 23.168 150.512 23.332C150.324 23.4883 150.031 23.668 149.633 23.8711C149.242 24.0664 148.863 24.1641 148.496 24.1641C148.191 24.1641 147.898 24.1289 147.617 24.0586C147.344 23.9961 147.07 23.8828 146.797 23.7188C146.531 23.5469 146.301 23.3359 146.105 23.0859C145.91 22.8281 145.75 22.5 145.625 22.1016C145.508 21.7031 145.449 21.25 145.449 20.7422V15.0703H143.785C143.707 15.0391 143.668 14.9375 143.668 14.7656C143.871 14.4844 144.121 14.2188 144.418 13.9688H145.449V12.7266C145.801 12.4297 146.293 11.9492 146.926 11.2852C147.559 10.6133 147.887 10.2656 147.91 10.2422C148.043 10.1641 148.168 10.1289 148.285 10.1367C148.41 10.1367 148.48 10.1719 148.496 10.2422V13.9688Z" fill="black"/>
</svg>
