<svg width="329" height="85" viewBox="0 0 329 85" fill="none" xmlns="http://www.w3.org/2000/svg">
<path d="M79.6406 40.7812C79.8438 40.7969 80.7578 40.7578 82.3828 40.6641C84.0234 40.5703 85.125 40.4844 85.6875 40.4062C86.0938 40.375 86.2969 40.125 86.2969 39.6562C86.2969 38.4062 86.0625 37.3125 85.5938 36.375C85.125 35.4375 84.4062 34.9688 83.4375 34.9688C82.7969 34.9688 82.2109 35.1953 81.6797 35.6484C81.1641 36.0859 80.7656 36.6328 80.4844 37.2891C80.2031 37.9453 79.9922 38.5781 79.8516 39.1875C79.7109 39.7969 79.6406 40.3281 79.6406 40.7812ZM79.5938 42.6562C79.5938 43.9062 79.7578 45.0156 80.0859 45.9844C80.4141 46.9531 80.8125 47.7109 81.2812 48.2578C81.7656 48.8047 82.3203 49.2578 82.9453 49.6172C83.5703 49.9609 84.1406 50.1953 84.6562 50.3203C85.1719 50.4297 85.6719 50.4844 86.1562 50.4844C88.2344 50.4844 89.9844 49.7031 91.4062 48.1406C91.5625 48.1875 91.6953 48.3047 91.8047 48.4922C91.9141 48.6641 91.9688 48.8281 91.9688 48.9844C91.9688 49.4375 91.9219 49.7344 91.8281 49.875C91.5781 50.2656 91.2188 50.6953 90.75 51.1641C90.2812 51.6172 89.6875 52.1016 88.9688 52.6172C88.25 53.1328 87.3906 53.5625 86.3906 53.9062C85.4062 54.25 84.3906 54.4219 83.3438 54.4219C81.5781 54.4219 79.9531 54.0391 78.4688 53.2734C76.9844 52.5078 75.7812 51.375 74.8594 49.875C73.9531 48.3594 73.5 46.6094 73.5 44.625C73.5 42.6875 73.9844 40.8281 74.9531 39.0469C75.9375 37.25 77.2344 35.8047 78.8438 34.7109C80.4688 33.6016 82.1562 33.0469 83.9062 33.0469C85.0781 33.0469 86.1406 33.2109 87.0938 33.5391C88.0625 33.8516 88.8438 34.2578 89.4375 34.7578C90.0469 35.2578 90.5547 35.8281 90.9609 36.4688C91.3828 37.1094 91.6797 37.7344 91.8516 38.3438C92.0234 38.9531 92.1094 39.5469 92.1094 40.125C92.1094 40.6406 91.9844 41.0938 91.7344 41.4844C91.4844 41.875 91.1875 42.0781 90.8438 42.0938C88.0312 42.3438 84.2812 42.5312 79.5938 42.6562ZM108.82 33C110.648 33 112.273 33.4766 113.695 34.4297C115.117 35.3828 116.188 36.6172 116.906 38.1328C117.641 39.6484 118.008 41.2812 118.008 43.0312C118.008 44.75 117.648 46.3438 116.93 47.8125C116.227 49.2812 115.312 50.4844 114.188 51.4219C113.062 52.3438 111.828 53.0703 110.484 53.6016C109.156 54.1172 107.836 54.375 106.523 54.375C106.133 54.375 105.727 54.3359 105.305 54.2578C104.883 54.1953 104.531 54.125 104.25 54.0469C103.984 53.9844 103.836 53.9531 103.805 53.9531C103.711 53.9531 103.664 54.2031 103.664 54.7031V57.2344C103.664 59.5469 103.789 61.0156 104.039 61.6406C104.195 62.0625 105.195 62.3438 107.039 62.4844C107.148 62.6562 107.195 62.9531 107.18 63.375C107.18 63.7969 107.133 64.0781 107.039 64.2188C104.898 64 102.758 63.8906 100.617 63.8906C98.4766 63.8906 96.3359 64 94.1953 64.2188C94.1016 64.0781 94.0469 63.7969 94.0312 63.375C94.0312 62.9531 94.0859 62.6562 94.1953 62.4844C96.0391 62.3438 97.0391 62.0625 97.1953 61.6406C97.4453 61.0156 97.5703 59.5469 97.5703 57.2344V41.8125C97.5703 39.7812 97.4297 38.5 97.1484 37.9688C96.9922 37.6719 96.5469 37.4453 95.8125 37.2891C95.0938 37.1172 94.5547 37.0312 94.1953 37.0312C94.1172 36.9844 94.0781 36.7344 94.0781 36.2812C94.0781 35.8125 94.1328 35.5781 94.2422 35.5781C95.8672 35.4531 97.5312 35.1406 99.2344 34.6406C100.953 34.1406 102.336 33.625 103.383 33.0938C103.539 33.1406 103.711 33.2656 103.898 33.4688C104.086 33.6719 104.18 33.8125 104.18 33.8906C104.18 33.9062 104.133 34.0234 104.039 34.2422C103.945 34.4453 103.875 34.6484 103.828 34.8516C103.781 35.0547 103.758 35.2656 103.758 35.4844C103.758 35.7031 103.797 35.8125 103.875 35.8125C103.891 35.8125 103.914 35.7969 103.945 35.7656C104.68 34.9844 105.5 34.3281 106.406 33.7969C107.312 33.2656 108.117 33 108.82 33ZM106.242 36.4219C105.711 36.4219 105.234 36.5234 104.812 36.7266C104.391 36.9141 104.094 37.1016 103.922 37.2891C103.75 37.4766 103.664 37.625 103.664 37.7344V49.5C103.664 50.3906 103.977 51.0859 104.602 51.5859C105.227 52.0703 105.977 52.3125 106.852 52.3125C107.273 52.3125 107.719 52.1641 108.188 51.8672C108.672 51.5703 109.148 51.1328 109.617 50.5547C110.086 49.9766 110.477 49.1719 110.789 48.1406C111.102 47.1094 111.258 45.9531 111.258 44.6719C111.258 39.1719 109.586 36.4219 106.242 36.4219ZM136.148 41.8125C136.148 39.7812 136.008 38.5 135.727 37.9688C135.57 37.6719 135.125 37.4453 134.391 37.2891C133.672 37.1172 133.133 37.0312 132.773 37.0312C132.695 36.9844 132.656 36.7344 132.656 36.2812C132.656 35.8125 132.711 35.5781 132.82 35.5781C134.445 35.4531 136.109 35.1406 137.812 34.6406C139.531 34.1406 140.914 33.625 141.961 33.0938C142.117 33.1406 142.289 33.2656 142.477 33.4688C142.664 33.6719 142.758 33.8125 142.758 33.8906C142.695 34.0781 142.609 34.4922 142.5 35.1328C142.391 35.7578 142.32 36.2344 142.289 36.5625C142.258 37.25 142.242 38.2344 142.242 39.5156V48.9375C142.242 49.8125 142.383 50.4062 142.664 50.7188C142.945 51.0312 143.648 51.1875 144.773 51.1875C144.867 51.2812 144.914 51.4844 144.914 51.7969C144.914 52.1094 144.82 52.4062 144.633 52.6875C143.836 52.7656 142.805 52.9453 141.539 53.2266C140.273 53.4922 139.164 53.7422 138.211 53.9766C137.273 54.2109 136.727 54.3281 136.57 54.3281C136.461 54.3281 136.359 54.2188 136.266 54C136.188 53.7969 136.148 53.5312 136.148 53.2031V52.4531C136.148 52.2344 136.102 52.1562 136.008 52.2188C135.633 52.4688 135.188 52.7266 134.672 52.9922C134.172 53.2578 133.414 53.5312 132.398 53.8125C131.398 54.0938 130.398 54.2344 129.398 54.2344C128.305 54.2344 127.352 54.0078 126.539 53.5547C125.742 53.1016 125.117 52.4766 124.664 51.6797C124.227 50.8672 123.906 49.9844 123.703 49.0312C123.5 48.0625 123.398 47 123.398 45.8438V41.8125C123.398 39.7812 123.258 38.5 122.977 37.9688C122.82 37.6719 122.375 37.4453 121.641 37.2891C120.922 37.1172 120.383 37.0312 120.023 37.0312C119.945 36.9844 119.906 36.7344 119.906 36.2812C119.906 35.8125 119.961 35.5781 120.07 35.5781C121.695 35.4531 123.359 35.1406 125.062 34.6406C126.781 34.1406 128.164 33.625 129.211 33.0938C129.367 33.1406 129.539 33.2656 129.727 33.4688C129.914 33.6719 130.008 33.8125 130.008 33.8906C129.945 34.0781 129.859 34.4922 129.75 35.1328C129.641 35.7578 129.57 36.2344 129.539 36.5625C129.508 37.25 129.492 38.2344 129.492 39.5156V43.7344C129.492 46.375 129.75 48.3125 130.266 49.5469C130.797 50.7656 131.758 51.375 133.148 51.375C133.789 51.375 134.445 51.1797 135.117 50.7891C135.805 50.3828 136.148 50 136.148 49.6406V41.8125ZM155.953 33.9375C155.953 33.9375 157.734 33.9375 161.297 33.9375C161.484 33.9375 161.578 34.1406 161.578 34.5469C161.578 34.75 161.461 35.0234 161.227 35.3672C160.992 35.7109 160.75 35.9688 160.5 36.1406H155.953V47.7656C155.953 49 156.156 49.9062 156.562 50.4844C156.969 51.0469 157.609 51.3281 158.484 51.3281C158.969 51.3281 159.453 51.1875 159.938 50.9062C160.438 50.625 160.781 50.3906 160.969 50.2031C161.188 50.4219 161.297 50.6406 161.297 50.8594C161.297 50.9688 161.25 51.1328 161.156 51.3516C161.062 51.5547 160.984 51.6875 160.922 51.75C160.672 52.0312 160.359 52.3359 159.984 52.6641C159.609 52.9766 159.023 53.3359 158.227 53.7422C157.445 54.1328 156.688 54.3281 155.953 54.3281C155.344 54.3281 154.758 54.2578 154.195 54.1172C153.648 53.9922 153.102 53.7656 152.555 53.4375C152.023 53.0938 151.562 52.6719 151.172 52.1719C150.781 51.6562 150.461 51 150.211 50.2031C149.977 49.4062 149.859 48.5 149.859 47.4844V36.1406H146.531C146.375 36.0781 146.297 35.875 146.297 35.5312C146.703 34.9688 147.203 34.4375 147.797 33.9375H149.859V31.4531C150.562 30.8594 151.547 29.8984 152.812 28.5703C154.078 27.2266 154.734 26.5312 154.781 26.4844C155.047 26.3281 155.297 26.2578 155.531 26.2734C155.781 26.2734 155.922 26.3438 155.953 26.4844V33.9375ZM172.688 51.0938C173.219 51.0938 173.672 50.9766 174.047 50.7422C174.422 50.4922 174.609 50.2812 174.609 50.1094V43.5469C174.516 43.5938 174.07 43.7969 173.273 44.1562C172.477 44.5156 171.891 44.8125 171.516 45.0469C170.328 45.8125 169.766 46.8594 169.828 48.1875C169.844 49.1094 170.148 49.8281 170.742 50.3438C171.336 50.8438 171.984 51.0938 172.688 51.0938ZM173.672 32.9531C175.641 32.9531 177.305 33.6328 178.664 34.9922C180.023 36.3359 180.703 38.0469 180.703 40.125V48.8906C180.703 49.5 180.805 49.9766 181.008 50.3203C181.227 50.6484 181.5 50.8125 181.828 50.8125C181.984 50.8125 182.141 50.7891 182.297 50.7422C182.453 50.6953 182.578 50.6562 182.672 50.625C182.766 50.5625 182.875 50.5 183 50.4375L183.188 50.3438C183.406 50.4531 183.516 50.7188 183.516 51.1406C183.516 51.4062 183.453 51.6406 183.328 51.8438C183 52.1406 182.625 52.4531 182.203 52.7812C181.797 53.0938 181.227 53.4219 180.492 53.7656C179.758 54.1094 179.094 54.2812 178.5 54.2812C177.75 54.2812 177.023 54.0391 176.32 53.5547C175.617 53.0703 175.156 52.5312 174.938 51.9375C174.547 52.2812 173.75 52.7734 172.547 53.4141C171.344 54.0547 170.375 54.375 169.641 54.375C167.922 54.375 166.469 53.7891 165.281 52.6172C164.094 51.4297 163.5 50.1094 163.5 48.6562C163.5 47.7812 163.742 46.9922 164.227 46.2891C164.727 45.5703 165.297 45.1094 165.938 44.9062C166.453 44.7344 167.242 44.4531 168.305 44.0625C169.367 43.6562 170.539 43.2031 171.82 42.7031C173.117 42.2031 174.047 41.8438 174.609 41.625V40.6406V39.4219C174.609 38.2031 174.344 37.1172 173.812 36.1641C173.297 35.2109 172.641 34.7344 171.844 34.7344C171.5 34.7344 171.188 34.8125 170.906 34.9688C170.641 35.1094 170.422 35.2891 170.25 35.5078C170.078 35.7109 169.914 36.0078 169.758 36.3984C169.617 36.7891 169.5 37.1406 169.406 37.4531C169.328 37.75 169.234 38.1562 169.125 38.6719C168.828 40.0469 167.953 40.7344 166.5 40.7344C165.844 40.7344 165.273 40.5234 164.789 40.1016C164.305 39.6641 164.062 39.125 164.062 38.4844C164.062 37.9688 164.281 37.3281 164.719 36.5625C165.312 35.9688 166.508 35.2188 168.305 34.3125C170.117 33.4062 171.906 32.9531 173.672 32.9531ZM194.109 33.9375C194.109 33.9375 195.891 33.9375 199.453 33.9375C199.641 33.9375 199.734 34.1406 199.734 34.5469C199.734 34.75 199.617 35.0234 199.383 35.3672C199.148 35.7109 198.906 35.9688 198.656 36.1406H194.109V47.7656C194.109 49 194.312 49.9062 194.719 50.4844C195.125 51.0469 195.766 51.3281 196.641 51.3281C197.125 51.3281 197.609 51.1875 198.094 50.9062C198.594 50.625 198.938 50.3906 199.125 50.2031C199.344 50.4219 199.453 50.6406 199.453 50.8594C199.453 50.9688 199.406 51.1328 199.312 51.3516C199.219 51.5547 199.141 51.6875 199.078 51.75C198.828 52.0312 198.516 52.3359 198.141 52.6641C197.766 52.9766 197.18 53.3359 196.383 53.7422C195.602 54.1328 194.844 54.3281 194.109 54.3281C193.5 54.3281 192.914 54.2578 192.352 54.1172C191.805 53.9922 191.258 53.7656 190.711 53.4375C190.18 53.0938 189.719 52.6719 189.328 52.1719C188.938 51.6562 188.617 51 188.367 50.2031C188.133 49.4062 188.016 48.5 188.016 47.4844V36.1406H184.688C184.531 36.0781 184.453 35.875 184.453 35.5312C184.859 34.9688 185.359 34.4375 185.953 33.9375H188.016V31.4531C188.719 30.8594 189.703 29.8984 190.969 28.5703C192.234 27.2266 192.891 26.5312 192.938 26.4844C193.203 26.3281 193.453 26.2578 193.688 26.2734C193.938 26.2734 194.078 26.3438 194.109 26.4844V33.9375ZM211.055 39.5156V47.2031C211.055 49.5156 211.18 50.9844 211.43 51.6094C211.602 52.0469 212.492 52.3281 214.102 52.4531C214.211 52.625 214.258 52.9219 214.242 53.3438C214.242 53.7656 214.195 54.0469 214.102 54.1875C211.961 53.9688 209.93 53.8594 208.008 53.8594C205.867 53.8594 203.727 53.9688 201.586 54.1875C201.492 54.0469 201.438 53.7656 201.422 53.3438C201.422 52.9219 201.477 52.625 201.586 52.4531C203.43 52.3125 204.43 52.0312 204.586 51.6094C204.836 50.9844 204.961 49.5156 204.961 47.2031V41.8125C204.961 39.7812 204.82 38.5 204.539 37.9688C204.383 37.6719 203.938 37.4453 203.203 37.2891C202.484 37.1172 201.945 37.0312 201.586 37.0312C201.508 36.9844 201.469 36.7344 201.469 36.2812C201.469 35.8125 201.523 35.5781 201.633 35.5781C203.258 35.4531 204.922 35.1406 206.625 34.6406C208.344 34.1406 209.727 33.625 210.773 33.0938C210.93 33.1406 211.102 33.2656 211.289 33.4688C211.477 33.6719 211.57 33.8125 211.57 33.8906C211.508 34.0781 211.422 34.4922 211.312 35.1328C211.203 35.7578 211.133 36.2344 211.102 36.5625C211.07 37.25 211.055 38.2344 211.055 39.5156ZM205.148 27.5156C204.492 26.8594 204.164 26.0625 204.164 25.125C204.164 24.1875 204.492 23.3906 205.148 22.7344C205.805 22.0781 206.602 21.75 207.539 21.75C208.477 21.75 209.281 22.0781 209.953 22.7344C210.625 23.3906 210.961 24.1875 210.961 25.125C210.961 26.0625 210.625 26.8594 209.953 27.5156C209.281 28.1719 208.477 28.5 207.539 28.5C206.602 28.5 205.805 28.1719 205.148 27.5156ZM226.688 34.9688C225.875 34.9688 225.203 35.2109 224.672 35.6953C224.141 36.1641 223.758 36.8359 223.523 37.7109C223.289 38.5703 223.133 39.3906 223.055 40.1719C222.977 40.9531 222.938 41.8594 222.938 42.8906C222.938 44.375 223.094 45.8125 223.406 47.2031C223.719 48.5781 224.25 49.7812 225 50.8125C225.766 51.8438 226.688 52.3594 227.766 52.3594C228.422 52.3594 228.992 52.1953 229.477 51.8672C229.961 51.5234 230.328 51.1016 230.578 50.6016C230.844 50.1016 231.055 49.4766 231.211 48.7266C231.367 47.9766 231.461 47.2891 231.492 46.6641C231.539 46.0391 231.562 45.3281 231.562 44.5312C231.562 43.0312 231.398 41.5859 231.07 40.1953C230.758 38.7891 230.219 37.5703 229.453 36.5391C228.688 35.4922 227.766 34.9688 226.688 34.9688ZM227.203 33.0469C230.422 33.0469 233.062 34.0312 235.125 36C237.188 37.9688 238.219 40.4531 238.219 43.4531C238.219 45.4062 237.742 47.2188 236.789 48.8906C235.836 50.5469 234.516 51.8672 232.828 52.8516C231.156 53.8359 229.312 54.3281 227.297 54.3281C224.078 54.3281 221.438 53.3281 219.375 51.3281C217.312 49.3125 216.281 46.8125 216.281 43.8281C216.281 40.8594 217.336 38.3203 219.445 36.2109C221.57 34.1016 224.156 33.0469 227.203 33.0469ZM257.555 33.0938C258.617 33.0938 259.523 33.25 260.273 33.5625C261.023 33.8594 261.633 34.2891 262.102 34.8516C262.586 35.3984 262.961 36.1406 263.227 37.0781C263.492 38.0156 263.672 39.0391 263.766 40.1484C263.875 41.2422 263.93 42.5781 263.93 44.1562V47.2031C263.93 49.5156 264.055 50.9844 264.305 51.6094C264.461 52.0312 265.461 52.3125 267.305 52.4531C267.414 52.625 267.461 52.9219 267.445 53.3438C267.445 53.7656 267.398 54.0469 267.305 54.1875C265.164 53.9688 263.023 53.8594 260.883 53.8594C259.117 53.8594 257.164 53.9688 255.023 54.1875C254.93 54.0469 254.875 53.7656 254.859 53.3438C254.859 52.9219 254.914 52.625 255.023 52.4531C256.477 52.3438 257.289 52.0625 257.461 51.6094C257.711 50.9844 257.836 49.5156 257.836 47.2031V43.5C257.836 39.0938 256.789 36.8906 254.695 36.8906C253.805 36.8906 252.891 37.2031 251.953 37.8281C251.031 38.4531 250.57 39.0156 250.57 39.5156V47.2031C250.57 49.5156 250.695 50.9844 250.945 51.6094C251.117 52.0469 252.008 52.3281 253.617 52.4531C253.727 52.625 253.773 52.9219 253.758 53.3438C253.758 53.7656 253.711 54.0469 253.617 54.1875C251.477 53.9688 249.445 53.8594 247.523 53.8594C245.383 53.8594 243.242 53.9688 241.102 54.1875C241.008 54.0469 240.953 53.7656 240.938 53.3438C240.938 52.9219 240.992 52.625 241.102 52.4531C242.945 52.3125 243.945 52.0312 244.102 51.6094C244.352 50.9844 244.477 49.5156 244.477 47.2031V41.8125C244.477 39.7812 244.336 38.5 244.055 37.9688C243.898 37.6719 243.453 37.4453 242.719 37.2891C242 37.1172 241.461 37.0312 241.102 37.0312C241.023 36.9844 240.984 36.7344 240.984 36.2812C240.984 35.8125 241.039 35.5781 241.148 35.5781C242.773 35.4531 244.438 35.1406 246.141 34.6406C247.859 34.1406 249.242 33.625 250.289 33.0938C250.43 33.0938 250.594 33.1953 250.781 33.3984C250.984 33.6016 251.086 33.7656 251.086 33.8906C251.055 34 251 34.2734 250.922 34.7109C250.844 35.1484 250.773 35.5625 250.711 35.9531C250.648 36.3438 250.617 36.5469 250.617 36.5625C250.617 36.7188 250.633 36.8125 250.664 36.8438C250.727 36.8438 250.836 36.7656 250.992 36.6094C251.727 35.7812 252.75 34.9922 254.062 34.2422C255.391 33.4766 256.555 33.0938 257.555 33.0938ZM269.625 50.9062C269.625 49.9688 269.969 49.1641 270.656 48.4922C271.344 47.8203 272.172 47.4844 273.141 47.4844C274.109 47.4844 274.938 47.8438 275.625 48.5625C276.312 49.2656 276.656 50.0938 276.656 51.0469C276.656 51.9844 276.312 52.7969 275.625 53.4844C274.953 54.1719 274.141 54.5156 273.188 54.5156C272.203 54.5156 271.359 54.1641 270.656 53.4609C269.969 52.7578 269.625 51.9062 269.625 50.9062ZM289.477 39.5156V47.2031C289.477 49.5156 289.602 50.9844 289.852 51.6094C290.023 52.0469 290.914 52.3281 292.523 52.4531C292.633 52.625 292.68 52.9219 292.664 53.3438C292.664 53.7656 292.617 54.0469 292.523 54.1875C290.383 53.9688 288.352 53.8594 286.43 53.8594C284.289 53.8594 282.148 53.9688 280.008 54.1875C279.914 54.0469 279.859 53.7656 279.844 53.3438C279.844 52.9219 279.898 52.625 280.008 52.4531C281.852 52.3125 282.852 52.0312 283.008 51.6094C283.258 50.9844 283.383 49.5156 283.383 47.2031V41.8125C283.383 39.7812 283.242 38.5 282.961 37.9688C282.805 37.6719 282.359 37.4453 281.625 37.2891C280.906 37.1172 280.367 37.0312 280.008 37.0312C279.93 36.9844 279.891 36.7344 279.891 36.2812C279.891 35.8125 279.945 35.5781 280.055 35.5781C281.68 35.4531 283.344 35.1406 285.047 34.6406C286.766 34.1406 288.148 33.625 289.195 33.0938C289.352 33.1406 289.523 33.2656 289.711 33.4688C289.898 33.6719 289.992 33.8125 289.992 33.8906C289.93 34.0781 289.844 34.4922 289.734 35.1328C289.625 35.7578 289.555 36.2344 289.523 36.5625C289.492 37.25 289.477 38.2344 289.477 39.5156ZM283.57 27.5156C282.914 26.8594 282.586 26.0625 282.586 25.125C282.586 24.1875 282.914 23.3906 283.57 22.7344C284.227 22.0781 285.023 21.75 285.961 21.75C286.898 21.75 287.703 22.0781 288.375 22.7344C289.047 23.3906 289.383 24.1875 289.383 25.125C289.383 26.0625 289.047 26.8594 288.375 27.5156C287.703 28.1719 286.898 28.5 285.961 28.5C285.023 28.5 284.227 28.1719 283.57 27.5156ZM303.891 33C304.547 33 305.156 33.0469 305.719 33.1406C306.297 33.2188 306.969 33.3594 307.734 33.5625C308.5 33.75 308.969 33.8594 309.141 33.8906C309.344 34.75 309.555 35.8359 309.773 37.1484C310.008 38.4453 310.125 39.2812 310.125 39.6562C310.125 39.75 310.031 39.8281 309.844 39.8906C309.656 39.9531 309.469 39.9844 309.281 39.9844C309.062 39.9844 308.766 39.8594 308.391 39.6094C307.688 36.4531 306.031 34.875 303.422 34.875C302.625 34.875 301.977 35.0938 301.477 35.5312C300.992 35.9688 300.75 36.5938 300.75 37.4062C300.75 37.7969 300.82 38.1641 300.961 38.5078C301.117 38.8359 301.297 39.1172 301.5 39.3516C301.719 39.5703 302.008 39.7969 302.367 40.0312C302.742 40.2656 303.07 40.4531 303.352 40.5938C303.633 40.7188 304.008 40.8828 304.477 41.0859C304.945 41.2891 305.297 41.4531 305.531 41.5781C307.031 42.3281 308.039 42.9141 308.555 43.3359C309.914 44.4297 310.594 45.9531 310.594 47.9062C310.594 49.0312 310.344 50.0234 309.844 50.8828C309.344 51.7422 308.656 52.4219 307.781 52.9219C306.922 53.4062 305.953 53.7656 304.875 54C303.797 54.25 302.625 54.375 301.359 54.375C300.875 54.375 300.336 54.3281 299.742 54.2344C299.148 54.1562 298.672 54.0781 298.312 54C297.969 53.9219 297.492 53.8047 296.883 53.6484C296.273 53.4922 295.938 53.4062 295.875 53.3906C295.797 52.9219 295.711 51.8984 295.617 50.3203C295.539 48.7266 295.5 47.7188 295.5 47.2969C295.5 47.0781 295.734 46.9688 296.203 46.9688C296.391 46.9688 296.594 47.0156 296.812 47.1094C297.031 47.2031 297.172 47.3125 297.234 47.4375C297.391 48.4062 297.648 49.2422 298.008 49.9453C298.383 50.6328 298.82 51.1562 299.32 51.5156C299.82 51.8594 300.312 52.1094 300.797 52.2656C301.281 52.4219 301.781 52.5 302.297 52.5C303.094 52.5 303.734 52.25 304.219 51.75C304.719 51.25 304.969 50.6562 304.969 49.9688C304.969 49.5156 304.875 49.1172 304.688 48.7734C304.516 48.4141 304.242 48.1016 303.867 47.8359C303.508 47.5547 303.156 47.3203 302.812 47.1328C302.484 46.9453 302.031 46.7188 301.453 46.4531C300.891 46.1875 300.453 45.9688 300.141 45.7969C299.359 45.375 298.703 44.9766 298.172 44.6016C297.656 44.2266 297.148 43.7891 296.648 43.2891C296.164 42.7734 295.797 42.2031 295.547 41.5781C295.297 40.9375 295.172 40.2344 295.172 39.4688C295.172 38.3594 295.445 37.375 295.992 36.5156C296.555 35.6406 297.273 34.9609 298.148 34.4766C299.039 33.9766 299.969 33.6094 300.938 33.375C301.922 33.125 302.906 33 303.891 33ZM322.266 33.9375C322.266 33.9375 324.047 33.9375 327.609 33.9375C327.797 33.9375 327.891 34.1406 327.891 34.5469C327.891 34.75 327.773 35.0234 327.539 35.3672C327.305 35.7109 327.062 35.9688 326.812 36.1406H322.266V47.7656C322.266 49 322.469 49.9062 322.875 50.4844C323.281 51.0469 323.922 51.3281 324.797 51.3281C325.281 51.3281 325.766 51.1875 326.25 50.9062C326.75 50.625 327.094 50.3906 327.281 50.2031C327.5 50.4219 327.609 50.6406 327.609 50.8594C327.609 50.9688 327.562 51.1328 327.469 51.3516C327.375 51.5547 327.297 51.6875 327.234 51.75C326.984 52.0312 326.672 52.3359 326.297 52.6641C325.922 52.9766 325.336 53.3359 324.539 53.7422C323.758 54.1328 323 54.3281 322.266 54.3281C321.656 54.3281 321.07 54.2578 320.508 54.1172C319.961 53.9922 319.414 53.7656 318.867 53.4375C318.336 53.0938 317.875 52.6719 317.484 52.1719C317.094 51.6562 316.773 51 316.523 50.2031C316.289 49.4062 316.172 48.5 316.172 47.4844V36.1406H312.844C312.688 36.0781 312.609 35.875 312.609 35.5312C313.016 34.9688 313.516 34.4375 314.109 33.9375H316.172V31.4531C316.875 30.8594 317.859 29.8984 319.125 28.5703C320.391 27.2266 321.047 26.5312 321.094 26.4844C321.359 26.3281 321.609 26.2578 321.844 26.2734C322.094 26.2734 322.234 26.3438 322.266 26.4844V33.9375Z" fill="black"/>
<path d="M64.9996 37.5254C65.0015 40.2837 64.6473 43.0306 63.9458 45.6981C63.2604 48.3146 62.2566 50.8372 60.957 53.2092C60.23 54.5268 59.4087 55.7903 58.4998 56.9896C58.4643 57.051 58.4383 57.0853 58.43 57.1077L58.4218 57.116C57.7138 58.0495 56.9575 58.9454 56.1559 59.8C55.0191 61.0089 53.7899 62.1275 52.4795 63.1457C52.4795 63.1457 43.0511 69.9161 31.7419 69.9161L29.8859 69.9243L21.9484 69.9763V48.0951H32.5263C33.9192 48.1064 35.2993 47.8272 36.5784 47.2752C37.8394 46.7396 38.9866 45.9682 39.9582 45.0023C40.9273 44.0274 41.697 42.873 42.2241 41.6035C42.7789 40.3163 43.0578 38.927 43.0428 37.5254C43.0475 36.8147 42.9802 36.1054 42.842 35.4084C42.8373 35.4004 42.8346 35.3915 42.8337 35.3824C42.7021 34.7117 42.4977 34.0572 42.2241 33.4308C41.1528 30.8756 39.1225 28.8423 36.5689 27.7674C35.2934 27.2148 33.9163 26.9359 32.5263 26.9487H21.9484C21.9468 21.1282 19.6341 15.5466 15.5184 11.4308C11.4029 7.31505 5.82141 5.00198 0.000976562 5.0001H32.5263C35.4443 4.99289 38.3495 5.3856 41.1609 6.16728C43.8709 6.92335 46.4716 8.02768 48.8976 9.45266C49.7695 9.96655 50.6141 10.5242 51.434 11.1172L51.5025 11.1597C55.1743 13.8246 58.2539 17.2216 60.5471 21.1364C61.9704 23.5666 63.0746 26.17 63.8324 28.8826C64.6135 31.6968 65.0062 34.6047 64.9996 37.5254Z" fill="url(#paint0_linear)"/>
<path d="M61.4796 84.3665H37.9893L34.2869 75.8016L31.7387 69.9125C43.0479 69.9125 52.4764 63.1421 52.4764 63.1421L55.177 69.5215L55.6495 70.6284C55.6495 70.6367 55.659 70.6367 55.659 70.645L61.4796 84.3665Z" fill="url(#paint1_linear)"/>
<path d="M21.9484 26.9486V84.3628H0.000976562V5C5.82141 5.00188 11.4029 7.31495 15.5184 11.4307C19.6341 15.5465 21.9468 21.1281 21.9484 26.9486Z" fill="url(#paint2_linear)"/>
<g style="mix-blend-mode:multiply" opacity="0.16">
<g style="mix-blend-mode:multiply" opacity="0.16">
<path d="M21.9484 26.9486C21.9468 21.1281 19.6341 15.5465 15.5184 11.4307C11.4029 7.31495 5.82141 5.00188 0.000976562 5H19.8751C24.3099 9.14777 28.5711 15.9442 29.6249 26.9486H21.9484Z" fill="black"/>
</g>
</g>
<g style="mix-blend-mode:multiply" opacity="0.16">
<g style="mix-blend-mode:multiply" opacity="0.16">
<path d="M29.8862 48.095V69.9207L21.9486 69.9727V48.095H29.8862Z" fill="black"/>
</g>
</g>
<g style="mix-blend-mode:multiply" opacity="0.16">
<g style="mix-blend-mode:multiply" opacity="0.16">
<path d="M55.1805 69.5203C48.6802 72.927 41.5884 75.059 34.2869 75.8016L31.7387 69.9125C43.0479 69.9125 52.4764 63.1421 52.4764 63.1421L55.1805 69.5203Z" fill="black"/>
</g>
</g>
<g style="mix-blend-mode:multiply" opacity="0.25">
<g style="mix-blend-mode:multiply" opacity="0.25">
<path d="M64.9999 37.5253C65.0018 40.2836 64.6476 43.0305 63.9461 45.698C63.2607 48.3145 62.2569 50.837 60.9573 53.2091C60.2303 54.5267 59.4091 55.7901 58.5001 56.9895C58.6572 56.7367 59.0399 56.1271 59.5538 55.195C60.4929 53.4965 61.2998 51.7283 61.9674 49.906C62.9003 47.3554 63.5408 44.7072 63.8764 42.0121C64.0509 40.5025 64.1322 38.9835 64.1198 37.4639C64.1045 35.8942 63.9765 34.3276 63.737 32.7762C63.5099 31.2246 63.1659 29.6924 62.7081 28.1925C62.2658 26.7382 61.7336 25.3126 61.1144 23.9243C60.5241 22.6242 59.8606 21.3585 59.1274 20.1333C58.4185 18.9744 57.6814 17.9029 56.9572 16.953C55.7796 15.411 54.4832 13.9634 53.08 12.6233C52.0616 11.6381 51.4343 11.1159 51.4343 11.1159L51.5028 11.1584C55.1748 13.8233 58.2543 17.2203 60.5474 21.1351C61.9708 23.5653 63.075 26.1687 63.8327 28.8813C64.614 31.696 65.0067 34.6043 64.9999 37.5253Z" fill="black"/>
</g>
</g>
<g style="mix-blend-mode:multiply" opacity="0.25">
<g style="mix-blend-mode:multiply" opacity="0.25">
<path d="M61.4793 84.3665H43.9574C45.4211 84.1491 46.8765 84.018 48.3402 83.894C49.8039 83.7699 51.2594 83.6849 52.7113 83.6152C54.1632 83.5455 55.6387 83.5112 57.0941 83.484L60.1255 83.458C59.829 82.7268 59.5348 81.9943 59.2548 81.2536C58.7929 80.0959 58.357 78.937 57.9388 77.7603C57.5206 76.5837 57.1118 75.4082 56.7184 74.2162C56.325 73.0242 55.9695 71.8381 55.6552 70.6355L61.4793 84.3665Z" fill="black"/>
</g>
</g>
<g style="mix-blend-mode:screen" opacity="0.7">
<g style="mix-blend-mode:screen" opacity="0.7">
<path d="M0.915337 44.6879C0.907067 47.1688 0.897626 49.6496 0.881087 52.0856C0.864548 54.5216 0.827906 56.9292 0.801916 59.2565C0.741667 63.9087 0.644803 68.2479 0.523123 71.968C0.305752 79.4106 0.000976562 84.3664 0.000976562 84.3664V5C0.000976562 5 0.305752 9.96173 0.523123 17.3984C0.641259 21.1197 0.741667 25.4577 0.801916 30.1111C0.827906 32.4372 0.881087 34.8424 0.881087 37.2819C0.881087 39.7215 0.904705 42.2047 0.915337 44.6879Z" fill="white"/>
</g>
</g>
<g style="mix-blend-mode:multiply" opacity="0.25">
<g style="mix-blend-mode:multiply" opacity="0.25">
<path d="M43.4437 39.2336C43.4107 39.885 43.3057 40.5308 43.1306 41.1592C43.035 41.49 42.9121 41.8562 42.7987 42.1692C42.6667 42.5215 42.5128 42.8652 42.3379 43.1982C41.9766 43.9051 41.532 44.5662 41.0136 45.1675C40.4772 45.7855 39.875 46.3432 39.218 46.8309C38.5461 47.301 37.8281 47.7012 37.075 48.0253C36.3461 48.3341 35.5824 48.5533 34.8008 48.6786C34.075 48.796 33.338 48.8281 32.6047 48.7743C31.9431 48.74 31.3335 48.6786 30.7582 48.6171C28.4841 48.3998 26.9672 48.095 26.9672 48.095H32.5267C33.9197 48.1063 35.2997 47.8272 36.5788 47.2751C37.8398 46.7395 38.987 45.968 39.9587 45.0022C40.9278 44.0273 41.6974 42.8729 42.2245 41.6034C42.7793 40.3162 43.0582 38.9269 43.0432 37.5253C43.0479 36.8146 42.9806 36.1054 42.8424 35.4083C42.9818 35.7263 43.0928 36.056 43.1744 36.3936C43.4034 37.3218 43.4943 38.2788 43.4437 39.2336Z" fill="black"/>
</g>
</g>
<g style="mix-blend-mode:screen" opacity="0.7">
<g style="mix-blend-mode:screen" opacity="0.7">
<path d="M21.9485 26.9484V84.3627C21.9485 84.3627 21.8706 82.9261 21.7831 80.4157C21.6957 77.9053 21.5469 74.3081 21.4524 70.0044C21.3342 65.6995 21.2433 60.6716 21.1818 55.2881C21.1558 52.5958 21.1298 49.816 21.1039 46.9843C21.0779 44.1526 21.0861 41.2866 21.0779 38.4194C21.0696 35.5523 21.0944 32.6685 21.1121 29.8463C21.1039 28.4428 21.1476 27.011 21.1039 25.6902C21.0423 24.376 20.8557 23.0706 20.5463 21.7917C19.9607 19.3523 18.9583 17.0324 17.5834 14.9339C15.2651 11.4185 11.9918 8.63781 8.14787 6.91833C6.78303 6.30582 5.35755 5.83858 3.89495 5.52432C2.94829 5.32053 1.99111 5.16908 1.02778 5.07068C0.356767 5.02697 0 5.00098 0 5.00098C5.82043 5.00286 11.4019 7.31592 15.5174 11.4317C19.6331 15.5475 21.9458 21.1291 21.9473 26.9496L21.9485 26.9484Z" fill="white"/>
</g>
</g>
<defs>
<linearGradient id="paint0_linear" x1="64.0248" y1="37.4881" x2="8.77581" y2="37.4881" gradientUnits="userSpaceOnUse">
<stop stop-color="#00D1B2"/>
<stop offset="1" stop-color="#3273DC"/>
</linearGradient>
<linearGradient id="paint1_linear" x1="43.4269" y1="68.0449" x2="46.3904" y2="84.6549" gradientUnits="userSpaceOnUse">
<stop stop-color="#00D1B2"/>
<stop offset="1" stop-color="#FFDD57"/>
</linearGradient>
<linearGradient id="paint2_linear" x1="10.9747" y1="7.53961" x2="10.9747" y2="84.5216" gradientUnits="userSpaceOnUse">
<stop stop-color="#FFDD57"/>
<stop offset="1" stop-color="#FF3860"/>
</linearGradient>
</defs>
</svg>
