<svg width="366" height="84" viewBox="0 0 366 84" fill="none" xmlns="http://www.w3.org/2000/svg">
<path d="M105.039 33.0469C106.43 33.0469 107.414 33.3125 107.992 33.8438C108.102 34.0156 108.211 34.3281 108.32 34.7812C108.445 35.2344 108.508 35.6875 108.508 36.1406C108.508 37 108.227 37.8359 107.664 38.6484C107.102 39.4453 106.445 39.8438 105.695 39.8438C105.492 39.8438 105.281 39.7969 105.062 39.7031C104.859 39.6094 104.703 39.5312 104.594 39.4688C104.5 39.3906 104.328 39.2422 104.078 39.0234C103.828 38.8047 103.695 38.6875 103.68 38.6719C103.633 38.625 103.539 38.5391 103.398 38.4141C103.258 38.2734 103.148 38.1797 103.07 38.1328C103.008 38.0703 102.914 38 102.789 37.9219C102.664 37.8281 102.539 37.7656 102.414 37.7344C102.289 37.7031 102.148 37.6875 101.992 37.6875C101.133 37.6875 100.391 38.1562 99.7656 39.0938C99.1562 40.0312 98.8516 40.8281 98.8516 41.4844V47.2031C98.8516 49.5156 98.9766 50.9844 99.2266 51.6094C99.3828 52 100.531 52.2812 102.672 52.4531C102.781 52.625 102.828 52.9219 102.812 53.3438C102.812 53.7656 102.766 54.0469 102.672 54.1875C100.547 53.9688 98.2578 53.8594 95.8047 53.8594C93.6641 53.8594 91.5234 53.9688 89.3828 54.1875C89.2891 54.0469 89.2344 53.7656 89.2188 53.3438C89.2188 52.9219 89.2734 52.625 89.3828 52.4531C91.2266 52.3125 92.2266 52.0312 92.3828 51.6094C92.6328 50.9844 92.7578 49.5156 92.7578 47.2031V41.8125C92.7578 39.7812 92.6172 38.5 92.3359 37.9688C92.1797 37.6719 91.7344 37.4453 91 37.2891C90.2812 37.1172 89.7422 37.0312 89.3828 37.0312C89.3047 36.9844 89.2656 36.7344 89.2656 36.2812C89.2656 35.8125 89.3203 35.5781 89.4297 35.5781C91.0547 35.4531 92.7188 35.1406 94.4219 34.6406C96.1406 34.1406 97.5234 33.625 98.5703 33.0938C98.7266 33.1406 98.8984 33.2656 99.0859 33.4688C99.2734 33.6719 99.3672 33.8125 99.3672 33.8906C99.3047 34.0781 99.2109 34.6562 99.0859 35.625C98.9609 36.5938 98.8984 37.25 98.8984 37.5938C98.8984 37.6719 98.9141 37.7266 98.9453 37.7578C98.9922 37.7891 99.0391 37.8047 99.0859 37.8047C99.1328 37.7891 99.1641 37.7656 99.1797 37.7344C99.5234 37.125 99.8516 36.5938 100.164 36.1406C100.492 35.6719 100.898 35.1797 101.383 34.6641C101.883 34.1484 102.438 33.75 103.047 33.4688C103.672 33.1875 104.336 33.0469 105.039 33.0469ZM116.359 40.7812C116.562 40.7969 117.477 40.7578 119.102 40.6641C120.742 40.5703 121.844 40.4844 122.406 40.4062C122.812 40.375 123.016 40.125 123.016 39.6562C123.016 38.4062 122.781 37.3125 122.312 36.375C121.844 35.4375 121.125 34.9688 120.156 34.9688C119.516 34.9688 118.93 35.1953 118.398 35.6484C117.883 36.0859 117.484 36.6328 117.203 37.2891C116.922 37.9453 116.711 38.5781 116.57 39.1875C116.43 39.7969 116.359 40.3281 116.359 40.7812ZM116.312 42.6562C116.312 43.9062 116.477 45.0156 116.805 45.9844C117.133 46.9531 117.531 47.7109 118 48.2578C118.484 48.8047 119.039 49.2578 119.664 49.6172C120.289 49.9609 120.859 50.1953 121.375 50.3203C121.891 50.4297 122.391 50.4844 122.875 50.4844C124.953 50.4844 126.703 49.7031 128.125 48.1406C128.281 48.1875 128.414 48.3047 128.523 48.4922C128.633 48.6641 128.688 48.8281 128.688 48.9844C128.688 49.4375 128.641 49.7344 128.547 49.875C128.297 50.2656 127.938 50.6953 127.469 51.1641C127 51.6172 126.406 52.1016 125.688 52.6172C124.969 53.1328 124.109 53.5625 123.109 53.9062C122.125 54.25 121.109 54.4219 120.062 54.4219C118.297 54.4219 116.672 54.0391 115.188 53.2734C113.703 52.5078 112.5 51.375 111.578 49.875C110.672 48.3594 110.219 46.6094 110.219 44.625C110.219 42.6875 110.703 40.8281 111.672 39.0469C112.656 37.25 113.953 35.8047 115.562 34.7109C117.188 33.6016 118.875 33.0469 120.625 33.0469C121.797 33.0469 122.859 33.2109 123.812 33.5391C124.781 33.8516 125.562 34.2578 126.156 34.7578C126.766 35.2578 127.273 35.8281 127.68 36.4688C128.102 37.1094 128.398 37.7344 128.57 38.3438C128.742 38.9531 128.828 39.5469 128.828 40.125C128.828 40.6406 128.703 41.0938 128.453 41.4844C128.203 41.875 127.906 42.0781 127.562 42.0938C124.75 42.3438 121 42.5312 116.312 42.6562ZM145.539 33C147.367 33 148.992 33.4766 150.414 34.4297C151.836 35.3828 152.906 36.6172 153.625 38.1328C154.359 39.6484 154.727 41.2812 154.727 43.0312C154.727 44.75 154.367 46.3438 153.648 47.8125C152.945 49.2812 152.031 50.4844 150.906 51.4219C149.781 52.3438 148.547 53.0703 147.203 53.6016C145.875 54.1172 144.555 54.375 143.242 54.375C142.852 54.375 142.445 54.3359 142.023 54.2578C141.602 54.1953 141.25 54.125 140.969 54.0469C140.703 53.9844 140.555 53.9531 140.523 53.9531C140.43 53.9531 140.383 54.2031 140.383 54.7031V57.2344C140.383 59.5469 140.508 61.0156 140.758 61.6406C140.914 62.0625 141.914 62.3438 143.758 62.4844C143.867 62.6562 143.914 62.9531 143.898 63.375C143.898 63.7969 143.852 64.0781 143.758 64.2188C141.617 64 139.477 63.8906 137.336 63.8906C135.195 63.8906 133.055 64 130.914 64.2188C130.82 64.0781 130.766 63.7969 130.75 63.375C130.75 62.9531 130.805 62.6562 130.914 62.4844C132.758 62.3438 133.758 62.0625 133.914 61.6406C134.164 61.0156 134.289 59.5469 134.289 57.2344V41.8125C134.289 39.7812 134.148 38.5 133.867 37.9688C133.711 37.6719 133.266 37.4453 132.531 37.2891C131.812 37.1172 131.273 37.0312 130.914 37.0312C130.836 36.9844 130.797 36.7344 130.797 36.2812C130.797 35.8125 130.852 35.5781 130.961 35.5781C132.586 35.4531 134.25 35.1406 135.953 34.6406C137.672 34.1406 139.055 33.625 140.102 33.0938C140.258 33.1406 140.43 33.2656 140.617 33.4688C140.805 33.6719 140.898 33.8125 140.898 33.8906C140.898 33.9062 140.852 34.0234 140.758 34.2422C140.664 34.4453 140.594 34.6484 140.547 34.8516C140.5 35.0547 140.477 35.2656 140.477 35.4844C140.477 35.7031 140.516 35.8125 140.594 35.8125C140.609 35.8125 140.633 35.7969 140.664 35.7656C141.398 34.9844 142.219 34.3281 143.125 33.7969C144.031 33.2656 144.836 33 145.539 33ZM142.961 36.4219C142.43 36.4219 141.953 36.5234 141.531 36.7266C141.109 36.9141 140.812 37.1016 140.641 37.2891C140.469 37.4766 140.383 37.625 140.383 37.7344V49.5C140.383 50.3906 140.695 51.0859 141.32 51.5859C141.945 52.0703 142.695 52.3125 143.57 52.3125C143.992 52.3125 144.438 52.1641 144.906 51.8672C145.391 51.5703 145.867 51.1328 146.336 50.5547C146.805 49.9766 147.195 49.1719 147.508 48.1406C147.82 47.1094 147.977 45.9531 147.977 44.6719C147.977 39.1719 146.305 36.4219 142.961 36.4219ZM172.867 41.8125C172.867 39.7812 172.727 38.5 172.445 37.9688C172.289 37.6719 171.844 37.4453 171.109 37.2891C170.391 37.1172 169.852 37.0312 169.492 37.0312C169.414 36.9844 169.375 36.7344 169.375 36.2812C169.375 35.8125 169.43 35.5781 169.539 35.5781C171.164 35.4531 172.828 35.1406 174.531 34.6406C176.25 34.1406 177.633 33.625 178.68 33.0938C178.836 33.1406 179.008 33.2656 179.195 33.4688C179.383 33.6719 179.477 33.8125 179.477 33.8906C179.414 34.0781 179.328 34.4922 179.219 35.1328C179.109 35.7578 179.039 36.2344 179.008 36.5625C178.977 37.25 178.961 38.2344 178.961 39.5156V48.9375C178.961 49.8125 179.102 50.4062 179.383 50.7188C179.664 51.0312 180.367 51.1875 181.492 51.1875C181.586 51.2812 181.633 51.4844 181.633 51.7969C181.633 52.1094 181.539 52.4062 181.352 52.6875C180.555 52.7656 179.523 52.9453 178.258 53.2266C176.992 53.4922 175.883 53.7422 174.93 53.9766C173.992 54.2109 173.445 54.3281 173.289 54.3281C173.18 54.3281 173.078 54.2188 172.984 54C172.906 53.7969 172.867 53.5312 172.867 53.2031V52.4531C172.867 52.2344 172.82 52.1562 172.727 52.2188C172.352 52.4688 171.906 52.7266 171.391 52.9922C170.891 53.2578 170.133 53.5312 169.117 53.8125C168.117 54.0938 167.117 54.2344 166.117 54.2344C165.023 54.2344 164.07 54.0078 163.258 53.5547C162.461 53.1016 161.836 52.4766 161.383 51.6797C160.945 50.8672 160.625 49.9844 160.422 49.0312C160.219 48.0625 160.117 47 160.117 45.8438V41.8125C160.117 39.7812 159.977 38.5 159.695 37.9688C159.539 37.6719 159.094 37.4453 158.359 37.2891C157.641 37.1172 157.102 37.0312 156.742 37.0312C156.664 36.9844 156.625 36.7344 156.625 36.2812C156.625 35.8125 156.68 35.5781 156.789 35.5781C158.414 35.4531 160.078 35.1406 161.781 34.6406C163.5 34.1406 164.883 33.625 165.93 33.0938C166.086 33.1406 166.258 33.2656 166.445 33.4688C166.633 33.6719 166.727 33.8125 166.727 33.8906C166.664 34.0781 166.578 34.4922 166.469 35.1328C166.359 35.7578 166.289 36.2344 166.258 36.5625C166.227 37.25 166.211 38.2344 166.211 39.5156V43.7344C166.211 46.375 166.469 48.3125 166.984 49.5469C167.516 50.7656 168.477 51.375 169.867 51.375C170.508 51.375 171.164 51.1797 171.836 50.7891C172.523 50.3828 172.867 50 172.867 49.6406V41.8125ZM192.672 33.9375C192.672 33.9375 194.453 33.9375 198.016 33.9375C198.203 33.9375 198.297 34.1406 198.297 34.5469C198.297 34.75 198.18 35.0234 197.945 35.3672C197.711 35.7109 197.469 35.9688 197.219 36.1406H192.672V47.7656C192.672 49 192.875 49.9062 193.281 50.4844C193.688 51.0469 194.328 51.3281 195.203 51.3281C195.688 51.3281 196.172 51.1875 196.656 50.9062C197.156 50.625 197.5 50.3906 197.688 50.2031C197.906 50.4219 198.016 50.6406 198.016 50.8594C198.016 50.9688 197.969 51.1328 197.875 51.3516C197.781 51.5547 197.703 51.6875 197.641 51.75C197.391 52.0312 197.078 52.3359 196.703 52.6641C196.328 52.9766 195.742 53.3359 194.945 53.7422C194.164 54.1328 193.406 54.3281 192.672 54.3281C192.062 54.3281 191.477 54.2578 190.914 54.1172C190.367 53.9922 189.82 53.7656 189.273 53.4375C188.742 53.0938 188.281 52.6719 187.891 52.1719C187.5 51.6562 187.18 51 186.93 50.2031C186.695 49.4062 186.578 48.5 186.578 47.4844V36.1406H183.25C183.094 36.0781 183.016 35.875 183.016 35.5312C183.422 34.9688 183.922 34.4375 184.516 33.9375H186.578V31.4531C187.281 30.8594 188.266 29.8984 189.531 28.5703C190.797 27.2266 191.453 26.5312 191.5 26.4844C191.766 26.3281 192.016 26.2578 192.25 26.2734C192.5 26.2734 192.641 26.3438 192.672 26.4844V33.9375ZM209.406 51.0938C209.938 51.0938 210.391 50.9766 210.766 50.7422C211.141 50.4922 211.328 50.2812 211.328 50.1094V43.5469C211.234 43.5938 210.789 43.7969 209.992 44.1562C209.195 44.5156 208.609 44.8125 208.234 45.0469C207.047 45.8125 206.484 46.8594 206.547 48.1875C206.562 49.1094 206.867 49.8281 207.461 50.3438C208.055 50.8438 208.703 51.0938 209.406 51.0938ZM210.391 32.9531C212.359 32.9531 214.023 33.6328 215.383 34.9922C216.742 36.3359 217.422 38.0469 217.422 40.125V48.8906C217.422 49.5 217.523 49.9766 217.727 50.3203C217.945 50.6484 218.219 50.8125 218.547 50.8125C218.703 50.8125 218.859 50.7891 219.016 50.7422C219.172 50.6953 219.297 50.6562 219.391 50.625C219.484 50.5625 219.594 50.5 219.719 50.4375L219.906 50.3438C220.125 50.4531 220.234 50.7188 220.234 51.1406C220.234 51.4062 220.172 51.6406 220.047 51.8438C219.719 52.1406 219.344 52.4531 218.922 52.7812C218.516 53.0938 217.945 53.4219 217.211 53.7656C216.477 54.1094 215.812 54.2812 215.219 54.2812C214.469 54.2812 213.742 54.0391 213.039 53.5547C212.336 53.0703 211.875 52.5312 211.656 51.9375C211.266 52.2812 210.469 52.7734 209.266 53.4141C208.062 54.0547 207.094 54.375 206.359 54.375C204.641 54.375 203.188 53.7891 202 52.6172C200.812 51.4297 200.219 50.1094 200.219 48.6562C200.219 47.7812 200.461 46.9922 200.945 46.2891C201.445 45.5703 202.016 45.1094 202.656 44.9062C203.172 44.7344 203.961 44.4531 205.023 44.0625C206.086 43.6562 207.258 43.2031 208.539 42.7031C209.836 42.2031 210.766 41.8438 211.328 41.625V40.6406V39.4219C211.328 38.2031 211.062 37.1172 210.531 36.1641C210.016 35.2109 209.359 34.7344 208.562 34.7344C208.219 34.7344 207.906 34.8125 207.625 34.9688C207.359 35.1094 207.141 35.2891 206.969 35.5078C206.797 35.7109 206.633 36.0078 206.477 36.3984C206.336 36.7891 206.219 37.1406 206.125 37.4531C206.047 37.75 205.953 38.1562 205.844 38.6719C205.547 40.0469 204.672 40.7344 203.219 40.7344C202.562 40.7344 201.992 40.5234 201.508 40.1016C201.023 39.6641 200.781 39.125 200.781 38.4844C200.781 37.9688 201 37.3281 201.438 36.5625C202.031 35.9688 203.227 35.2188 205.023 34.3125C206.836 33.4062 208.625 32.9531 210.391 32.9531ZM230.828 33.9375C230.828 33.9375 232.609 33.9375 236.172 33.9375C236.359 33.9375 236.453 34.1406 236.453 34.5469C236.453 34.75 236.336 35.0234 236.102 35.3672C235.867 35.7109 235.625 35.9688 235.375 36.1406H230.828V47.7656C230.828 49 231.031 49.9062 231.438 50.4844C231.844 51.0469 232.484 51.3281 233.359 51.3281C233.844 51.3281 234.328 51.1875 234.812 50.9062C235.312 50.625 235.656 50.3906 235.844 50.2031C236.062 50.4219 236.172 50.6406 236.172 50.8594C236.172 50.9688 236.125 51.1328 236.031 51.3516C235.938 51.5547 235.859 51.6875 235.797 51.75C235.547 52.0312 235.234 52.3359 234.859 52.6641C234.484 52.9766 233.898 53.3359 233.102 53.7422C232.32 54.1328 231.562 54.3281 230.828 54.3281C230.219 54.3281 229.633 54.2578 229.07 54.1172C228.523 53.9922 227.977 53.7656 227.43 53.4375C226.898 53.0938 226.438 52.6719 226.047 52.1719C225.656 51.6562 225.336 51 225.086 50.2031C224.852 49.4062 224.734 48.5 224.734 47.4844V36.1406H221.406C221.25 36.0781 221.172 35.875 221.172 35.5312C221.578 34.9688 222.078 34.4375 222.672 33.9375H224.734V31.4531C225.438 30.8594 226.422 29.8984 227.688 28.5703C228.953 27.2266 229.609 26.5312 229.656 26.4844C229.922 26.3281 230.172 26.2578 230.406 26.2734C230.656 26.2734 230.797 26.3438 230.828 26.4844V33.9375ZM247.773 39.5156V47.2031C247.773 49.5156 247.898 50.9844 248.148 51.6094C248.32 52.0469 249.211 52.3281 250.82 52.4531C250.93 52.625 250.977 52.9219 250.961 53.3438C250.961 53.7656 250.914 54.0469 250.82 54.1875C248.68 53.9688 246.648 53.8594 244.727 53.8594C242.586 53.8594 240.445 53.9688 238.305 54.1875C238.211 54.0469 238.156 53.7656 238.141 53.3438C238.141 52.9219 238.195 52.625 238.305 52.4531C240.148 52.3125 241.148 52.0312 241.305 51.6094C241.555 50.9844 241.68 49.5156 241.68 47.2031V41.8125C241.68 39.7812 241.539 38.5 241.258 37.9688C241.102 37.6719 240.656 37.4453 239.922 37.2891C239.203 37.1172 238.664 37.0312 238.305 37.0312C238.227 36.9844 238.188 36.7344 238.188 36.2812C238.188 35.8125 238.242 35.5781 238.352 35.5781C239.977 35.4531 241.641 35.1406 243.344 34.6406C245.062 34.1406 246.445 33.625 247.492 33.0938C247.648 33.1406 247.82 33.2656 248.008 33.4688C248.195 33.6719 248.289 33.8125 248.289 33.8906C248.227 34.0781 248.141 34.4922 248.031 35.1328C247.922 35.7578 247.852 36.2344 247.82 36.5625C247.789 37.25 247.773 38.2344 247.773 39.5156ZM241.867 27.5156C241.211 26.8594 240.883 26.0625 240.883 25.125C240.883 24.1875 241.211 23.3906 241.867 22.7344C242.523 22.0781 243.32 21.75 244.258 21.75C245.195 21.75 246 22.0781 246.672 22.7344C247.344 23.3906 247.68 24.1875 247.68 25.125C247.68 26.0625 247.344 26.8594 246.672 27.5156C246 28.1719 245.195 28.5 244.258 28.5C243.32 28.5 242.523 28.1719 241.867 27.5156ZM263.406 34.9688C262.594 34.9688 261.922 35.2109 261.391 35.6953C260.859 36.1641 260.477 36.8359 260.242 37.7109C260.008 38.5703 259.852 39.3906 259.773 40.1719C259.695 40.9531 259.656 41.8594 259.656 42.8906C259.656 44.375 259.812 45.8125 260.125 47.2031C260.438 48.5781 260.969 49.7812 261.719 50.8125C262.484 51.8438 263.406 52.3594 264.484 52.3594C265.141 52.3594 265.711 52.1953 266.195 51.8672C266.68 51.5234 267.047 51.1016 267.297 50.6016C267.562 50.1016 267.773 49.4766 267.93 48.7266C268.086 47.9766 268.18 47.2891 268.211 46.6641C268.258 46.0391 268.281 45.3281 268.281 44.5312C268.281 43.0312 268.117 41.5859 267.789 40.1953C267.477 38.7891 266.938 37.5703 266.172 36.5391C265.406 35.4922 264.484 34.9688 263.406 34.9688ZM263.922 33.0469C267.141 33.0469 269.781 34.0312 271.844 36C273.906 37.9688 274.938 40.4531 274.938 43.4531C274.938 45.4062 274.461 47.2188 273.508 48.8906C272.555 50.5469 271.234 51.8672 269.547 52.8516C267.875 53.8359 266.031 54.3281 264.016 54.3281C260.797 54.3281 258.156 53.3281 256.094 51.3281C254.031 49.3125 253 46.8125 253 43.8281C253 40.8594 254.055 38.3203 256.164 36.2109C258.289 34.1016 260.875 33.0469 263.922 33.0469ZM294.273 33.0938C295.336 33.0938 296.242 33.25 296.992 33.5625C297.742 33.8594 298.352 34.2891 298.82 34.8516C299.305 35.3984 299.68 36.1406 299.945 37.0781C300.211 38.0156 300.391 39.0391 300.484 40.1484C300.594 41.2422 300.648 42.5781 300.648 44.1562V47.2031C300.648 49.5156 300.773 50.9844 301.023 51.6094C301.18 52.0312 302.18 52.3125 304.023 52.4531C304.133 52.625 304.18 52.9219 304.164 53.3438C304.164 53.7656 304.117 54.0469 304.023 54.1875C301.883 53.9688 299.742 53.8594 297.602 53.8594C295.836 53.8594 293.883 53.9688 291.742 54.1875C291.648 54.0469 291.594 53.7656 291.578 53.3438C291.578 52.9219 291.633 52.625 291.742 52.4531C293.195 52.3438 294.008 52.0625 294.18 51.6094C294.43 50.9844 294.555 49.5156 294.555 47.2031V43.5C294.555 39.0938 293.508 36.8906 291.414 36.8906C290.523 36.8906 289.609 37.2031 288.672 37.8281C287.75 38.4531 287.289 39.0156 287.289 39.5156V47.2031C287.289 49.5156 287.414 50.9844 287.664 51.6094C287.836 52.0469 288.727 52.3281 290.336 52.4531C290.445 52.625 290.492 52.9219 290.477 53.3438C290.477 53.7656 290.43 54.0469 290.336 54.1875C288.195 53.9688 286.164 53.8594 284.242 53.8594C282.102 53.8594 279.961 53.9688 277.82 54.1875C277.727 54.0469 277.672 53.7656 277.656 53.3438C277.656 52.9219 277.711 52.625 277.82 52.4531C279.664 52.3125 280.664 52.0312 280.82 51.6094C281.07 50.9844 281.195 49.5156 281.195 47.2031V41.8125C281.195 39.7812 281.055 38.5 280.773 37.9688C280.617 37.6719 280.172 37.4453 279.438 37.2891C278.719 37.1172 278.18 37.0312 277.82 37.0312C277.742 36.9844 277.703 36.7344 277.703 36.2812C277.703 35.8125 277.758 35.5781 277.867 35.5781C279.492 35.4531 281.156 35.1406 282.859 34.6406C284.578 34.1406 285.961 33.625 287.008 33.0938C287.148 33.0938 287.312 33.1953 287.5 33.3984C287.703 33.6016 287.805 33.7656 287.805 33.8906C287.773 34 287.719 34.2734 287.641 34.7109C287.562 35.1484 287.492 35.5625 287.43 35.9531C287.367 36.3438 287.336 36.5469 287.336 36.5625C287.336 36.7188 287.352 36.8125 287.383 36.8438C287.445 36.8438 287.555 36.7656 287.711 36.6094C288.445 35.7812 289.469 34.9922 290.781 34.2422C292.109 33.4766 293.273 33.0938 294.273 33.0938ZM306.344 50.9062C306.344 49.9688 306.688 49.1641 307.375 48.4922C308.062 47.8203 308.891 47.4844 309.859 47.4844C310.828 47.4844 311.656 47.8438 312.344 48.5625C313.031 49.2656 313.375 50.0938 313.375 51.0469C313.375 51.9844 313.031 52.7969 312.344 53.4844C311.672 54.1719 310.859 54.5156 309.906 54.5156C308.922 54.5156 308.078 54.1641 307.375 53.4609C306.688 52.7578 306.344 51.9062 306.344 50.9062ZM326.195 39.5156V47.2031C326.195 49.5156 326.32 50.9844 326.57 51.6094C326.742 52.0469 327.633 52.3281 329.242 52.4531C329.352 52.625 329.398 52.9219 329.383 53.3438C329.383 53.7656 329.336 54.0469 329.242 54.1875C327.102 53.9688 325.07 53.8594 323.148 53.8594C321.008 53.8594 318.867 53.9688 316.727 54.1875C316.633 54.0469 316.578 53.7656 316.562 53.3438C316.562 52.9219 316.617 52.625 316.727 52.4531C318.57 52.3125 319.57 52.0312 319.727 51.6094C319.977 50.9844 320.102 49.5156 320.102 47.2031V41.8125C320.102 39.7812 319.961 38.5 319.68 37.9688C319.523 37.6719 319.078 37.4453 318.344 37.2891C317.625 37.1172 317.086 37.0312 316.727 37.0312C316.648 36.9844 316.609 36.7344 316.609 36.2812C316.609 35.8125 316.664 35.5781 316.773 35.5781C318.398 35.4531 320.062 35.1406 321.766 34.6406C323.484 34.1406 324.867 33.625 325.914 33.0938C326.07 33.1406 326.242 33.2656 326.43 33.4688C326.617 33.6719 326.711 33.8125 326.711 33.8906C326.648 34.0781 326.562 34.4922 326.453 35.1328C326.344 35.7578 326.273 36.2344 326.242 36.5625C326.211 37.25 326.195 38.2344 326.195 39.5156ZM320.289 27.5156C319.633 26.8594 319.305 26.0625 319.305 25.125C319.305 24.1875 319.633 23.3906 320.289 22.7344C320.945 22.0781 321.742 21.75 322.68 21.75C323.617 21.75 324.422 22.0781 325.094 22.7344C325.766 23.3906 326.102 24.1875 326.102 25.125C326.102 26.0625 325.766 26.8594 325.094 27.5156C324.422 28.1719 323.617 28.5 322.68 28.5C321.742 28.5 320.945 28.1719 320.289 27.5156ZM340.609 33C341.266 33 341.875 33.0469 342.438 33.1406C343.016 33.2188 343.688 33.3594 344.453 33.5625C345.219 33.75 345.688 33.8594 345.859 33.8906C346.062 34.75 346.273 35.8359 346.492 37.1484C346.727 38.4453 346.844 39.2812 346.844 39.6562C346.844 39.75 346.75 39.8281 346.562 39.8906C346.375 39.9531 346.188 39.9844 346 39.9844C345.781 39.9844 345.484 39.8594 345.109 39.6094C344.406 36.4531 342.75 34.875 340.141 34.875C339.344 34.875 338.695 35.0938 338.195 35.5312C337.711 35.9688 337.469 36.5938 337.469 37.4062C337.469 37.7969 337.539 38.1641 337.68 38.5078C337.836 38.8359 338.016 39.1172 338.219 39.3516C338.438 39.5703 338.727 39.7969 339.086 40.0312C339.461 40.2656 339.789 40.4531 340.07 40.5938C340.352 40.7188 340.727 40.8828 341.195 41.0859C341.664 41.2891 342.016 41.4531 342.25 41.5781C343.75 42.3281 344.758 42.9141 345.273 43.3359C346.633 44.4297 347.312 45.9531 347.312 47.9062C347.312 49.0312 347.062 50.0234 346.562 50.8828C346.062 51.7422 345.375 52.4219 344.5 52.9219C343.641 53.4062 342.672 53.7656 341.594 54C340.516 54.25 339.344 54.375 338.078 54.375C337.594 54.375 337.055 54.3281 336.461 54.2344C335.867 54.1562 335.391 54.0781 335.031 54C334.688 53.9219 334.211 53.8047 333.602 53.6484C332.992 53.4922 332.656 53.4062 332.594 53.3906C332.516 52.9219 332.43 51.8984 332.336 50.3203C332.258 48.7266 332.219 47.7188 332.219 47.2969C332.219 47.0781 332.453 46.9688 332.922 46.9688C333.109 46.9688 333.312 47.0156 333.531 47.1094C333.75 47.2031 333.891 47.3125 333.953 47.4375C334.109 48.4062 334.367 49.2422 334.727 49.9453C335.102 50.6328 335.539 51.1562 336.039 51.5156C336.539 51.8594 337.031 52.1094 337.516 52.2656C338 52.4219 338.5 52.5 339.016 52.5C339.812 52.5 340.453 52.25 340.938 51.75C341.438 51.25 341.688 50.6562 341.688 49.9688C341.688 49.5156 341.594 49.1172 341.406 48.7734C341.234 48.4141 340.961 48.1016 340.586 47.8359C340.227 47.5547 339.875 47.3203 339.531 47.1328C339.203 46.9453 338.75 46.7188 338.172 46.4531C337.609 46.1875 337.172 45.9688 336.859 45.7969C336.078 45.375 335.422 44.9766 334.891 44.6016C334.375 44.2266 333.867 43.7891 333.367 43.2891C332.883 42.7734 332.516 42.2031 332.266 41.5781C332.016 40.9375 331.891 40.2344 331.891 39.4688C331.891 38.3594 332.164 37.375 332.711 36.5156C333.273 35.6406 333.992 34.9609 334.867 34.4766C335.758 33.9766 336.688 33.6094 337.656 33.375C338.641 33.125 339.625 33 340.609 33ZM358.984 33.9375C358.984 33.9375 360.766 33.9375 364.328 33.9375C364.516 33.9375 364.609 34.1406 364.609 34.5469C364.609 34.75 364.492 35.0234 364.258 35.3672C364.023 35.7109 363.781 35.9688 363.531 36.1406H358.984V47.7656C358.984 49 359.188 49.9062 359.594 50.4844C360 51.0469 360.641 51.3281 361.516 51.3281C362 51.3281 362.484 51.1875 362.969 50.9062C363.469 50.625 363.812 50.3906 364 50.2031C364.219 50.4219 364.328 50.6406 364.328 50.8594C364.328 50.9688 364.281 51.1328 364.188 51.3516C364.094 51.5547 364.016 51.6875 363.953 51.75C363.703 52.0312 363.391 52.3359 363.016 52.6641C362.641 52.9766 362.055 53.3359 361.258 53.7422C360.477 54.1328 359.719 54.3281 358.984 54.3281C358.375 54.3281 357.789 54.2578 357.227 54.1172C356.68 53.9922 356.133 53.7656 355.586 53.4375C355.055 53.0938 354.594 52.6719 354.203 52.1719C353.812 51.6562 353.492 51 353.242 50.2031C353.008 49.4062 352.891 48.5 352.891 47.4844V36.1406H349.562C349.406 36.0781 349.328 35.875 349.328 35.5312C349.734 34.9688 350.234 34.4375 350.828 33.9375H352.891V31.4531C353.594 30.8594 354.578 29.8984 355.844 28.5703C357.109 27.2266 357.766 26.5312 357.812 26.4844C358.078 26.3281 358.328 26.2578 358.562 26.2734C358.812 26.2734 358.953 26.3438 358.984 26.4844V33.9375Z" fill="black"/>
<path d="M42.428 16.3884L45.398 13.4184C51.2304 7.58603 60.7255 7.44167 66.5914 13.2404C68.814 15.4425 70.2912 18.2856 70.8152 21.3702C71.3391 24.4549 70.8835 27.6262 69.5125 30.4387C68.8549 31.7822 68.6334 33.2976 68.8786 34.7731C69.1241 36.2486 69.8241 37.6107 70.8812 38.669C72.8251 36.7207 74.3657 34.4085 75.4155 31.8646C76.4653 29.3206 77.0038 26.5947 77 23.8427C76.9958 21.0907 76.4501 18.3663 75.393 15.8254C74.3359 13.2844 72.7884 10.9766 70.8392 9.0338C62.6368 0.877636 49.3228 1.03994 41.1433 9.21902L12.8341 37.5275L10.5068 35.2002C4.57556 29.269 4.53775 19.5738 10.5736 13.7479C12.8078 11.5981 15.6543 10.1947 18.7201 9.73148C21.7858 9.26824 24.9198 9.76799 27.6895 11.1617C28.9536 11.8095 30.3902 12.0413 31.7939 11.8239C33.1976 11.6064 34.4968 10.951 35.5058 9.95111L35.5779 9.87932C35.6004 9.85701 35.6182 9.83047 35.6304 9.80122C35.6425 9.772 35.6488 9.74065 35.6488 9.70899C35.6488 9.67733 35.6425 9.64598 35.6304 9.61676C35.6182 9.58755 35.6004 9.561 35.5779 9.53866C31.6816 5.74018 26.4602 3.60658 21.0187 3.58933C15.5772 3.57208 10.3424 5.67254 6.42203 9.44624C-2.02286 17.5986 -1.99268 31.1552 6.30746 39.4553L34.6083 67.7561L31.602 70.7624C25.7697 76.5948 16.2742 76.7391 10.4086 70.9404C8.18597 68.7384 6.70891 65.8952 6.18491 62.8106C5.66095 59.726 6.11632 56.5547 7.48714 53.7421C8.1448 52.3985 8.36646 50.8832 8.12116 49.4079C7.87583 47.9323 7.17578 46.57 6.1188 45.5118C4.17506 47.4602 2.63425 49.7722 1.58437 52.3161C0.534484 54.8603 -0.00388009 57.5859 2.10505e-05 60.3382C0.0039222 63.0901 0.550012 65.8146 1.60711 68.3553C2.6642 70.8965 4.21157 73.2043 6.16081 75.147C14.3628 83.3035 27.6773 83.1416 35.8567 74.9622L64.2026 46.6159L66.5387 48.9519C72.371 54.7843 72.5154 64.2794 66.7166 70.1449C64.5146 72.3679 61.6714 73.8447 58.5868 74.3691C55.5023 74.893 52.331 74.4374 49.5183 73.0664C48.1744 72.4084 46.6583 72.1865 45.1823 72.4325C43.7062 72.678 42.3436 73.3788 41.2854 74.4367C43.2338 76.3805 45.5458 77.9215 48.0896 78.9713C50.6338 80.0211 53.3594 80.5596 56.1118 80.5558C58.8637 80.5516 61.5882 80.0055 64.1289 78.9484C66.6701 77.8913 68.9779 76.3439 70.9206 74.3946C79.0771 66.1927 78.9148 52.8782 70.7357 44.6991L42.428 16.3884ZM38.8344 63.5282L17.0613 41.7551L38.2004 20.6163L59.9735 42.3894L38.8344 63.5282Z" fill="url(#paint0_linear)"/>
<defs>
<linearGradient id="paint0_linear" x1="38.5" y1="3" x2="38.5" y2="81.1813" gradientUnits="userSpaceOnUse">
<stop stop-color="#00D1B2"/>
<stop offset="1" stop-color="#209CEE"/>
</linearGradient>
</defs>
</svg>
