<svg width="340" height="97" viewBox="0 0 340 97" fill="none" xmlns="http://www.w3.org/2000/svg">
<path d="M90.6406 51.7812C90.8438 51.7969 91.7578 51.7578 93.3828 51.6641C95.0234 51.5703 96.125 51.4844 96.6875 51.4062C97.0938 51.375 97.2969 51.125 97.2969 50.6562C97.2969 49.4062 97.0625 48.3125 96.5938 47.375C96.125 46.4375 95.4062 45.9688 94.4375 45.9688C93.7969 45.9688 93.2109 46.1953 92.6797 46.6484C92.1641 47.0859 91.7656 47.6328 91.4844 48.2891C91.2031 48.9453 90.9922 49.5781 90.8516 50.1875C90.7109 50.7969 90.6406 51.3281 90.6406 51.7812ZM90.5938 53.6562C90.5938 54.9062 90.7578 56.0156 91.0859 56.9844C91.4141 57.9531 91.8125 58.7109 92.2812 59.2578C92.7656 59.8047 93.3203 60.2578 93.9453 60.6172C94.5703 60.9609 95.1406 61.1953 95.6562 61.3203C96.1719 61.4297 96.6719 61.4844 97.1562 61.4844C99.2344 61.4844 100.984 60.7031 102.406 59.1406C102.562 59.1875 102.695 59.3047 102.805 59.4922C102.914 59.6641 102.969 59.8281 102.969 59.9844C102.969 60.4375 102.922 60.7344 102.828 60.875C102.578 61.2656 102.219 61.6953 101.75 62.1641C101.281 62.6172 100.688 63.1016 99.9688 63.6172C99.25 64.1328 98.3906 64.5625 97.3906 64.9062C96.4062 65.25 95.3906 65.4219 94.3438 65.4219C92.5781 65.4219 90.9531 65.0391 89.4688 64.2734C87.9844 63.5078 86.7812 62.375 85.8594 60.875C84.9531 59.3594 84.5 57.6094 84.5 55.625C84.5 53.6875 84.9844 51.8281 85.9531 50.0469C86.9375 48.25 88.2344 46.8047 89.8438 45.7109C91.4688 44.6016 93.1562 44.0469 94.9062 44.0469C96.0781 44.0469 97.1406 44.2109 98.0938 44.5391C99.0625 44.8516 99.8438 45.2578 100.438 45.7578C101.047 46.2578 101.555 46.8281 101.961 47.4688C102.383 48.1094 102.68 48.7344 102.852 49.3438C103.023 49.9531 103.109 50.5469 103.109 51.125C103.109 51.6406 102.984 52.0938 102.734 52.4844C102.484 52.875 102.188 53.0781 101.844 53.0938C99.0312 53.3438 95.2812 53.5312 90.5938 53.6562ZM119.82 44C121.648 44 123.273 44.4766 124.695 45.4297C126.117 46.3828 127.188 47.6172 127.906 49.1328C128.641 50.6484 129.008 52.2812 129.008 54.0312C129.008 55.75 128.648 57.3438 127.93 58.8125C127.227 60.2812 126.312 61.4844 125.188 62.4219C124.062 63.3438 122.828 64.0703 121.484 64.6016C120.156 65.1172 118.836 65.375 117.523 65.375C117.133 65.375 116.727 65.3359 116.305 65.2578C115.883 65.1953 115.531 65.125 115.25 65.0469C114.984 64.9844 114.836 64.9531 114.805 64.9531C114.711 64.9531 114.664 65.2031 114.664 65.7031V68.2344C114.664 70.5469 114.789 72.0156 115.039 72.6406C115.195 73.0625 116.195 73.3438 118.039 73.4844C118.148 73.6562 118.195 73.9531 118.18 74.375C118.18 74.7969 118.133 75.0781 118.039 75.2188C115.898 75 113.758 74.8906 111.617 74.8906C109.477 74.8906 107.336 75 105.195 75.2188C105.102 75.0781 105.047 74.7969 105.031 74.375C105.031 73.9531 105.086 73.6562 105.195 73.4844C107.039 73.3438 108.039 73.0625 108.195 72.6406C108.445 72.0156 108.57 70.5469 108.57 68.2344V52.8125C108.57 50.7812 108.43 49.5 108.148 48.9688C107.992 48.6719 107.547 48.4453 106.812 48.2891C106.094 48.1172 105.555 48.0312 105.195 48.0312C105.117 47.9844 105.078 47.7344 105.078 47.2812C105.078 46.8125 105.133 46.5781 105.242 46.5781C106.867 46.4531 108.531 46.1406 110.234 45.6406C111.953 45.1406 113.336 44.625 114.383 44.0938C114.539 44.1406 114.711 44.2656 114.898 44.4688C115.086 44.6719 115.18 44.8125 115.18 44.8906C115.18 44.9062 115.133 45.0234 115.039 45.2422C114.945 45.4453 114.875 45.6484 114.828 45.8516C114.781 46.0547 114.758 46.2656 114.758 46.4844C114.758 46.7031 114.797 46.8125 114.875 46.8125C114.891 46.8125 114.914 46.7969 114.945 46.7656C115.68 45.9844 116.5 45.3281 117.406 44.7969C118.312 44.2656 119.117 44 119.82 44ZM117.242 47.4219C116.711 47.4219 116.234 47.5234 115.812 47.7266C115.391 47.9141 115.094 48.1016 114.922 48.2891C114.75 48.4766 114.664 48.625 114.664 48.7344V60.5C114.664 61.3906 114.977 62.0859 115.602 62.5859C116.227 63.0703 116.977 63.3125 117.852 63.3125C118.273 63.3125 118.719 63.1641 119.188 62.8672C119.672 62.5703 120.148 62.1328 120.617 61.5547C121.086 60.9766 121.477 60.1719 121.789 59.1406C122.102 58.1094 122.258 56.9531 122.258 55.6719C122.258 50.1719 120.586 47.4219 117.242 47.4219ZM147.148 52.8125C147.148 50.7812 147.008 49.5 146.727 48.9688C146.57 48.6719 146.125 48.4453 145.391 48.2891C144.672 48.1172 144.133 48.0312 143.773 48.0312C143.695 47.9844 143.656 47.7344 143.656 47.2812C143.656 46.8125 143.711 46.5781 143.82 46.5781C145.445 46.4531 147.109 46.1406 148.812 45.6406C150.531 45.1406 151.914 44.625 152.961 44.0938C153.117 44.1406 153.289 44.2656 153.477 44.4688C153.664 44.6719 153.758 44.8125 153.758 44.8906C153.695 45.0781 153.609 45.4922 153.5 46.1328C153.391 46.7578 153.32 47.2344 153.289 47.5625C153.258 48.25 153.242 49.2344 153.242 50.5156V59.9375C153.242 60.8125 153.383 61.4062 153.664 61.7188C153.945 62.0312 154.648 62.1875 155.773 62.1875C155.867 62.2812 155.914 62.4844 155.914 62.7969C155.914 63.1094 155.82 63.4062 155.633 63.6875C154.836 63.7656 153.805 63.9453 152.539 64.2266C151.273 64.4922 150.164 64.7422 149.211 64.9766C148.273 65.2109 147.727 65.3281 147.57 65.3281C147.461 65.3281 147.359 65.2188 147.266 65C147.188 64.7969 147.148 64.5312 147.148 64.2031V63.4531C147.148 63.2344 147.102 63.1562 147.008 63.2188C146.633 63.4688 146.188 63.7266 145.672 63.9922C145.172 64.2578 144.414 64.5312 143.398 64.8125C142.398 65.0938 141.398 65.2344 140.398 65.2344C139.305 65.2344 138.352 65.0078 137.539 64.5547C136.742 64.1016 136.117 63.4766 135.664 62.6797C135.227 61.8672 134.906 60.9844 134.703 60.0312C134.5 59.0625 134.398 58 134.398 56.8438V52.8125C134.398 50.7812 134.258 49.5 133.977 48.9688C133.82 48.6719 133.375 48.4453 132.641 48.2891C131.922 48.1172 131.383 48.0312 131.023 48.0312C130.945 47.9844 130.906 47.7344 130.906 47.2812C130.906 46.8125 130.961 46.5781 131.07 46.5781C132.695 46.4531 134.359 46.1406 136.062 45.6406C137.781 45.1406 139.164 44.625 140.211 44.0938C140.367 44.1406 140.539 44.2656 140.727 44.4688C140.914 44.6719 141.008 44.8125 141.008 44.8906C140.945 45.0781 140.859 45.4922 140.75 46.1328C140.641 46.7578 140.57 47.2344 140.539 47.5625C140.508 48.25 140.492 49.2344 140.492 50.5156V54.7344C140.492 57.375 140.75 59.3125 141.266 60.5469C141.797 61.7656 142.758 62.375 144.148 62.375C144.789 62.375 145.445 62.1797 146.117 61.7891C146.805 61.3828 147.148 61 147.148 60.6406V52.8125ZM166.953 44.9375C166.953 44.9375 168.734 44.9375 172.297 44.9375C172.484 44.9375 172.578 45.1406 172.578 45.5469C172.578 45.75 172.461 46.0234 172.227 46.3672C171.992 46.7109 171.75 46.9688 171.5 47.1406H166.953V58.7656C166.953 60 167.156 60.9062 167.562 61.4844C167.969 62.0469 168.609 62.3281 169.484 62.3281C169.969 62.3281 170.453 62.1875 170.938 61.9062C171.438 61.625 171.781 61.3906 171.969 61.2031C172.188 61.4219 172.297 61.6406 172.297 61.8594C172.297 61.9688 172.25 62.1328 172.156 62.3516C172.062 62.5547 171.984 62.6875 171.922 62.75C171.672 63.0312 171.359 63.3359 170.984 63.6641C170.609 63.9766 170.023 64.3359 169.227 64.7422C168.445 65.1328 167.688 65.3281 166.953 65.3281C166.344 65.3281 165.758 65.2578 165.195 65.1172C164.648 64.9922 164.102 64.7656 163.555 64.4375C163.023 64.0938 162.562 63.6719 162.172 63.1719C161.781 62.6562 161.461 62 161.211 61.2031C160.977 60.4062 160.859 59.5 160.859 58.4844V47.1406H157.531C157.375 47.0781 157.297 46.875 157.297 46.5312C157.703 45.9688 158.203 45.4375 158.797 44.9375H160.859V42.4531C161.562 41.8594 162.547 40.8984 163.812 39.5703C165.078 38.2266 165.734 37.5312 165.781 37.4844C166.047 37.3281 166.297 37.2578 166.531 37.2734C166.781 37.2734 166.922 37.3438 166.953 37.4844V44.9375ZM183.688 62.0938C184.219 62.0938 184.672 61.9766 185.047 61.7422C185.422 61.4922 185.609 61.2812 185.609 61.1094V54.5469C185.516 54.5938 185.07 54.7969 184.273 55.1562C183.477 55.5156 182.891 55.8125 182.516 56.0469C181.328 56.8125 180.766 57.8594 180.828 59.1875C180.844 60.1094 181.148 60.8281 181.742 61.3438C182.336 61.8438 182.984 62.0938 183.688 62.0938ZM184.672 43.9531C186.641 43.9531 188.305 44.6328 189.664 45.9922C191.023 47.3359 191.703 49.0469 191.703 51.125V59.8906C191.703 60.5 191.805 60.9766 192.008 61.3203C192.227 61.6484 192.5 61.8125 192.828 61.8125C192.984 61.8125 193.141 61.7891 193.297 61.7422C193.453 61.6953 193.578 61.6562 193.672 61.625C193.766 61.5625 193.875 61.5 194 61.4375L194.188 61.3438C194.406 61.4531 194.516 61.7188 194.516 62.1406C194.516 62.4062 194.453 62.6406 194.328 62.8438C194 63.1406 193.625 63.4531 193.203 63.7812C192.797 64.0938 192.227 64.4219 191.492 64.7656C190.758 65.1094 190.094 65.2812 189.5 65.2812C188.75 65.2812 188.023 65.0391 187.32 64.5547C186.617 64.0703 186.156 63.5312 185.938 62.9375C185.547 63.2812 184.75 63.7734 183.547 64.4141C182.344 65.0547 181.375 65.375 180.641 65.375C178.922 65.375 177.469 64.7891 176.281 63.6172C175.094 62.4297 174.5 61.1094 174.5 59.6562C174.5 58.7812 174.742 57.9922 175.227 57.2891C175.727 56.5703 176.297 56.1094 176.938 55.9062C177.453 55.7344 178.242 55.4531 179.305 55.0625C180.367 54.6562 181.539 54.2031 182.82 53.7031C184.117 53.2031 185.047 52.8438 185.609 52.625V51.6406V50.4219C185.609 49.2031 185.344 48.1172 184.812 47.1641C184.297 46.2109 183.641 45.7344 182.844 45.7344C182.5 45.7344 182.188 45.8125 181.906 45.9688C181.641 46.1094 181.422 46.2891 181.25 46.5078C181.078 46.7109 180.914 47.0078 180.758 47.3984C180.617 47.7891 180.5 48.1406 180.406 48.4531C180.328 48.75 180.234 49.1562 180.125 49.6719C179.828 51.0469 178.953 51.7344 177.5 51.7344C176.844 51.7344 176.273 51.5234 175.789 51.1016C175.305 50.6641 175.062 50.125 175.062 49.4844C175.062 48.9688 175.281 48.3281 175.719 47.5625C176.312 46.9688 177.508 46.2188 179.305 45.3125C181.117 44.4062 182.906 43.9531 184.672 43.9531ZM205.109 44.9375C205.109 44.9375 206.891 44.9375 210.453 44.9375C210.641 44.9375 210.734 45.1406 210.734 45.5469C210.734 45.75 210.617 46.0234 210.383 46.3672C210.148 46.7109 209.906 46.9688 209.656 47.1406H205.109V58.7656C205.109 60 205.312 60.9062 205.719 61.4844C206.125 62.0469 206.766 62.3281 207.641 62.3281C208.125 62.3281 208.609 62.1875 209.094 61.9062C209.594 61.625 209.938 61.3906 210.125 61.2031C210.344 61.4219 210.453 61.6406 210.453 61.8594C210.453 61.9688 210.406 62.1328 210.312 62.3516C210.219 62.5547 210.141 62.6875 210.078 62.75C209.828 63.0312 209.516 63.3359 209.141 63.6641C208.766 63.9766 208.18 64.3359 207.383 64.7422C206.602 65.1328 205.844 65.3281 205.109 65.3281C204.5 65.3281 203.914 65.2578 203.352 65.1172C202.805 64.9922 202.258 64.7656 201.711 64.4375C201.18 64.0938 200.719 63.6719 200.328 63.1719C199.938 62.6562 199.617 62 199.367 61.2031C199.133 60.4062 199.016 59.5 199.016 58.4844V47.1406H195.688C195.531 47.0781 195.453 46.875 195.453 46.5312C195.859 45.9688 196.359 45.4375 196.953 44.9375H199.016V42.4531C199.719 41.8594 200.703 40.8984 201.969 39.5703C203.234 38.2266 203.891 37.5312 203.938 37.4844C204.203 37.3281 204.453 37.2578 204.688 37.2734C204.938 37.2734 205.078 37.3438 205.109 37.4844V44.9375ZM222.055 50.5156V58.2031C222.055 60.5156 222.18 61.9844 222.43 62.6094C222.602 63.0469 223.492 63.3281 225.102 63.4531C225.211 63.625 225.258 63.9219 225.242 64.3438C225.242 64.7656 225.195 65.0469 225.102 65.1875C222.961 64.9688 220.93 64.8594 219.008 64.8594C216.867 64.8594 214.727 64.9688 212.586 65.1875C212.492 65.0469 212.438 64.7656 212.422 64.3438C212.422 63.9219 212.477 63.625 212.586 63.4531C214.43 63.3125 215.43 63.0312 215.586 62.6094C215.836 61.9844 215.961 60.5156 215.961 58.2031V52.8125C215.961 50.7812 215.82 49.5 215.539 48.9688C215.383 48.6719 214.938 48.4453 214.203 48.2891C213.484 48.1172 212.945 48.0312 212.586 48.0312C212.508 47.9844 212.469 47.7344 212.469 47.2812C212.469 46.8125 212.523 46.5781 212.633 46.5781C214.258 46.4531 215.922 46.1406 217.625 45.6406C219.344 45.1406 220.727 44.625 221.773 44.0938C221.93 44.1406 222.102 44.2656 222.289 44.4688C222.477 44.6719 222.57 44.8125 222.57 44.8906C222.508 45.0781 222.422 45.4922 222.312 46.1328C222.203 46.7578 222.133 47.2344 222.102 47.5625C222.07 48.25 222.055 49.2344 222.055 50.5156ZM216.148 38.5156C215.492 37.8594 215.164 37.0625 215.164 36.125C215.164 35.1875 215.492 34.3906 216.148 33.7344C216.805 33.0781 217.602 32.75 218.539 32.75C219.477 32.75 220.281 33.0781 220.953 33.7344C221.625 34.3906 221.961 35.1875 221.961 36.125C221.961 37.0625 221.625 37.8594 220.953 38.5156C220.281 39.1719 219.477 39.5 218.539 39.5C217.602 39.5 216.805 39.1719 216.148 38.5156ZM237.688 45.9688C236.875 45.9688 236.203 46.2109 235.672 46.6953C235.141 47.1641 234.758 47.8359 234.523 48.7109C234.289 49.5703 234.133 50.3906 234.055 51.1719C233.977 51.9531 233.938 52.8594 233.938 53.8906C233.938 55.375 234.094 56.8125 234.406 58.2031C234.719 59.5781 235.25 60.7812 236 61.8125C236.766 62.8438 237.688 63.3594 238.766 63.3594C239.422 63.3594 239.992 63.1953 240.477 62.8672C240.961 62.5234 241.328 62.1016 241.578 61.6016C241.844 61.1016 242.055 60.4766 242.211 59.7266C242.367 58.9766 242.461 58.2891 242.492 57.6641C242.539 57.0391 242.562 56.3281 242.562 55.5312C242.562 54.0312 242.398 52.5859 242.07 51.1953C241.758 49.7891 241.219 48.5703 240.453 47.5391C239.688 46.4922 238.766 45.9688 237.688 45.9688ZM238.203 44.0469C241.422 44.0469 244.062 45.0312 246.125 47C248.188 48.9688 249.219 51.4531 249.219 54.4531C249.219 56.4062 248.742 58.2188 247.789 59.8906C246.836 61.5469 245.516 62.8672 243.828 63.8516C242.156 64.8359 240.312 65.3281 238.297 65.3281C235.078 65.3281 232.438 64.3281 230.375 62.3281C228.312 60.3125 227.281 57.8125 227.281 54.8281C227.281 51.8594 228.336 49.3203 230.445 47.2109C232.57 45.1016 235.156 44.0469 238.203 44.0469ZM268.555 44.0938C269.617 44.0938 270.523 44.25 271.273 44.5625C272.023 44.8594 272.633 45.2891 273.102 45.8516C273.586 46.3984 273.961 47.1406 274.227 48.0781C274.492 49.0156 274.672 50.0391 274.766 51.1484C274.875 52.2422 274.93 53.5781 274.93 55.1562V58.2031C274.93 60.5156 275.055 61.9844 275.305 62.6094C275.461 63.0312 276.461 63.3125 278.305 63.4531C278.414 63.625 278.461 63.9219 278.445 64.3438C278.445 64.7656 278.398 65.0469 278.305 65.1875C276.164 64.9688 274.023 64.8594 271.883 64.8594C270.117 64.8594 268.164 64.9688 266.023 65.1875C265.93 65.0469 265.875 64.7656 265.859 64.3438C265.859 63.9219 265.914 63.625 266.023 63.4531C267.477 63.3438 268.289 63.0625 268.461 62.6094C268.711 61.9844 268.836 60.5156 268.836 58.2031V54.5C268.836 50.0938 267.789 47.8906 265.695 47.8906C264.805 47.8906 263.891 48.2031 262.953 48.8281C262.031 49.4531 261.57 50.0156 261.57 50.5156V58.2031C261.57 60.5156 261.695 61.9844 261.945 62.6094C262.117 63.0469 263.008 63.3281 264.617 63.4531C264.727 63.625 264.773 63.9219 264.758 64.3438C264.758 64.7656 264.711 65.0469 264.617 65.1875C262.477 64.9688 260.445 64.8594 258.523 64.8594C256.383 64.8594 254.242 64.9688 252.102 65.1875C252.008 65.0469 251.953 64.7656 251.938 64.3438C251.938 63.9219 251.992 63.625 252.102 63.4531C253.945 63.3125 254.945 63.0312 255.102 62.6094C255.352 61.9844 255.477 60.5156 255.477 58.2031V52.8125C255.477 50.7812 255.336 49.5 255.055 48.9688C254.898 48.6719 254.453 48.4453 253.719 48.2891C253 48.1172 252.461 48.0312 252.102 48.0312C252.023 47.9844 251.984 47.7344 251.984 47.2812C251.984 46.8125 252.039 46.5781 252.148 46.5781C253.773 46.4531 255.438 46.1406 257.141 45.6406C258.859 45.1406 260.242 44.625 261.289 44.0938C261.43 44.0938 261.594 44.1953 261.781 44.3984C261.984 44.6016 262.086 44.7656 262.086 44.8906C262.055 45 262 45.2734 261.922 45.7109C261.844 46.1484 261.773 46.5625 261.711 46.9531C261.648 47.3438 261.617 47.5469 261.617 47.5625C261.617 47.7188 261.633 47.8125 261.664 47.8438C261.727 47.8438 261.836 47.7656 261.992 47.6094C262.727 46.7812 263.75 45.9922 265.062 45.2422C266.391 44.4766 267.555 44.0938 268.555 44.0938ZM280.625 61.9062C280.625 60.9688 280.969 60.1641 281.656 59.4922C282.344 58.8203 283.172 58.4844 284.141 58.4844C285.109 58.4844 285.938 58.8438 286.625 59.5625C287.312 60.2656 287.656 61.0938 287.656 62.0469C287.656 62.9844 287.312 63.7969 286.625 64.4844C285.953 65.1719 285.141 65.5156 284.188 65.5156C283.203 65.5156 282.359 65.1641 281.656 64.4609C280.969 63.7578 280.625 62.9062 280.625 61.9062ZM300.477 50.5156V58.2031C300.477 60.5156 300.602 61.9844 300.852 62.6094C301.023 63.0469 301.914 63.3281 303.523 63.4531C303.633 63.625 303.68 63.9219 303.664 64.3438C303.664 64.7656 303.617 65.0469 303.523 65.1875C301.383 64.9688 299.352 64.8594 297.43 64.8594C295.289 64.8594 293.148 64.9688 291.008 65.1875C290.914 65.0469 290.859 64.7656 290.844 64.3438C290.844 63.9219 290.898 63.625 291.008 63.4531C292.852 63.3125 293.852 63.0312 294.008 62.6094C294.258 61.9844 294.383 60.5156 294.383 58.2031V52.8125C294.383 50.7812 294.242 49.5 293.961 48.9688C293.805 48.6719 293.359 48.4453 292.625 48.2891C291.906 48.1172 291.367 48.0312 291.008 48.0312C290.93 47.9844 290.891 47.7344 290.891 47.2812C290.891 46.8125 290.945 46.5781 291.055 46.5781C292.68 46.4531 294.344 46.1406 296.047 45.6406C297.766 45.1406 299.148 44.625 300.195 44.0938C300.352 44.1406 300.523 44.2656 300.711 44.4688C300.898 44.6719 300.992 44.8125 300.992 44.8906C300.93 45.0781 300.844 45.4922 300.734 46.1328C300.625 46.7578 300.555 47.2344 300.523 47.5625C300.492 48.25 300.477 49.2344 300.477 50.5156ZM294.57 38.5156C293.914 37.8594 293.586 37.0625 293.586 36.125C293.586 35.1875 293.914 34.3906 294.57 33.7344C295.227 33.0781 296.023 32.75 296.961 32.75C297.898 32.75 298.703 33.0781 299.375 33.7344C300.047 34.3906 300.383 35.1875 300.383 36.125C300.383 37.0625 300.047 37.8594 299.375 38.5156C298.703 39.1719 297.898 39.5 296.961 39.5C296.023 39.5 295.227 39.1719 294.57 38.5156ZM314.891 44C315.547 44 316.156 44.0469 316.719 44.1406C317.297 44.2188 317.969 44.3594 318.734 44.5625C319.5 44.75 319.969 44.8594 320.141 44.8906C320.344 45.75 320.555 46.8359 320.773 48.1484C321.008 49.4453 321.125 50.2812 321.125 50.6562C321.125 50.75 321.031 50.8281 320.844 50.8906C320.656 50.9531 320.469 50.9844 320.281 50.9844C320.062 50.9844 319.766 50.8594 319.391 50.6094C318.688 47.4531 317.031 45.875 314.422 45.875C313.625 45.875 312.977 46.0938 312.477 46.5312C311.992 46.9688 311.75 47.5938 311.75 48.4062C311.75 48.7969 311.82 49.1641 311.961 49.5078C312.117 49.8359 312.297 50.1172 312.5 50.3516C312.719 50.5703 313.008 50.7969 313.367 51.0312C313.742 51.2656 314.07 51.4531 314.352 51.5938C314.633 51.7188 315.008 51.8828 315.477 52.0859C315.945 52.2891 316.297 52.4531 316.531 52.5781C318.031 53.3281 319.039 53.9141 319.555 54.3359C320.914 55.4297 321.594 56.9531 321.594 58.9062C321.594 60.0312 321.344 61.0234 320.844 61.8828C320.344 62.7422 319.656 63.4219 318.781 63.9219C317.922 64.4062 316.953 64.7656 315.875 65C314.797 65.25 313.625 65.375 312.359 65.375C311.875 65.375 311.336 65.3281 310.742 65.2344C310.148 65.1562 309.672 65.0781 309.312 65C308.969 64.9219 308.492 64.8047 307.883 64.6484C307.273 64.4922 306.938 64.4062 306.875 64.3906C306.797 63.9219 306.711 62.8984 306.617 61.3203C306.539 59.7266 306.5 58.7188 306.5 58.2969C306.5 58.0781 306.734 57.9688 307.203 57.9688C307.391 57.9688 307.594 58.0156 307.812 58.1094C308.031 58.2031 308.172 58.3125 308.234 58.4375C308.391 59.4062 308.648 60.2422 309.008 60.9453C309.383 61.6328 309.82 62.1562 310.32 62.5156C310.82 62.8594 311.312 63.1094 311.797 63.2656C312.281 63.4219 312.781 63.5 313.297 63.5C314.094 63.5 314.734 63.25 315.219 62.75C315.719 62.25 315.969 61.6562 315.969 60.9688C315.969 60.5156 315.875 60.1172 315.688 59.7734C315.516 59.4141 315.242 59.1016 314.867 58.8359C314.508 58.5547 314.156 58.3203 313.812 58.1328C313.484 57.9453 313.031 57.7188 312.453 57.4531C311.891 57.1875 311.453 56.9688 311.141 56.7969C310.359 56.375 309.703 55.9766 309.172 55.6016C308.656 55.2266 308.148 54.7891 307.648 54.2891C307.164 53.7734 306.797 53.2031 306.547 52.5781C306.297 51.9375 306.172 51.2344 306.172 50.4688C306.172 49.3594 306.445 48.375 306.992 47.5156C307.555 46.6406 308.273 45.9609 309.148 45.4766C310.039 44.9766 310.969 44.6094 311.938 44.375C312.922 44.125 313.906 44 314.891 44ZM333.266 44.9375C333.266 44.9375 335.047 44.9375 338.609 44.9375C338.797 44.9375 338.891 45.1406 338.891 45.5469C338.891 45.75 338.773 46.0234 338.539 46.3672C338.305 46.7109 338.062 46.9688 337.812 47.1406H333.266V58.7656C333.266 60 333.469 60.9062 333.875 61.4844C334.281 62.0469 334.922 62.3281 335.797 62.3281C336.281 62.3281 336.766 62.1875 337.25 61.9062C337.75 61.625 338.094 61.3906 338.281 61.2031C338.5 61.4219 338.609 61.6406 338.609 61.8594C338.609 61.9688 338.562 62.1328 338.469 62.3516C338.375 62.5547 338.297 62.6875 338.234 62.75C337.984 63.0312 337.672 63.3359 337.297 63.6641C336.922 63.9766 336.336 64.3359 335.539 64.7422C334.758 65.1328 334 65.3281 333.266 65.3281C332.656 65.3281 332.07 65.2578 331.508 65.1172C330.961 64.9922 330.414 64.7656 329.867 64.4375C329.336 64.0938 328.875 63.6719 328.484 63.1719C328.094 62.6562 327.773 62 327.523 61.2031C327.289 60.4062 327.172 59.5 327.172 58.4844V47.1406H323.844C323.688 47.0781 323.609 46.875 323.609 46.5312C324.016 45.9688 324.516 45.4375 325.109 44.9375H327.172V42.4531C327.875 41.8594 328.859 40.8984 330.125 39.5703C331.391 38.2266 332.047 37.5312 332.094 37.4844C332.359 37.3281 332.609 37.2578 332.844 37.2734C333.094 37.2734 333.234 37.3438 333.266 37.4844V44.9375Z" fill="black"/>
<path d="M79.4409 39.7519C79.4432 43.1229 79.0103 46.4801 78.153 49.7403C77.3153 52.9381 76.0884 56.0212 74.5001 58.9202C73.6115 60.5306 72.6078 62.0747 71.4969 63.5405C71.4536 63.6156 71.4218 63.6575 71.4117 63.6849L71.4016 63.695C70.5363 64.8359 69.612 65.9309 68.6323 66.9754C67.2429 68.4529 65.7406 69.8199 64.1391 71.0644C64.1391 71.0644 52.6158 79.339 38.794 79.339L36.5257 79.3491L26.8246 79.4126V52.6699H39.7527C41.4551 52.6837 43.1418 52.3424 44.7051 51.6679C46.2462 51.0132 47.6483 50.0704 48.8359 48.8899C50.0203 47.6985 50.9609 46.2875 51.6052 44.736C52.2832 43.1628 52.6241 41.4648 52.6057 39.7519C52.6115 38.8833 52.5292 38.0164 52.3603 37.1645C52.3546 37.1547 52.3513 37.1439 52.3502 37.1327C52.1893 36.3129 51.9395 35.513 51.6052 34.7475C50.2959 31.6246 47.8145 29.1395 44.6935 27.8258C43.1346 27.1505 41.4515 26.8096 39.7527 26.8252H26.8246C26.8227 19.7116 23.9961 12.8898 18.9661 7.85961C13.9362 2.8294 7.11459 0.00241563 0.000976562 0.000119195H39.7527C43.319 -0.00869406 46.8697 0.471273 50.3057 1.42663C53.6179 2.35068 56.7963 3.70037 59.7614 5.44194C60.8269 6.07001 61.8593 6.7515 62.8613 7.4763L62.945 7.52828C67.4326 10.7852 71.1964 14.9369 73.9991 19.7215C75.7386 22.6916 77.0882 25.8736 78.0144 29.1888C78.969 32.6283 79.449 36.1823 79.4409 39.7519Z" fill="url(#paint0_linear)"/>
<path d="M75.139 97H46.4297L41.9047 86.5322L38.7904 79.3347C52.6122 79.3347 64.1355 71.06 64.1355 71.06L67.4361 78.8568L68.0137 80.2096C68.0137 80.2197 68.0252 80.2197 68.0252 80.2298L75.139 97Z" fill="url(#paint1_linear)"/>
<path d="M26.8246 26.825V96.9955H0.000976562V0C7.11459 0.00229644 13.9362 2.82929 18.9661 7.8595C23.9961 12.8897 26.8227 19.7114 26.8246 26.825Z" fill="url(#paint2_linear)"/>
<g style="mix-blend-mode:multiply" opacity="0.16">
<g style="mix-blend-mode:multiply" opacity="0.16">
<path d="M26.8246 26.825C26.8227 19.7114 23.9961 12.8897 18.9661 7.8595C13.9362 2.82929 7.11459 0.00229644 0.000976562 0H24.2906C29.7108 5.06931 34.9187 13.3757 36.2066 26.825H26.8246Z" fill="black"/>
</g>
</g>
<g style="mix-blend-mode:multiply" opacity="0.16">
<g style="mix-blend-mode:multiply" opacity="0.16">
<path d="M36.5263 52.6697V79.3446L26.8251 79.4081V52.6697H36.5263Z" fill="black"/>
</g>
</g>
<g style="mix-blend-mode:multiply" opacity="0.16">
<g style="mix-blend-mode:multiply" opacity="0.16">
<path d="M67.4404 78.8553C59.4959 83.0189 50.8284 85.6246 41.9047 86.5322L38.7904 79.3347C52.6122 79.3347 64.1355 71.06 64.1355 71.06L67.4404 78.8553Z" fill="black"/>
</g>
</g>
<g style="mix-blend-mode:multiply" opacity="0.25">
<g style="mix-blend-mode:multiply" opacity="0.25">
<path d="M79.4415 39.7517C79.4438 43.1228 79.0109 46.48 78.1536 49.7402C77.3159 52.938 76.089 56.021 74.5007 58.9201C73.6121 60.5304 72.6085 62.0746 71.4975 63.5404C71.6895 63.2314 72.1573 62.4864 72.7854 61.3472C73.9331 59.2714 74.9192 57.1102 75.7352 54.8831C76.8754 51.7659 77.6582 48.5292 78.0684 45.2354C78.2816 43.3903 78.381 41.5338 78.3658 39.6766C78.3471 37.7582 78.1907 35.8435 77.898 33.9475C77.6204 32.0512 77.1999 30.1785 76.6404 28.3454C76.0999 26.5679 75.4494 24.8256 74.6927 23.1288C73.9712 21.5399 73.1604 19.993 72.2642 18.4956C71.3979 17.0792 70.4969 15.7696 69.6118 14.6087C68.1726 12.7241 66.5882 10.9548 64.8732 9.31708C63.6286 8.11292 62.8619 7.47475 62.8619 7.47475L62.9456 7.52672C67.4334 10.7836 71.1972 14.9353 73.9997 19.7199C75.7393 22.69 77.0889 25.872 78.015 29.1872C78.9698 32.6273 79.4497 36.1817 79.4415 39.7517Z" fill="black"/>
</g>
</g>
<g style="mix-blend-mode:multiply" opacity="0.25">
<g style="mix-blend-mode:multiply" opacity="0.25">
<path d="M75.1387 97H53.7237C55.5126 96.7343 57.2914 96.5741 59.0803 96.4225C60.8693 96.2709 62.6481 96.1669 64.4225 96.0817C66.197 95.9965 68.0004 95.9547 69.7792 95.9215L73.4841 95.8897C73.1217 94.996 72.7621 94.1008 72.42 93.1955C71.8554 91.7805 71.3226 90.3641 70.8115 88.9261C70.3004 87.488 69.8008 86.0514 69.32 84.5946C68.8392 83.1377 68.4046 81.6881 68.0206 80.2183L75.1387 97Z" fill="black"/>
</g>
</g>
<g style="mix-blend-mode:screen" opacity="0.7">
<g style="mix-blend-mode:screen" opacity="0.7">
<path d="M1.11849 48.5057C1.10838 51.5378 1.09684 54.5698 1.07663 57.547C1.05641 60.5242 1.01163 63.4667 0.979868 66.3111C0.906232 71.9969 0.787847 77.3001 0.639132 81.8468C0.373466 90.943 0.000976562 96.9999 0.000976562 96.9999V0C0.000976562 0 0.373466 6.06411 0.639132 15.1531C0.783516 19.7012 0.906232 25.0029 0.979868 30.6902C1.01163 33.5331 1.07663 36.4728 1.07663 39.4543C1.07663 42.4358 1.10549 45.4708 1.11849 48.5057Z" fill="white"/>
</g>
</g>
<g style="mix-blend-mode:multiply" opacity="0.25">
<g style="mix-blend-mode:multiply" opacity="0.25">
<path d="M53.0959 41.8395C53.0557 42.6356 52.9273 43.425 52.7133 44.193C52.5964 44.5972 52.4462 45.0448 52.3076 45.4274C52.1463 45.858 51.9582 46.278 51.7445 46.685C51.3028 47.549 50.7595 48.357 50.126 49.0919C49.4703 49.8472 48.7344 50.5288 47.9313 51.1248C47.1102 51.6993 46.2327 52.1885 45.3122 52.5845C44.4214 52.962 43.4881 53.2299 42.5328 53.383C41.6457 53.5265 40.7449 53.5658 39.8487 53.4999C39.0402 53.4581 38.2952 53.383 37.592 53.3079C34.8126 53.0422 32.9587 52.6697 32.9587 52.6697H39.7534C41.4559 52.6836 43.1426 52.3424 44.7058 51.6677C46.2469 51.0131 47.6491 50.0702 48.8366 48.8898C50.021 47.6983 50.9617 46.2874 51.6059 44.7358C52.2839 43.1626 52.6248 41.4647 52.6065 39.7517C52.6122 38.8831 52.5299 38.0164 52.361 37.1644C52.5314 37.553 52.6671 37.956 52.7667 38.3685C53.0467 39.5029 53.1577 40.6726 53.0959 41.8395Z" fill="black"/>
</g>
</g>
<g style="mix-blend-mode:screen" opacity="0.7">
<g style="mix-blend-mode:screen" opacity="0.7">
<path d="M26.825 26.8246V96.9951C26.825 96.9951 26.7297 95.2394 26.6229 92.1712C26.516 89.1031 26.3341 84.7066 26.2186 79.4467C26.0742 74.1854 25.963 68.0404 25.888 61.4608C25.8562 58.1703 25.8244 54.773 25.7927 51.3121C25.7609 47.8512 25.771 44.3485 25.7609 40.8443C25.7508 37.3401 25.7811 33.8157 25.8028 30.3663C25.7927 28.6511 25.8461 26.9011 25.7927 25.2869C25.7174 23.6807 25.4893 22.0852 25.1112 20.5223C24.3955 17.5409 23.1704 14.7055 21.49 12.1408C18.6566 7.84438 14.6561 4.44583 9.95815 2.34433C8.29007 1.59573 6.54788 1.02468 4.76033 0.640597C3.60334 0.391525 2.4335 0.206431 1.25613 0.086163C0.436032 0.032741 0 0.000976562 0 0.000976562C7.11361 0.003273 13.9352 2.83025 18.9651 7.86048C23.9951 12.8907 26.8217 19.7124 26.8236 26.8261L26.825 26.8246Z" fill="white"/>
</g>
</g>
<defs>
<linearGradient id="paint0_linear" x1="78.2494" y1="39.7062" x2="10.7254" y2="39.7062" gradientUnits="userSpaceOnUse">
<stop stop-color="#00D1B2"/>
<stop offset="1" stop-color="#3273DC"/>
</linearGradient>
<linearGradient id="paint1_linear" x1="53.0754" y1="77.0521" x2="56.6973" y2="97.3524" gradientUnits="userSpaceOnUse">
<stop stop-color="#00D1B2"/>
<stop offset="1" stop-color="#FFDD57"/>
</linearGradient>
<linearGradient id="paint2_linear" x1="13.4128" y1="3.10386" x2="13.4128" y2="97.1896" gradientUnits="userSpaceOnUse">
<stop stop-color="#FFDD57"/>
<stop offset="1" stop-color="#FF3860"/>
</linearGradient>
</defs>
</svg>
