<svg width="322" height="85" viewBox="0 0 322 85" fill="none" xmlns="http://www.w3.org/2000/svg">
<path d="M72.6406 40.7812C72.8438 40.7969 73.7578 40.7578 75.3828 40.6641C77.0234 40.5703 78.125 40.4844 78.6875 40.4062C79.0938 40.375 79.2969 40.125 79.2969 39.6562C79.2969 38.4062 79.0625 37.3125 78.5938 36.375C78.125 35.4375 77.4062 34.9688 76.4375 34.9688C75.7969 34.9688 75.2109 35.1953 74.6797 35.6484C74.1641 36.0859 73.7656 36.6328 73.4844 37.2891C73.2031 37.9453 72.9922 38.5781 72.8516 39.1875C72.7109 39.7969 72.6406 40.3281 72.6406 40.7812ZM72.5938 42.6562C72.5938 43.9062 72.7578 45.0156 73.0859 45.9844C73.4141 46.9531 73.8125 47.7109 74.2812 48.2578C74.7656 48.8047 75.3203 49.2578 75.9453 49.6172C76.5703 49.9609 77.1406 50.1953 77.6562 50.3203C78.1719 50.4297 78.6719 50.4844 79.1562 50.4844C81.2344 50.4844 82.9844 49.7031 84.4062 48.1406C84.5625 48.1875 84.6953 48.3047 84.8047 48.4922C84.9141 48.6641 84.9688 48.8281 84.9688 48.9844C84.9688 49.4375 84.9219 49.7344 84.8281 49.875C84.5781 50.2656 84.2188 50.6953 83.75 51.1641C83.2812 51.6172 82.6875 52.1016 81.9688 52.6172C81.25 53.1328 80.3906 53.5625 79.3906 53.9062C78.4062 54.25 77.3906 54.4219 76.3438 54.4219C74.5781 54.4219 72.9531 54.0391 71.4688 53.2734C69.9844 52.5078 68.7812 51.375 67.8594 49.875C66.9531 48.3594 66.5 46.6094 66.5 44.625C66.5 42.6875 66.9844 40.8281 67.9531 39.0469C68.9375 37.25 70.2344 35.8047 71.8438 34.7109C73.4688 33.6016 75.1562 33.0469 76.9062 33.0469C78.0781 33.0469 79.1406 33.2109 80.0938 33.5391C81.0625 33.8516 81.8438 34.2578 82.4375 34.7578C83.0469 35.2578 83.5547 35.8281 83.9609 36.4688C84.3828 37.1094 84.6797 37.7344 84.8516 38.3438C85.0234 38.9531 85.1094 39.5469 85.1094 40.125C85.1094 40.6406 84.9844 41.0938 84.7344 41.4844C84.4844 41.875 84.1875 42.0781 83.8438 42.0938C81.0312 42.3438 77.2812 42.5312 72.5938 42.6562ZM101.82 33C103.648 33 105.273 33.4766 106.695 34.4297C108.117 35.3828 109.188 36.6172 109.906 38.1328C110.641 39.6484 111.008 41.2812 111.008 43.0312C111.008 44.75 110.648 46.3438 109.93 47.8125C109.227 49.2812 108.312 50.4844 107.188 51.4219C106.062 52.3438 104.828 53.0703 103.484 53.6016C102.156 54.1172 100.836 54.375 99.5234 54.375C99.1328 54.375 98.7266 54.3359 98.3047 54.2578C97.8828 54.1953 97.5312 54.125 97.25 54.0469C96.9844 53.9844 96.8359 53.9531 96.8047 53.9531C96.7109 53.9531 96.6641 54.2031 96.6641 54.7031V57.2344C96.6641 59.5469 96.7891 61.0156 97.0391 61.6406C97.1953 62.0625 98.1953 62.3438 100.039 62.4844C100.148 62.6562 100.195 62.9531 100.18 63.375C100.18 63.7969 100.133 64.0781 100.039 64.2188C97.8984 64 95.7578 63.8906 93.6172 63.8906C91.4766 63.8906 89.3359 64 87.1953 64.2188C87.1016 64.0781 87.0469 63.7969 87.0312 63.375C87.0312 62.9531 87.0859 62.6562 87.1953 62.4844C89.0391 62.3438 90.0391 62.0625 90.1953 61.6406C90.4453 61.0156 90.5703 59.5469 90.5703 57.2344V41.8125C90.5703 39.7812 90.4297 38.5 90.1484 37.9688C89.9922 37.6719 89.5469 37.4453 88.8125 37.2891C88.0938 37.1172 87.5547 37.0312 87.1953 37.0312C87.1172 36.9844 87.0781 36.7344 87.0781 36.2812C87.0781 35.8125 87.1328 35.5781 87.2422 35.5781C88.8672 35.4531 90.5312 35.1406 92.2344 34.6406C93.9531 34.1406 95.3359 33.625 96.3828 33.0938C96.5391 33.1406 96.7109 33.2656 96.8984 33.4688C97.0859 33.6719 97.1797 33.8125 97.1797 33.8906C97.1797 33.9062 97.1328 34.0234 97.0391 34.2422C96.9453 34.4453 96.875 34.6484 96.8281 34.8516C96.7812 35.0547 96.7578 35.2656 96.7578 35.4844C96.7578 35.7031 96.7969 35.8125 96.875 35.8125C96.8906 35.8125 96.9141 35.7969 96.9453 35.7656C97.6797 34.9844 98.5 34.3281 99.4062 33.7969C100.312 33.2656 101.117 33 101.82 33ZM99.2422 36.4219C98.7109 36.4219 98.2344 36.5234 97.8125 36.7266C97.3906 36.9141 97.0938 37.1016 96.9219 37.2891C96.75 37.4766 96.6641 37.625 96.6641 37.7344V49.5C96.6641 50.3906 96.9766 51.0859 97.6016 51.5859C98.2266 52.0703 98.9766 52.3125 99.8516 52.3125C100.273 52.3125 100.719 52.1641 101.188 51.8672C101.672 51.5703 102.148 51.1328 102.617 50.5547C103.086 49.9766 103.477 49.1719 103.789 48.1406C104.102 47.1094 104.258 45.9531 104.258 44.6719C104.258 39.1719 102.586 36.4219 99.2422 36.4219ZM129.148 41.8125C129.148 39.7812 129.008 38.5 128.727 37.9688C128.57 37.6719 128.125 37.4453 127.391 37.2891C126.672 37.1172 126.133 37.0312 125.773 37.0312C125.695 36.9844 125.656 36.7344 125.656 36.2812C125.656 35.8125 125.711 35.5781 125.82 35.5781C127.445 35.4531 129.109 35.1406 130.812 34.6406C132.531 34.1406 133.914 33.625 134.961 33.0938C135.117 33.1406 135.289 33.2656 135.477 33.4688C135.664 33.6719 135.758 33.8125 135.758 33.8906C135.695 34.0781 135.609 34.4922 135.5 35.1328C135.391 35.7578 135.32 36.2344 135.289 36.5625C135.258 37.25 135.242 38.2344 135.242 39.5156V48.9375C135.242 49.8125 135.383 50.4062 135.664 50.7188C135.945 51.0312 136.648 51.1875 137.773 51.1875C137.867 51.2812 137.914 51.4844 137.914 51.7969C137.914 52.1094 137.82 52.4062 137.633 52.6875C136.836 52.7656 135.805 52.9453 134.539 53.2266C133.273 53.4922 132.164 53.7422 131.211 53.9766C130.273 54.2109 129.727 54.3281 129.57 54.3281C129.461 54.3281 129.359 54.2188 129.266 54C129.188 53.7969 129.148 53.5312 129.148 53.2031V52.4531C129.148 52.2344 129.102 52.1562 129.008 52.2188C128.633 52.4688 128.188 52.7266 127.672 52.9922C127.172 53.2578 126.414 53.5312 125.398 53.8125C124.398 54.0938 123.398 54.2344 122.398 54.2344C121.305 54.2344 120.352 54.0078 119.539 53.5547C118.742 53.1016 118.117 52.4766 117.664 51.6797C117.227 50.8672 116.906 49.9844 116.703 49.0312C116.5 48.0625 116.398 47 116.398 45.8438V41.8125C116.398 39.7812 116.258 38.5 115.977 37.9688C115.82 37.6719 115.375 37.4453 114.641 37.2891C113.922 37.1172 113.383 37.0312 113.023 37.0312C112.945 36.9844 112.906 36.7344 112.906 36.2812C112.906 35.8125 112.961 35.5781 113.07 35.5781C114.695 35.4531 116.359 35.1406 118.062 34.6406C119.781 34.1406 121.164 33.625 122.211 33.0938C122.367 33.1406 122.539 33.2656 122.727 33.4688C122.914 33.6719 123.008 33.8125 123.008 33.8906C122.945 34.0781 122.859 34.4922 122.75 35.1328C122.641 35.7578 122.57 36.2344 122.539 36.5625C122.508 37.25 122.492 38.2344 122.492 39.5156V43.7344C122.492 46.375 122.75 48.3125 123.266 49.5469C123.797 50.7656 124.758 51.375 126.148 51.375C126.789 51.375 127.445 51.1797 128.117 50.7891C128.805 50.3828 129.148 50 129.148 49.6406V41.8125ZM148.953 33.9375C148.953 33.9375 150.734 33.9375 154.297 33.9375C154.484 33.9375 154.578 34.1406 154.578 34.5469C154.578 34.75 154.461 35.0234 154.227 35.3672C153.992 35.7109 153.75 35.9688 153.5 36.1406H148.953V47.7656C148.953 49 149.156 49.9062 149.562 50.4844C149.969 51.0469 150.609 51.3281 151.484 51.3281C151.969 51.3281 152.453 51.1875 152.938 50.9062C153.438 50.625 153.781 50.3906 153.969 50.2031C154.188 50.4219 154.297 50.6406 154.297 50.8594C154.297 50.9688 154.25 51.1328 154.156 51.3516C154.062 51.5547 153.984 51.6875 153.922 51.75C153.672 52.0312 153.359 52.3359 152.984 52.6641C152.609 52.9766 152.023 53.3359 151.227 53.7422C150.445 54.1328 149.688 54.3281 148.953 54.3281C148.344 54.3281 147.758 54.2578 147.195 54.1172C146.648 53.9922 146.102 53.7656 145.555 53.4375C145.023 53.0938 144.562 52.6719 144.172 52.1719C143.781 51.6562 143.461 51 143.211 50.2031C142.977 49.4062 142.859 48.5 142.859 47.4844V36.1406H139.531C139.375 36.0781 139.297 35.875 139.297 35.5312C139.703 34.9688 140.203 34.4375 140.797 33.9375H142.859V31.4531C143.562 30.8594 144.547 29.8984 145.812 28.5703C147.078 27.2266 147.734 26.5312 147.781 26.4844C148.047 26.3281 148.297 26.2578 148.531 26.2734C148.781 26.2734 148.922 26.3438 148.953 26.4844V33.9375ZM165.688 51.0938C166.219 51.0938 166.672 50.9766 167.047 50.7422C167.422 50.4922 167.609 50.2812 167.609 50.1094V43.5469C167.516 43.5938 167.07 43.7969 166.273 44.1562C165.477 44.5156 164.891 44.8125 164.516 45.0469C163.328 45.8125 162.766 46.8594 162.828 48.1875C162.844 49.1094 163.148 49.8281 163.742 50.3438C164.336 50.8438 164.984 51.0938 165.688 51.0938ZM166.672 32.9531C168.641 32.9531 170.305 33.6328 171.664 34.9922C173.023 36.3359 173.703 38.0469 173.703 40.125V48.8906C173.703 49.5 173.805 49.9766 174.008 50.3203C174.227 50.6484 174.5 50.8125 174.828 50.8125C174.984 50.8125 175.141 50.7891 175.297 50.7422C175.453 50.6953 175.578 50.6562 175.672 50.625C175.766 50.5625 175.875 50.5 176 50.4375L176.188 50.3438C176.406 50.4531 176.516 50.7188 176.516 51.1406C176.516 51.4062 176.453 51.6406 176.328 51.8438C176 52.1406 175.625 52.4531 175.203 52.7812C174.797 53.0938 174.227 53.4219 173.492 53.7656C172.758 54.1094 172.094 54.2812 171.5 54.2812C170.75 54.2812 170.023 54.0391 169.32 53.5547C168.617 53.0703 168.156 52.5312 167.938 51.9375C167.547 52.2812 166.75 52.7734 165.547 53.4141C164.344 54.0547 163.375 54.375 162.641 54.375C160.922 54.375 159.469 53.7891 158.281 52.6172C157.094 51.4297 156.5 50.1094 156.5 48.6562C156.5 47.7812 156.742 46.9922 157.227 46.2891C157.727 45.5703 158.297 45.1094 158.938 44.9062C159.453 44.7344 160.242 44.4531 161.305 44.0625C162.367 43.6562 163.539 43.2031 164.82 42.7031C166.117 42.2031 167.047 41.8438 167.609 41.625V40.6406V39.4219C167.609 38.2031 167.344 37.1172 166.812 36.1641C166.297 35.2109 165.641 34.7344 164.844 34.7344C164.5 34.7344 164.188 34.8125 163.906 34.9688C163.641 35.1094 163.422 35.2891 163.25 35.5078C163.078 35.7109 162.914 36.0078 162.758 36.3984C162.617 36.7891 162.5 37.1406 162.406 37.4531C162.328 37.75 162.234 38.1562 162.125 38.6719C161.828 40.0469 160.953 40.7344 159.5 40.7344C158.844 40.7344 158.273 40.5234 157.789 40.1016C157.305 39.6641 157.062 39.125 157.062 38.4844C157.062 37.9688 157.281 37.3281 157.719 36.5625C158.312 35.9688 159.508 35.2188 161.305 34.3125C163.117 33.4062 164.906 32.9531 166.672 32.9531ZM187.109 33.9375C187.109 33.9375 188.891 33.9375 192.453 33.9375C192.641 33.9375 192.734 34.1406 192.734 34.5469C192.734 34.75 192.617 35.0234 192.383 35.3672C192.148 35.7109 191.906 35.9688 191.656 36.1406H187.109V47.7656C187.109 49 187.312 49.9062 187.719 50.4844C188.125 51.0469 188.766 51.3281 189.641 51.3281C190.125 51.3281 190.609 51.1875 191.094 50.9062C191.594 50.625 191.938 50.3906 192.125 50.2031C192.344 50.4219 192.453 50.6406 192.453 50.8594C192.453 50.9688 192.406 51.1328 192.312 51.3516C192.219 51.5547 192.141 51.6875 192.078 51.75C191.828 52.0312 191.516 52.3359 191.141 52.6641C190.766 52.9766 190.18 53.3359 189.383 53.7422C188.602 54.1328 187.844 54.3281 187.109 54.3281C186.5 54.3281 185.914 54.2578 185.352 54.1172C184.805 53.9922 184.258 53.7656 183.711 53.4375C183.18 53.0938 182.719 52.6719 182.328 52.1719C181.938 51.6562 181.617 51 181.367 50.2031C181.133 49.4062 181.016 48.5 181.016 47.4844V36.1406H177.688C177.531 36.0781 177.453 35.875 177.453 35.5312C177.859 34.9688 178.359 34.4375 178.953 33.9375H181.016V31.4531C181.719 30.8594 182.703 29.8984 183.969 28.5703C185.234 27.2266 185.891 26.5312 185.938 26.4844C186.203 26.3281 186.453 26.2578 186.688 26.2734C186.938 26.2734 187.078 26.3438 187.109 26.4844V33.9375ZM204.055 39.5156V47.2031C204.055 49.5156 204.18 50.9844 204.43 51.6094C204.602 52.0469 205.492 52.3281 207.102 52.4531C207.211 52.625 207.258 52.9219 207.242 53.3438C207.242 53.7656 207.195 54.0469 207.102 54.1875C204.961 53.9688 202.93 53.8594 201.008 53.8594C198.867 53.8594 196.727 53.9688 194.586 54.1875C194.492 54.0469 194.438 53.7656 194.422 53.3438C194.422 52.9219 194.477 52.625 194.586 52.4531C196.43 52.3125 197.43 52.0312 197.586 51.6094C197.836 50.9844 197.961 49.5156 197.961 47.2031V41.8125C197.961 39.7812 197.82 38.5 197.539 37.9688C197.383 37.6719 196.938 37.4453 196.203 37.2891C195.484 37.1172 194.945 37.0312 194.586 37.0312C194.508 36.9844 194.469 36.7344 194.469 36.2812C194.469 35.8125 194.523 35.5781 194.633 35.5781C196.258 35.4531 197.922 35.1406 199.625 34.6406C201.344 34.1406 202.727 33.625 203.773 33.0938C203.93 33.1406 204.102 33.2656 204.289 33.4688C204.477 33.6719 204.57 33.8125 204.57 33.8906C204.508 34.0781 204.422 34.4922 204.312 35.1328C204.203 35.7578 204.133 36.2344 204.102 36.5625C204.07 37.25 204.055 38.2344 204.055 39.5156ZM198.148 27.5156C197.492 26.8594 197.164 26.0625 197.164 25.125C197.164 24.1875 197.492 23.3906 198.148 22.7344C198.805 22.0781 199.602 21.75 200.539 21.75C201.477 21.75 202.281 22.0781 202.953 22.7344C203.625 23.3906 203.961 24.1875 203.961 25.125C203.961 26.0625 203.625 26.8594 202.953 27.5156C202.281 28.1719 201.477 28.5 200.539 28.5C199.602 28.5 198.805 28.1719 198.148 27.5156ZM219.688 34.9688C218.875 34.9688 218.203 35.2109 217.672 35.6953C217.141 36.1641 216.758 36.8359 216.523 37.7109C216.289 38.5703 216.133 39.3906 216.055 40.1719C215.977 40.9531 215.938 41.8594 215.938 42.8906C215.938 44.375 216.094 45.8125 216.406 47.2031C216.719 48.5781 217.25 49.7812 218 50.8125C218.766 51.8438 219.688 52.3594 220.766 52.3594C221.422 52.3594 221.992 52.1953 222.477 51.8672C222.961 51.5234 223.328 51.1016 223.578 50.6016C223.844 50.1016 224.055 49.4766 224.211 48.7266C224.367 47.9766 224.461 47.2891 224.492 46.6641C224.539 46.0391 224.562 45.3281 224.562 44.5312C224.562 43.0312 224.398 41.5859 224.07 40.1953C223.758 38.7891 223.219 37.5703 222.453 36.5391C221.688 35.4922 220.766 34.9688 219.688 34.9688ZM220.203 33.0469C223.422 33.0469 226.062 34.0312 228.125 36C230.188 37.9688 231.219 40.4531 231.219 43.4531C231.219 45.4062 230.742 47.2188 229.789 48.8906C228.836 50.5469 227.516 51.8672 225.828 52.8516C224.156 53.8359 222.312 54.3281 220.297 54.3281C217.078 54.3281 214.438 53.3281 212.375 51.3281C210.312 49.3125 209.281 46.8125 209.281 43.8281C209.281 40.8594 210.336 38.3203 212.445 36.2109C214.57 34.1016 217.156 33.0469 220.203 33.0469ZM250.555 33.0938C251.617 33.0938 252.523 33.25 253.273 33.5625C254.023 33.8594 254.633 34.2891 255.102 34.8516C255.586 35.3984 255.961 36.1406 256.227 37.0781C256.492 38.0156 256.672 39.0391 256.766 40.1484C256.875 41.2422 256.93 42.5781 256.93 44.1562V47.2031C256.93 49.5156 257.055 50.9844 257.305 51.6094C257.461 52.0312 258.461 52.3125 260.305 52.4531C260.414 52.625 260.461 52.9219 260.445 53.3438C260.445 53.7656 260.398 54.0469 260.305 54.1875C258.164 53.9688 256.023 53.8594 253.883 53.8594C252.117 53.8594 250.164 53.9688 248.023 54.1875C247.93 54.0469 247.875 53.7656 247.859 53.3438C247.859 52.9219 247.914 52.625 248.023 52.4531C249.477 52.3438 250.289 52.0625 250.461 51.6094C250.711 50.9844 250.836 49.5156 250.836 47.2031V43.5C250.836 39.0938 249.789 36.8906 247.695 36.8906C246.805 36.8906 245.891 37.2031 244.953 37.8281C244.031 38.4531 243.57 39.0156 243.57 39.5156V47.2031C243.57 49.5156 243.695 50.9844 243.945 51.6094C244.117 52.0469 245.008 52.3281 246.617 52.4531C246.727 52.625 246.773 52.9219 246.758 53.3438C246.758 53.7656 246.711 54.0469 246.617 54.1875C244.477 53.9688 242.445 53.8594 240.523 53.8594C238.383 53.8594 236.242 53.9688 234.102 54.1875C234.008 54.0469 233.953 53.7656 233.938 53.3438C233.938 52.9219 233.992 52.625 234.102 52.4531C235.945 52.3125 236.945 52.0312 237.102 51.6094C237.352 50.9844 237.477 49.5156 237.477 47.2031V41.8125C237.477 39.7812 237.336 38.5 237.055 37.9688C236.898 37.6719 236.453 37.4453 235.719 37.2891C235 37.1172 234.461 37.0312 234.102 37.0312C234.023 36.9844 233.984 36.7344 233.984 36.2812C233.984 35.8125 234.039 35.5781 234.148 35.5781C235.773 35.4531 237.438 35.1406 239.141 34.6406C240.859 34.1406 242.242 33.625 243.289 33.0938C243.43 33.0938 243.594 33.1953 243.781 33.3984C243.984 33.6016 244.086 33.7656 244.086 33.8906C244.055 34 244 34.2734 243.922 34.7109C243.844 35.1484 243.773 35.5625 243.711 35.9531C243.648 36.3438 243.617 36.5469 243.617 36.5625C243.617 36.7188 243.633 36.8125 243.664 36.8438C243.727 36.8438 243.836 36.7656 243.992 36.6094C244.727 35.7812 245.75 34.9922 247.062 34.2422C248.391 33.4766 249.555 33.0938 250.555 33.0938ZM262.625 50.9062C262.625 49.9688 262.969 49.1641 263.656 48.4922C264.344 47.8203 265.172 47.4844 266.141 47.4844C267.109 47.4844 267.938 47.8438 268.625 48.5625C269.312 49.2656 269.656 50.0938 269.656 51.0469C269.656 51.9844 269.312 52.7969 268.625 53.4844C267.953 54.1719 267.141 54.5156 266.188 54.5156C265.203 54.5156 264.359 54.1641 263.656 53.4609C262.969 52.7578 262.625 51.9062 262.625 50.9062ZM282.477 39.5156V47.2031C282.477 49.5156 282.602 50.9844 282.852 51.6094C283.023 52.0469 283.914 52.3281 285.523 52.4531C285.633 52.625 285.68 52.9219 285.664 53.3438C285.664 53.7656 285.617 54.0469 285.523 54.1875C283.383 53.9688 281.352 53.8594 279.43 53.8594C277.289 53.8594 275.148 53.9688 273.008 54.1875C272.914 54.0469 272.859 53.7656 272.844 53.3438C272.844 52.9219 272.898 52.625 273.008 52.4531C274.852 52.3125 275.852 52.0312 276.008 51.6094C276.258 50.9844 276.383 49.5156 276.383 47.2031V41.8125C276.383 39.7812 276.242 38.5 275.961 37.9688C275.805 37.6719 275.359 37.4453 274.625 37.2891C273.906 37.1172 273.367 37.0312 273.008 37.0312C272.93 36.9844 272.891 36.7344 272.891 36.2812C272.891 35.8125 272.945 35.5781 273.055 35.5781C274.68 35.4531 276.344 35.1406 278.047 34.6406C279.766 34.1406 281.148 33.625 282.195 33.0938C282.352 33.1406 282.523 33.2656 282.711 33.4688C282.898 33.6719 282.992 33.8125 282.992 33.8906C282.93 34.0781 282.844 34.4922 282.734 35.1328C282.625 35.7578 282.555 36.2344 282.523 36.5625C282.492 37.25 282.477 38.2344 282.477 39.5156ZM276.57 27.5156C275.914 26.8594 275.586 26.0625 275.586 25.125C275.586 24.1875 275.914 23.3906 276.57 22.7344C277.227 22.0781 278.023 21.75 278.961 21.75C279.898 21.75 280.703 22.0781 281.375 22.7344C282.047 23.3906 282.383 24.1875 282.383 25.125C282.383 26.0625 282.047 26.8594 281.375 27.5156C280.703 28.1719 279.898 28.5 278.961 28.5C278.023 28.5 277.227 28.1719 276.57 27.5156ZM296.891 33C297.547 33 298.156 33.0469 298.719 33.1406C299.297 33.2188 299.969 33.3594 300.734 33.5625C301.5 33.75 301.969 33.8594 302.141 33.8906C302.344 34.75 302.555 35.8359 302.773 37.1484C303.008 38.4453 303.125 39.2812 303.125 39.6562C303.125 39.75 303.031 39.8281 302.844 39.8906C302.656 39.9531 302.469 39.9844 302.281 39.9844C302.062 39.9844 301.766 39.8594 301.391 39.6094C300.688 36.4531 299.031 34.875 296.422 34.875C295.625 34.875 294.977 35.0938 294.477 35.5312C293.992 35.9688 293.75 36.5938 293.75 37.4062C293.75 37.7969 293.82 38.1641 293.961 38.5078C294.117 38.8359 294.297 39.1172 294.5 39.3516C294.719 39.5703 295.008 39.7969 295.367 40.0312C295.742 40.2656 296.07 40.4531 296.352 40.5938C296.633 40.7188 297.008 40.8828 297.477 41.0859C297.945 41.2891 298.297 41.4531 298.531 41.5781C300.031 42.3281 301.039 42.9141 301.555 43.3359C302.914 44.4297 303.594 45.9531 303.594 47.9062C303.594 49.0312 303.344 50.0234 302.844 50.8828C302.344 51.7422 301.656 52.4219 300.781 52.9219C299.922 53.4062 298.953 53.7656 297.875 54C296.797 54.25 295.625 54.375 294.359 54.375C293.875 54.375 293.336 54.3281 292.742 54.2344C292.148 54.1562 291.672 54.0781 291.312 54C290.969 53.9219 290.492 53.8047 289.883 53.6484C289.273 53.4922 288.938 53.4062 288.875 53.3906C288.797 52.9219 288.711 51.8984 288.617 50.3203C288.539 48.7266 288.5 47.7188 288.5 47.2969C288.5 47.0781 288.734 46.9688 289.203 46.9688C289.391 46.9688 289.594 47.0156 289.812 47.1094C290.031 47.2031 290.172 47.3125 290.234 47.4375C290.391 48.4062 290.648 49.2422 291.008 49.9453C291.383 50.6328 291.82 51.1562 292.32 51.5156C292.82 51.8594 293.312 52.1094 293.797 52.2656C294.281 52.4219 294.781 52.5 295.297 52.5C296.094 52.5 296.734 52.25 297.219 51.75C297.719 51.25 297.969 50.6562 297.969 49.9688C297.969 49.5156 297.875 49.1172 297.688 48.7734C297.516 48.4141 297.242 48.1016 296.867 47.8359C296.508 47.5547 296.156 47.3203 295.812 47.1328C295.484 46.9453 295.031 46.7188 294.453 46.4531C293.891 46.1875 293.453 45.9688 293.141 45.7969C292.359 45.375 291.703 44.9766 291.172 44.6016C290.656 44.2266 290.148 43.7891 289.648 43.2891C289.164 42.7734 288.797 42.2031 288.547 41.5781C288.297 40.9375 288.172 40.2344 288.172 39.4688C288.172 38.3594 288.445 37.375 288.992 36.5156C289.555 35.6406 290.273 34.9609 291.148 34.4766C292.039 33.9766 292.969 33.6094 293.938 33.375C294.922 33.125 295.906 33 296.891 33ZM315.266 33.9375C315.266 33.9375 317.047 33.9375 320.609 33.9375C320.797 33.9375 320.891 34.1406 320.891 34.5469C320.891 34.75 320.773 35.0234 320.539 35.3672C320.305 35.7109 320.062 35.9688 319.812 36.1406H315.266V47.7656C315.266 49 315.469 49.9062 315.875 50.4844C316.281 51.0469 316.922 51.3281 317.797 51.3281C318.281 51.3281 318.766 51.1875 319.25 50.9062C319.75 50.625 320.094 50.3906 320.281 50.2031C320.5 50.4219 320.609 50.6406 320.609 50.8594C320.609 50.9688 320.562 51.1328 320.469 51.3516C320.375 51.5547 320.297 51.6875 320.234 51.75C319.984 52.0312 319.672 52.3359 319.297 52.6641C318.922 52.9766 318.336 53.3359 317.539 53.7422C316.758 54.1328 316 54.3281 315.266 54.3281C314.656 54.3281 314.07 54.2578 313.508 54.1172C312.961 53.9922 312.414 53.7656 311.867 53.4375C311.336 53.0938 310.875 52.6719 310.484 52.1719C310.094 51.6562 309.773 51 309.523 50.2031C309.289 49.4062 309.172 48.5 309.172 47.4844V36.1406H305.844C305.688 36.0781 305.609 35.875 305.609 35.5312C306.016 34.9688 306.516 34.4375 307.109 33.9375H309.172V31.4531C309.875 30.8594 310.859 29.8984 312.125 28.5703C313.391 27.2266 314.047 26.5312 314.094 26.4844C314.359 26.3281 314.609 26.2578 314.844 26.2734C315.094 26.2734 315.234 26.3438 315.266 26.4844V33.9375Z" fill="black"/>
<path d="M64.9996 37.5254C65.0015 40.2837 64.6473 43.0306 63.9458 45.6981C63.2604 48.3146 62.2566 50.8372 60.957 53.2092C60.23 54.5268 59.4087 55.7903 58.4998 56.9896C58.4643 57.051 58.4383 57.0853 58.43 57.1077L58.4218 57.116C57.7138 58.0495 56.9575 58.9454 56.1559 59.8C55.0191 61.0089 53.7899 62.1275 52.4795 63.1457C52.4795 63.1457 43.0511 69.9161 31.7419 69.9161L29.8859 69.9243L21.9484 69.9763V48.0951H32.5263C33.9192 48.1064 35.2993 47.8272 36.5784 47.2752C37.8394 46.7396 38.9866 45.9682 39.9582 45.0023C40.9273 44.0274 41.697 42.873 42.2241 41.6035C42.7789 40.3163 43.0578 38.927 43.0428 37.5254C43.0475 36.8147 42.9802 36.1054 42.842 35.4084C42.8373 35.4004 42.8346 35.3915 42.8337 35.3824C42.7021 34.7117 42.4977 34.0572 42.2241 33.4308C41.1528 30.8756 39.1225 28.8423 36.5689 27.7674C35.2934 27.2148 33.9163 26.9359 32.5263 26.9487H21.9484C21.9468 21.1282 19.6341 15.5466 15.5184 11.4308C11.4029 7.31505 5.82141 5.00198 0.000976562 5.0001H32.5263C35.4443 4.99289 38.3495 5.3856 41.1609 6.16728C43.8709 6.92335 46.4716 8.02768 48.8976 9.45266C49.7695 9.96655 50.6141 10.5242 51.434 11.1172L51.5025 11.1597C55.1743 13.8246 58.2539 17.2216 60.5471 21.1364C61.9704 23.5666 63.0746 26.17 63.8324 28.8826C64.6135 31.6968 65.0062 34.6047 64.9996 37.5254Z" fill="url(#paint0_linear)"/>
<path d="M61.4796 84.3665H37.9893L34.2869 75.8016L31.7387 69.9125C43.0479 69.9125 52.4764 63.1421 52.4764 63.1421L55.177 69.5215L55.6495 70.6284C55.6495 70.6367 55.659 70.6367 55.659 70.645L61.4796 84.3665Z" fill="url(#paint1_linear)"/>
<path d="M21.9484 26.9486V84.3628H0.000976562V5C5.82141 5.00188 11.4029 7.31495 15.5184 11.4307C19.6341 15.5465 21.9468 21.1281 21.9484 26.9486Z" fill="url(#paint2_linear)"/>
<g style="mix-blend-mode:multiply" opacity="0.16">
<g style="mix-blend-mode:multiply" opacity="0.16">
<path d="M21.9484 26.9486C21.9468 21.1281 19.6341 15.5465 15.5184 11.4307C11.4029 7.31495 5.82141 5.00188 0.000976562 5H19.8751C24.3099 9.14777 28.5711 15.9442 29.6249 26.9486H21.9484Z" fill="black"/>
</g>
</g>
<g style="mix-blend-mode:multiply" opacity="0.16">
<g style="mix-blend-mode:multiply" opacity="0.16">
<path d="M29.8862 48.095V69.9207L21.9486 69.9727V48.095H29.8862Z" fill="black"/>
</g>
</g>
<g style="mix-blend-mode:multiply" opacity="0.16">
<g style="mix-blend-mode:multiply" opacity="0.16">
<path d="M55.1805 69.5203C48.6802 72.927 41.5884 75.059 34.2869 75.8016L31.7387 69.9125C43.0479 69.9125 52.4764 63.1421 52.4764 63.1421L55.1805 69.5203Z" fill="black"/>
</g>
</g>
<g style="mix-blend-mode:multiply" opacity="0.25">
<g style="mix-blend-mode:multiply" opacity="0.25">
<path d="M64.9999 37.5253C65.0018 40.2836 64.6476 43.0305 63.9461 45.698C63.2607 48.3145 62.2569 50.837 60.9573 53.2091C60.2303 54.5267 59.4091 55.7901 58.5001 56.9895C58.6572 56.7367 59.0399 56.1271 59.5538 55.195C60.4929 53.4965 61.2998 51.7283 61.9674 49.906C62.9003 47.3554 63.5408 44.7072 63.8764 42.0121C64.0509 40.5025 64.1322 38.9835 64.1198 37.4639C64.1045 35.8942 63.9765 34.3276 63.737 32.7762C63.5099 31.2246 63.1659 29.6924 62.7081 28.1925C62.2658 26.7382 61.7336 25.3126 61.1144 23.9243C60.5241 22.6242 59.8606 21.3585 59.1274 20.1333C58.4185 18.9744 57.6814 17.9029 56.9572 16.953C55.7796 15.411 54.4832 13.9634 53.08 12.6233C52.0616 11.6381 51.4343 11.1159 51.4343 11.1159L51.5028 11.1584C55.1748 13.8233 58.2543 17.2203 60.5474 21.1351C61.9708 23.5653 63.075 26.1687 63.8327 28.8813C64.614 31.696 65.0067 34.6043 64.9999 37.5253Z" fill="black"/>
</g>
</g>
<g style="mix-blend-mode:multiply" opacity="0.25">
<g style="mix-blend-mode:multiply" opacity="0.25">
<path d="M61.4793 84.3665H43.9574C45.4211 84.1491 46.8765 84.018 48.3402 83.894C49.8039 83.7699 51.2594 83.6849 52.7113 83.6152C54.1632 83.5455 55.6387 83.5112 57.0941 83.484L60.1255 83.458C59.829 82.7268 59.5348 81.9943 59.2548 81.2536C58.7929 80.0959 58.357 78.937 57.9388 77.7603C57.5206 76.5837 57.1118 75.4082 56.7184 74.2162C56.325 73.0242 55.9695 71.8381 55.6552 70.6355L61.4793 84.3665Z" fill="black"/>
</g>
</g>
<g style="mix-blend-mode:screen" opacity="0.7">
<g style="mix-blend-mode:screen" opacity="0.7">
<path d="M0.915337 44.6879C0.907067 47.1688 0.897626 49.6496 0.881087 52.0856C0.864548 54.5216 0.827906 56.9292 0.801916 59.2565C0.741667 63.9087 0.644803 68.2479 0.523123 71.968C0.305752 79.4106 0.000976562 84.3664 0.000976562 84.3664V5C0.000976562 5 0.305752 9.96173 0.523123 17.3984C0.641259 21.1197 0.741667 25.4577 0.801916 30.1111C0.827906 32.4372 0.881087 34.8424 0.881087 37.2819C0.881087 39.7215 0.904705 42.2047 0.915337 44.6879Z" fill="white"/>
</g>
</g>
<g style="mix-blend-mode:multiply" opacity="0.25">
<g style="mix-blend-mode:multiply" opacity="0.25">
<path d="M43.4437 39.2336C43.4107 39.885 43.3057 40.5308 43.1306 41.1592C43.035 41.49 42.9121 41.8562 42.7987 42.1692C42.6667 42.5215 42.5128 42.8652 42.3379 43.1982C41.9766 43.9051 41.532 44.5662 41.0136 45.1675C40.4772 45.7855 39.875 46.3432 39.218 46.8309C38.5461 47.301 37.8281 47.7012 37.075 48.0253C36.3461 48.3341 35.5824 48.5533 34.8008 48.6786C34.075 48.796 33.338 48.8281 32.6047 48.7743C31.9431 48.74 31.3335 48.6786 30.7582 48.6171C28.4841 48.3998 26.9672 48.095 26.9672 48.095H32.5267C33.9197 48.1063 35.2997 47.8272 36.5788 47.2751C37.8398 46.7395 38.987 45.968 39.9587 45.0022C40.9278 44.0273 41.6974 42.8729 42.2245 41.6034C42.7793 40.3162 43.0582 38.9269 43.0432 37.5253C43.0479 36.8146 42.9806 36.1054 42.8424 35.4083C42.9818 35.7263 43.0928 36.056 43.1744 36.3936C43.4034 37.3218 43.4943 38.2788 43.4437 39.2336Z" fill="black"/>
</g>
</g>
<g style="mix-blend-mode:screen" opacity="0.7">
<g style="mix-blend-mode:screen" opacity="0.7">
<path d="M21.9485 26.9484V84.3627C21.9485 84.3627 21.8706 82.9261 21.7831 80.4157C21.6957 77.9053 21.5469 74.3081 21.4524 70.0044C21.3342 65.6995 21.2433 60.6716 21.1818 55.2881C21.1558 52.5958 21.1298 49.816 21.1039 46.9843C21.0779 44.1526 21.0861 41.2866 21.0779 38.4194C21.0696 35.5523 21.0944 32.6685 21.1121 29.8463C21.1039 28.4428 21.1476 27.011 21.1039 25.6902C21.0423 24.376 20.8557 23.0706 20.5463 21.7917C19.9607 19.3523 18.9583 17.0324 17.5834 14.9339C15.2651 11.4185 11.9918 8.63781 8.14787 6.91833C6.78303 6.30582 5.35755 5.83858 3.89495 5.52432C2.94829 5.32053 1.99111 5.16908 1.02778 5.07068C0.356767 5.02697 0 5.00098 0 5.00098C5.82043 5.00286 11.4019 7.31592 15.5174 11.4317C19.6331 15.5475 21.9458 21.1291 21.9473 26.9496L21.9485 26.9484Z" fill="white"/>
</g>
</g>
<defs>
<linearGradient id="paint0_linear" x1="64.0248" y1="37.4881" x2="8.77581" y2="37.4881" gradientUnits="userSpaceOnUse">
<stop stop-color="#00D1B2"/>
<stop offset="1" stop-color="#3273DC"/>
</linearGradient>
<linearGradient id="paint1_linear" x1="43.4269" y1="68.0449" x2="46.3904" y2="84.6549" gradientUnits="userSpaceOnUse">
<stop stop-color="#00D1B2"/>
<stop offset="1" stop-color="#FFDD57"/>
</linearGradient>
<linearGradient id="paint2_linear" x1="10.9747" y1="7.53961" x2="10.9747" y2="84.5216" gradientUnits="userSpaceOnUse">
<stop stop-color="#FFDD57"/>
<stop offset="1" stop-color="#FF3860"/>
</linearGradient>
</defs>
</svg>
