<svg width="250" height="78" viewBox="0 0 250 78" fill="none" xmlns="http://www.w3.org/2000/svg">
<path d="M61 50.808L61.048 52.008C61.048 52.2 61.176 52.296 61.432 52.296C62.456 52.2 63.352 51.944 64.12 51.528C64.888 51.08 65.464 50.584 65.848 50.04C66.616 48.856 67.032 47.832 67.096 46.968L67.144 46.392C67.144 44.664 66.456 43.8 65.08 43.8C64.056 43.8 63.224 44.248 62.584 45.144C61.528 46.552 61 48.44 61 50.808ZM71.464 57.192C71.464 58.408 71.208 59.48 70.696 60.408C70.216 61.304 69.656 61.976 69.016 62.424C68.408 62.84 67.688 63.176 66.856 63.432C65.8 63.752 64.792 63.912 63.832 63.912C61.144 63.912 59.16 62.904 57.88 60.888C56.6 58.872 55.96 56.312 55.96 53.208C55.96 50.072 56.744 47.288 58.312 44.856C59.912 42.424 62.296 41.208 65.464 41.208C68.344 41.208 70.296 42.216 71.32 44.232C71.736 45 71.944 45.736 71.944 46.44C71.944 47.112 71.912 47.656 71.848 48.072C71.784 48.456 71.56 49.048 71.176 49.848C70.792 50.648 70.28 51.368 69.64 52.008C69 52.648 67.992 53.256 66.616 53.832C65.24 54.408 63.624 54.792 61.768 54.984C61.512 54.984 61.384 55.096 61.384 55.32C61.384 55.608 61.48 56.04 61.672 56.616C61.896 57.16 62.136 57.624 62.392 58.008C63.096 58.904 64.136 59.352 65.512 59.352C66.888 59.352 68.056 58.904 69.016 58.008C69.528 57.528 69.944 56.936 70.264 56.232C70.392 55.976 70.552 55.848 70.744 55.848C70.968 55.848 71.144 56.024 71.272 56.376C71.4 56.728 71.464 57 71.464 57.192ZM74.5919 55.656C74.6559 52.424 74.6879 49.768 74.6879 47.688C74.6879 45.608 74.5439 43.624 74.2559 41.736C74.2559 41.416 74.5759 41.256 75.2159 41.256C75.8559 41.256 76.3999 41.336 76.8479 41.496C77.3279 41.656 77.6639 41.832 77.8559 42.024C78.3679 42.536 78.6559 42.792 78.7199 42.792C78.8159 42.792 79.0719 42.648 79.4879 42.36C80.7359 41.56 82.1119 41.16 83.6159 41.16C85.1519 41.16 86.4799 41.544 87.5999 42.312C88.7519 43.08 89.5679 44.088 90.0479 45.336C90.9119 47.48 91.3439 49.752 91.3439 52.152C91.3439 54.52 90.9119 56.888 90.0479 59.256C89.5679 60.536 88.8639 61.592 87.9359 62.424C87.0079 63.224 85.9199 63.624 84.6719 63.624C82.2079 63.624 80.9759 62.2 80.9759 59.352C80.9759 58.584 81.1359 58.2 81.4559 58.2C81.5199 58.2 81.6959 58.28 81.9839 58.44C82.3039 58.568 82.6079 58.632 82.8959 58.632C85.1679 58.632 86.3039 56.232 86.3039 51.432C86.3039 46.6 85.0879 44.184 82.6559 44.184C81.9839 44.184 81.4079 44.344 80.9279 44.664C80.4799 44.952 80.1919 45.24 80.0639 45.528L79.8719 46.008C79.4239 48.888 79.1999 54.44 79.1999 62.664C79.1999 66.376 79.2639 69.032 79.3919 70.632C79.5519 72.264 79.6319 73.24 79.6319 73.56C79.6319 73.88 79.5359 74.168 79.3439 74.424C78.7039 75.256 77.8399 75.992 76.7519 76.632C75.6639 77.304 74.7039 77.64 73.8719 77.64C73.5519 77.64 73.3919 77.432 73.3919 77.016C73.9039 73.784 74.3039 66.664 74.5919 55.656ZM110.557 41.64C109.981 45.096 109.693 49.496 109.693 54.84C109.693 58.776 109.853 61.368 110.173 62.616L110.365 63.24C110.365 63.656 110.013 63.864 109.309 63.864C106.845 63.864 105.437 63.176 105.085 61.8C105.053 61.64 104.973 61.56 104.845 61.56C104.749 61.56 104.653 61.624 104.557 61.752C103.565 63.064 102.029 63.72 99.949 63.72C98.797 63.72 97.597 63.432 96.349 62.856C95.581 62.504 94.957 61.896 94.477 61.032C93.997 60.136 93.757 59.048 93.757 57.768L94.477 47.256C94.477 45.048 94.253 43.48 93.805 42.552C93.645 42.2 93.565 41.976 93.565 41.88C93.565 41.688 93.645 41.56 93.805 41.496C94.317 41.336 94.973 41.256 95.773 41.256C98.877 41.256 100.429 42.536 100.429 45.096C100.429 45.896 100.093 47.72 99.421 50.568C98.781 53.416 98.461 55.448 98.461 56.664C98.461 57.848 98.717 58.76 99.229 59.4C99.773 60.04 100.509 60.36 101.437 60.36C102.397 60.36 103.149 60.024 103.693 59.352C104.237 58.68 104.557 58.008 104.653 57.336L104.797 56.328C104.925 55.208 104.989 53.24 104.989 50.424C104.989 47.608 104.893 45.832 104.701 45.096C104.541 44.328 104.461 43.848 104.461 43.656C104.461 42.856 105.101 42.232 106.381 41.784C107.661 41.304 108.813 41.064 109.837 41.064C110.317 41.064 110.557 41.256 110.557 41.64ZM112.158 44.28L112.302 42.36C112.334 42.072 112.558 41.928 112.974 41.928H114.654L114.462 38.088V37.896C114.462 37.16 115.022 36.456 116.142 35.784C117.262 35.112 118.286 34.776 119.214 34.776C119.502 34.776 119.646 34.904 119.646 35.16V35.208C119.518 36.072 119.39 38.296 119.262 41.88C120.67 41.88 121.566 41.848 121.95 41.784C122.334 41.72 122.542 41.688 122.574 41.688C122.798 41.688 122.91 41.88 122.91 42.264C122.91 42.648 122.734 43.144 122.382 43.752C122.03 44.328 121.646 44.632 121.23 44.664H119.214C119.182 45.752 119.166 47.592 119.166 50.184C119.166 52.744 119.182 54.856 119.214 56.52C119.278 58.184 119.342 59.448 119.406 60.312C119.47 61.144 119.534 61.816 119.598 62.328C119.694 62.84 119.758 63.208 119.79 63.432C119.854 63.656 119.886 63.8 119.886 63.864C119.886 64.184 119.678 64.36 119.262 64.392C118.014 64.392 116.766 64.216 115.518 63.864C114.302 63.512 113.694 62.904 113.694 62.04C114.366 56.664 114.702 50.888 114.702 44.712C113.838 44.712 113.182 44.744 112.734 44.808H112.686C112.398 44.808 112.222 44.632 112.158 44.28ZM139.644 48.6L139.548 54.744C139.548 59 140.012 61.56 140.94 62.424C141.068 62.552 141.132 62.696 141.132 62.856C141.132 63.336 140.092 63.576 138.012 63.576C135.964 63.576 134.876 62.968 134.748 61.752C134.716 61.464 134.7 60.872 134.7 59.976L134.892 52.296C134.892 52.072 134.764 51.96 134.508 51.96C132.972 51.96 131.532 52.392 130.188 53.256C128.844 54.12 128.172 55.224 128.172 56.568C128.172 57.272 128.364 57.864 128.748 58.344C129.132 58.824 129.596 59.064 130.14 59.064C130.716 59.064 131.18 58.952 131.532 58.728C131.916 58.504 132.14 58.376 132.204 58.344C132.748 58.408 133.02 58.984 133.02 60.072C133.02 61.128 132.524 61.992 131.532 62.664C130.54 63.304 129.5 63.624 128.412 63.624C127.324 63.624 126.38 63.432 125.58 63.048C124.812 62.664 124.252 62.232 123.9 61.752C123.548 61.272 123.26 60.728 123.036 60.12C122.812 59.384 122.7 58.744 122.7 58.2C122.7 55.96 123.404 54.168 124.812 52.824C126.22 51.48 128.028 50.52 130.236 49.944C133.148 49.368 134.668 48.84 134.796 48.36C134.892 48.008 134.94 47.416 134.94 46.584C134.94 44.888 134.076 44.04 132.348 44.04C131.612 44.04 130.956 44.28 130.38 44.76C129.804 45.208 129.516 45.784 129.516 46.488L129.804 47.64C129.74 48.184 129.164 48.504 128.076 48.6L127.548 48.648C126.588 48.648 125.82 48.408 125.244 47.928C124.7 47.448 124.428 46.808 124.428 46.008C124.428 45.496 124.588 44.936 124.908 44.328C125.26 43.688 125.692 43.176 126.204 42.792C126.716 42.408 127.5 42.072 128.556 41.784C129.644 41.464 130.684 41.304 131.676 41.304C132.668 41.304 133.436 41.336 133.98 41.4C134.524 41.464 135.26 41.624 136.188 41.88C137.148 42.104 137.932 42.552 138.54 43.224C139.18 43.896 139.516 44.616 139.548 45.384C139.612 46.12 139.644 47.192 139.644 48.6ZM141.829 44.28L141.973 42.36C142.005 42.072 142.229 41.928 142.645 41.928H144.325L144.133 38.088V37.896C144.133 37.16 144.693 36.456 145.813 35.784C146.933 35.112 147.957 34.776 148.885 34.776C149.173 34.776 149.317 34.904 149.317 35.16V35.208C149.189 36.072 149.061 38.296 148.933 41.88C150.341 41.88 151.237 41.848 151.621 41.784C152.005 41.72 152.213 41.688 152.245 41.688C152.469 41.688 152.581 41.88 152.581 42.264C152.581 42.648 152.405 43.144 152.053 43.752C151.701 44.328 151.317 44.632 150.901 44.664H148.885C148.853 45.752 148.837 47.592 148.837 50.184C148.837 52.744 148.853 54.856 148.885 56.52C148.949 58.184 149.013 59.448 149.077 60.312C149.141 61.144 149.205 61.816 149.269 62.328C149.365 62.84 149.429 63.208 149.461 63.432C149.525 63.656 149.557 63.8 149.557 63.864C149.557 64.184 149.349 64.36 148.933 64.392C147.685 64.392 146.437 64.216 145.189 63.864C143.973 63.512 143.365 62.904 143.365 62.04C144.037 56.664 144.373 50.888 144.373 44.712C143.509 44.712 142.853 44.744 142.405 44.808H142.357C142.069 44.808 141.893 44.632 141.829 44.28ZM158.228 37.32L157.076 37.272C156.212 37.272 155.652 37.48 155.396 37.896C155.332 37.992 155.252 38.04 155.156 38.04C154.74 38.04 154.532 37.336 154.532 35.928C154.532 34.488 154.74 33.576 155.156 33.192C155.604 32.808 156.356 32.616 157.412 32.616C158.5 32.616 159.236 32.808 159.62 33.192C160.004 33.544 160.196 34.152 160.196 35.016C160.196 35.88 160.052 36.488 159.764 36.84C159.476 37.16 158.964 37.32 158.228 37.32ZM154.388 61.56L154.916 50.376C154.916 47.72 154.612 45.912 154.004 44.952C153.812 44.632 153.588 44.392 153.332 44.232C153.14 44.168 153.044 44.04 153.044 43.848C153.044 43.272 153.86 42.712 155.492 42.168C157.124 41.624 158.308 41.352 159.044 41.352C159.812 41.352 160.212 41.544 160.244 41.928C160.244 42.568 160.148 44.392 159.956 47.4C159.796 50.376 159.716 53.512 159.716 56.808C159.716 60.104 159.908 62.152 160.292 62.952C160.388 63.112 160.436 63.272 160.436 63.432C160.436 63.848 159.828 64.056 158.612 64.056C157.396 64.056 156.148 63.736 154.868 63.096C154.548 62.936 154.388 62.424 154.388 61.56ZM167.925 44.904C167.093 44.936 166.485 44.968 166.101 45C165.749 45 165.573 44.904 165.573 44.712C165.573 44.52 165.669 44.328 165.861 44.136C167.909 42.248 171.365 41.304 176.229 41.304C177.893 41.304 179.205 41.448 180.165 41.736L180.645 41.88C181.029 42.04 181.221 42.216 181.221 42.408C181.221 42.568 181.109 42.696 180.885 42.792C180.021 43.048 179.189 43.464 178.389 44.04C177.589 44.584 177.189 44.968 177.189 45.192L177.477 45.528C178.501 46.104 179.285 47.016 179.829 48.264C180.405 49.512 180.725 50.616 180.789 51.576L180.885 53.064C180.885 56.232 180.005 58.84 178.245 60.888C176.485 62.936 174.085 63.96 171.045 63.96C169.509 63.96 168.181 63.688 167.061 63.144C165.941 62.6 165.109 61.992 164.565 61.32C164.053 60.616 163.637 59.832 163.317 58.968C162.933 57.784 162.741 56.568 162.741 55.32C162.741 54.04 162.949 52.76 163.365 51.48C163.813 50.2 164.309 49.256 164.853 48.648C165.429 48.04 166.069 47.544 166.773 47.16C167.669 46.68 168.389 46.44 168.933 46.44C169.477 46.44 169.749 46.552 169.749 46.776L169.461 47.256C168.757 48.088 168.245 49.176 167.925 50.52C167.637 51.864 167.493 53.064 167.493 54.12C167.493 55.144 167.621 56.168 167.877 57.192C168.133 58.216 168.421 58.984 168.741 59.496C169.061 59.976 169.429 60.344 169.845 60.6C170.453 60.984 171.093 61.176 171.765 61.176C172.437 61.176 173.093 60.92 173.733 60.408C174.373 59.864 174.837 59.16 175.125 58.296C175.701 56.696 175.989 55.048 175.989 53.352C175.989 50.664 175.301 48.584 173.925 47.112C172.581 45.64 170.581 44.904 167.925 44.904ZM183.237 63.336C183.813 59.88 184.101 55.736 184.101 50.904C184.101 46.072 183.957 42.936 183.669 41.496C183.669 41.08 184.149 40.872 185.109 40.872C186.581 40.872 187.557 41.432 188.037 42.552C188.069 42.648 188.149 42.696 188.277 42.696C188.405 42.696 188.501 42.664 188.565 42.6C189.557 41.576 191.093 41.064 193.173 41.064C195.253 41.064 196.901 41.592 198.117 42.648C199.333 43.704 199.941 45.24 199.941 47.256C199.941 48.472 199.829 50.2 199.605 52.44C199.413 54.68 199.317 56.344 199.317 57.432C199.317 60.024 199.749 61.896 200.613 63.048C200.741 63.208 200.805 63.368 200.805 63.528C200.805 63.944 200.357 64.152 199.461 64.152C195.493 64.152 193.509 62.392 193.509 58.872C193.509 57.528 193.813 55.656 194.421 53.256C195.029 50.856 195.333 49.032 195.333 47.784C195.333 45.224 194.277 43.944 192.165 43.944C191.141 43.944 190.357 44.248 189.813 44.856C189.301 45.464 189.013 46.168 188.949 46.968C188.885 47.736 188.853 49.208 188.853 51.384C188.853 54.712 188.965 57.608 189.189 60.072L189.285 61.128C189.285 62.024 188.693 62.712 187.509 63.192C186.357 63.704 185.349 63.96 184.485 63.96C183.653 63.96 183.237 63.752 183.237 63.336ZM206.489 63.048L205.337 63.096C204.569 63.096 204.057 62.936 203.801 62.616C203.545 62.296 203.401 61.704 203.369 60.84C203.369 59.944 203.577 59.304 203.993 58.92C204.409 58.536 205.113 58.344 206.105 58.344C207.097 58.344 207.817 58.536 208.265 58.92C208.745 59.272 208.985 59.864 208.985 60.696C208.985 62.776 208.777 63.816 208.361 63.816L208.121 63.672C207.897 63.256 207.353 63.048 206.489 63.048ZM217.806 37.32L216.654 37.272C215.79 37.272 215.23 37.48 214.974 37.896C214.91 37.992 214.83 38.04 214.734 38.04C214.318 38.04 214.11 37.336 214.11 35.928C214.11 34.488 214.318 33.576 214.734 33.192C215.182 32.808 215.934 32.616 216.99 32.616C218.078 32.616 218.814 32.808 219.198 33.192C219.582 33.544 219.774 34.152 219.774 35.016C219.774 35.88 219.63 36.488 219.342 36.84C219.054 37.16 218.542 37.32 217.806 37.32ZM213.966 61.56L214.494 50.376C214.494 47.72 214.19 45.912 213.582 44.952C213.39 44.632 213.166 44.392 212.91 44.232C212.718 44.168 212.622 44.04 212.622 43.848C212.622 43.272 213.438 42.712 215.07 42.168C216.702 41.624 217.886 41.352 218.622 41.352C219.39 41.352 219.79 41.544 219.822 41.928C219.822 42.568 219.726 44.392 219.534 47.4C219.374 50.376 219.294 53.512 219.294 56.808C219.294 60.104 219.486 62.152 219.87 62.952C219.966 63.112 220.014 63.272 220.014 63.432C220.014 63.848 219.406 64.056 218.19 64.056C216.974 64.056 215.726 63.736 214.446 63.096C214.126 62.936 213.966 62.424 213.966 61.56ZM237.532 56.424C237.532 57.8 237.26 59 236.716 60.024C236.204 61.048 235.612 61.8 234.94 62.28C234.268 62.76 233.468 63.144 232.54 63.432C231.324 63.816 230.22 64.008 229.228 64.008C227.148 64.008 225.42 63.608 224.044 62.808C222.668 61.976 221.98 60.664 221.98 58.872C221.98 57.816 222.268 56.952 222.844 56.28C223.74 55.288 224.812 54.792 226.06 54.792C226.444 54.792 226.636 54.968 226.636 55.32C226.636 55.352 226.556 55.608 226.396 56.088C226.268 56.536 226.204 57.112 226.204 57.816C226.204 58.52 226.476 59.144 227.02 59.688C227.596 60.232 228.284 60.504 229.084 60.504C229.884 60.504 230.524 60.376 231.004 60.12C231.484 59.832 231.82 59.48 232.012 59.064C232.3 58.488 232.444 57.944 232.444 57.432C232.444 56.504 231.98 55.704 231.052 55.032C230.124 54.36 229.1 53.832 227.98 53.448C226.86 53.064 225.836 52.424 224.908 51.528C223.98 50.632 223.516 49.512 223.516 48.168C223.516 45.864 224.236 44.136 225.676 42.984C227.148 41.832 229.132 41.256 231.628 41.256C232.716 41.256 233.852 41.416 235.036 41.736C236.252 42.024 236.86 42.536 236.86 43.272C236.86 43.976 236.732 44.632 236.476 45.24C236.252 45.848 235.964 46.152 235.612 46.152C235.42 46.152 235.292 46.088 235.228 45.96C235.164 45.8 235.052 45.624 234.892 45.432C234.732 45.24 234.348 45 233.74 44.712C233.132 44.392 232.604 44.232 232.156 44.232C231.74 44.232 231.452 44.248 231.292 44.28C231.164 44.28 230.924 44.328 230.572 44.424C230.22 44.488 229.9 44.6 229.612 44.76C228.876 45.176 228.508 45.784 228.508 46.584C228.508 47.096 228.62 47.48 228.844 47.736C229.068 47.96 229.244 48.136 229.372 48.264C229.5 48.392 229.724 48.552 230.044 48.744C230.364 48.904 230.588 49.016 230.716 49.08C230.844 49.144 231.132 49.288 231.58 49.512C232.028 49.704 232.316 49.832 232.444 49.896C235.836 51.496 237.532 53.672 237.532 56.424ZM238.72 44.28L238.864 42.36C238.896 42.072 239.12 41.928 239.536 41.928H241.216L241.024 38.088V37.896C241.024 37.16 241.584 36.456 242.704 35.784C243.824 35.112 244.848 34.776 245.776 34.776C246.064 34.776 246.208 34.904 246.208 35.16V35.208C246.08 36.072 245.952 38.296 245.824 41.88C247.232 41.88 248.128 41.848 248.512 41.784C248.896 41.72 249.104 41.688 249.136 41.688C249.36 41.688 249.472 41.88 249.472 42.264C249.472 42.648 249.296 43.144 248.944 43.752C248.592 44.328 248.208 44.632 247.792 44.664H245.776C245.744 45.752 245.728 47.592 245.728 50.184C245.728 52.744 245.744 54.856 245.776 56.52C245.84 58.184 245.904 59.448 245.968 60.312C246.032 61.144 246.096 61.816 246.16 62.328C246.256 62.84 246.32 63.208 246.352 63.432C246.416 63.656 246.448 63.8 246.448 63.864C246.448 64.184 246.24 64.36 245.824 64.392C244.576 64.392 243.328 64.216 242.08 63.864C240.864 63.512 240.256 62.904 240.256 62.04C240.928 56.664 241.264 50.888 241.264 44.712C240.4 44.712 239.744 44.744 239.296 44.808H239.248C238.96 44.808 238.784 44.632 238.72 44.28Z" fill="black"/>
<path d="M55.021 27.5321C55.0226 29.8669 54.7228 32.1921 54.129 34.4501C53.5488 36.6649 52.6991 38.8002 51.599 40.8081C50.9836 41.9234 50.2884 42.9929 49.519 44.0081C49.489 44.0601 49.467 44.0891 49.46 44.1081L49.453 44.1151C48.8537 44.9053 48.2135 45.6637 47.535 46.3871C46.5727 47.4104 45.5322 48.3572 44.423 49.2191C44.423 49.2191 36.442 54.9501 26.869 54.9501L25.298 54.9571L18.579 55.0011V36.4791H27.533C28.7121 36.4887 29.8803 36.2523 30.963 35.7851C32.0304 35.3317 33.0015 34.6787 33.824 33.8611C34.6443 33.0359 35.2958 32.0587 35.742 30.9841C36.2116 29.8945 36.4477 28.7185 36.435 27.5321C36.439 26.9305 36.382 26.3301 36.265 25.7401C36.2611 25.7333 36.2588 25.7258 36.258 25.7181C36.1466 25.1503 35.9736 24.5963 35.742 24.0661C34.8352 21.9032 33.1166 20.182 30.955 19.2721C29.8753 18.8044 28.7096 18.5683 27.533 18.5791H18.579C18.5777 13.6522 16.62 8.92748 13.1362 5.44356C9.65247 1.95964 4.92786 0.00167306 0.000976562 8.25541e-05H27.533C30.003 -0.0060215 32.4622 0.326403 34.842 0.988082C37.136 1.62808 39.3374 2.56287 41.391 3.76908C42.129 4.20408 42.844 4.67608 43.538 5.17808L43.596 5.21408C46.7041 7.46981 49.3109 10.3453 51.252 13.6591C52.4568 15.7162 53.3915 17.92 54.033 20.2161C54.6942 22.5983 55.0266 25.0598 55.021 27.5321Z" fill="url(#paint0_linear)"/>
<path d="M52.0412 67.1821H32.1572L29.0232 59.9321L26.8662 54.9471C36.4392 54.9471 44.4202 49.2161 44.4202 49.2161L46.7062 54.6161L47.1062 55.5531C47.1062 55.5601 47.1142 55.5601 47.1142 55.5671L52.0412 67.1821Z" fill="url(#paint1_linear)"/>
<path d="M18.579 18.579V67.179H0.000976562V0C4.92786 0.00159051 9.65247 1.95956 13.1362 5.44348C16.62 8.9274 18.5777 13.6521 18.579 18.579Z" fill="url(#paint2_linear)"/>
<g style="mix-blend-mode:multiply" opacity="0.16">
<g style="mix-blend-mode:multiply" opacity="0.16">
<path d="M18.579 18.579C18.5777 13.6521 16.62 8.9274 13.1362 5.44348C9.65247 1.95956 4.92786 0.00159051 0.000976562 0H16.824C20.578 3.511 24.185 9.264 25.077 18.579H18.579Z" fill="black"/>
</g>
</g>
<g style="mix-blend-mode:multiply" opacity="0.16">
<g style="mix-blend-mode:multiply" opacity="0.16">
<path d="M25.2981 36.479V54.954L18.5791 54.998V36.479H25.2981Z" fill="black"/>
</g>
</g>
<g style="mix-blend-mode:multiply" opacity="0.16">
<g style="mix-blend-mode:multiply" opacity="0.16">
<path d="M46.7092 54.6151C41.2068 57.4988 35.2037 59.3035 29.0232 59.9321L26.8662 54.9471C36.4392 54.9471 44.4202 49.2161 44.4202 49.2161L46.7092 54.6151Z" fill="black"/>
</g>
</g>
<g style="mix-blend-mode:multiply" opacity="0.25">
<g style="mix-blend-mode:multiply" opacity="0.25">
<path d="M55.0211 27.532C55.0227 29.8668 54.7229 32.192 54.1291 34.45C53.5489 36.6648 52.6992 38.8001 51.5991 40.808C50.9837 41.9233 50.2886 42.9928 49.5191 44.008C49.6521 43.794 49.9761 43.278 50.4111 42.489C51.206 41.0513 51.889 39.5545 52.4541 38.012C53.2438 35.853 53.786 33.6113 54.0701 31.33C54.2178 30.0521 54.2866 28.7663 54.2761 27.48C54.2631 26.1513 54.1548 24.8252 53.9521 23.512C53.7598 22.1986 53.4686 20.9016 53.0811 19.632C52.7067 18.4009 52.2562 17.1942 51.7321 16.019C51.2324 14.9185 50.6708 13.8471 50.0501 12.81C49.4501 11.829 48.8261 10.922 48.2131 10.118C47.2163 8.8127 46.1189 7.5873 44.9311 6.453C44.0691 5.619 43.5381 5.177 43.5381 5.177L43.5961 5.213C46.7043 7.46873 49.3111 10.3442 51.2521 13.658C52.457 15.7151 53.3917 17.9189 54.0331 20.215C54.6944 22.5976 55.0268 25.0594 55.0211 27.532Z" fill="black"/>
</g>
</g>
<g style="mix-blend-mode:multiply" opacity="0.25">
<g style="mix-blend-mode:multiply" opacity="0.25">
<path d="M52.041 67.1821H37.209C38.448 66.9981 39.68 66.8871 40.919 66.7821C42.158 66.6771 43.39 66.6051 44.619 66.5461C45.848 66.4871 47.097 66.4581 48.329 66.4351L50.895 66.4131C50.644 65.7941 50.395 65.1741 50.158 64.5471C49.767 63.5671 49.398 62.5861 49.044 61.5901C48.69 60.5941 48.344 59.5991 48.011 58.5901C47.678 57.5811 47.377 56.5771 47.111 55.5591L52.041 67.1821Z" fill="black"/>
</g>
</g>
<g style="mix-blend-mode:screen" opacity="0.7">
<g style="mix-blend-mode:screen" opacity="0.7">
<path d="M0.774964 33.595C0.767964 35.695 0.759972 37.795 0.745972 39.857C0.731972 41.919 0.700956 43.957 0.678956 45.927C0.627956 49.865 0.545963 53.538 0.442963 56.687C0.258963 62.987 0.000976562 67.182 0.000976562 67.182V0C0.000976562 0 0.258963 4.2 0.442963 10.495C0.542963 13.645 0.627956 17.317 0.678956 21.256C0.700956 23.225 0.745972 25.261 0.745972 27.326C0.745972 29.391 0.765964 31.493 0.774964 33.595Z" fill="white"/>
</g>
</g>
<g style="mix-blend-mode:multiply" opacity="0.25">
<g style="mix-blend-mode:multiply" opacity="0.25">
<path d="M36.7742 28.978C36.7463 29.5294 36.6574 30.0761 36.5092 30.608C36.4282 30.888 36.3242 31.198 36.2282 31.463C36.1165 31.7612 35.9862 32.0521 35.8382 32.334C35.5323 32.9324 35.156 33.492 34.7172 34.001C34.2631 34.5241 33.7534 34.9962 33.1972 35.409C32.6285 35.8069 32.0207 36.1457 31.3832 36.42C30.7662 36.6814 30.1198 36.867 29.4582 36.973C28.8438 37.0724 28.2199 37.0996 27.5992 37.054C27.0392 37.025 26.5232 36.973 26.0362 36.921C24.1112 36.737 22.8272 36.479 22.8272 36.479H27.5332C28.7123 36.4886 29.8805 36.2523 30.9632 35.785C32.0306 35.3316 33.0017 34.6786 33.8242 33.861C34.6445 33.0358 35.296 32.0586 35.7422 30.984C36.2118 29.8944 36.4479 28.7184 36.4352 27.532C36.4392 26.9304 36.3822 26.3301 36.2652 25.74C36.3832 26.0092 36.4772 26.2883 36.5462 26.574C36.7401 27.3597 36.817 28.1698 36.7742 28.978Z" fill="black"/>
</g>
</g>
<g style="mix-blend-mode:screen" opacity="0.7">
<g style="mix-blend-mode:screen" opacity="0.7">
<path d="M18.579 18.579V67.179C18.579 67.179 18.513 65.963 18.439 63.838C18.365 61.713 18.239 58.668 18.159 55.025C18.059 51.381 17.982 47.125 17.93 42.568C17.908 40.289 17.886 37.936 17.864 35.539C17.842 33.142 17.849 30.716 17.842 28.289C17.835 25.862 17.856 23.421 17.871 21.032C17.864 19.844 17.901 18.632 17.864 17.514C17.8119 16.4015 17.6539 15.2965 17.392 14.214C16.8963 12.1491 16.0478 10.1853 14.884 8.40898C12.9216 5.43331 10.1508 3.07948 6.89701 1.62398C5.7417 1.1055 4.53506 0.709991 3.297 0.443977C2.49567 0.27147 1.68544 0.143274 0.869996 0.0599766C0.301996 0.0229766 0 0.000976562 0 0.000976562C4.92688 0.00256707 9.65149 1.96053 13.1352 5.44446C16.619 8.92838 18.5767 13.6531 18.578 18.58L18.579 18.579Z" fill="white"/>
</g>
</g>
<defs>
<linearGradient id="paint0_linear" x1="54.1958" y1="27.5005" x2="7.42869" y2="27.5005" gradientUnits="userSpaceOnUse">
<stop stop-color="#C33764"/>
<stop offset="1" stop-color="#1D2671"/>
</linearGradient>
<linearGradient id="paint1_linear" x1="36.76" y1="53.3662" x2="39.2685" y2="67.4262" gradientUnits="userSpaceOnUse">
<stop stop-color="#08ADF8"/>
<stop offset="1" stop-color="#4700FC"/>
</linearGradient>
<linearGradient id="paint2_linear" x1="9.28998" y1="2.14973" x2="9.28998" y2="67.3134" gradientUnits="userSpaceOnUse">
<stop stop-color="#FC7300"/>
<stop offset="1" stop-color="#F8007A"/>
</linearGradient>
</defs>
</svg>
